<?xml version="1.0" encoding="utf-8"?>
<!-- Generator: Adobe Illustrator 17.0.0, SVG Export Plug-In . SVG Version: 6.00 Build 0)  -->
<!DOCTYPE svg PUBLIC "-//W3C//DTD SVG 1.1//EN" "http://www.w3.org/Graphics/SVG/1.1/DTD/svg11.dtd">
<svg version="1.1" id="Layer_1" xmlns="http://www.w3.org/2000/svg" xmlns:xlink="http://www.w3.org/1999/xlink" x="0px" y="0px"
	 width="57px" height="57px" viewBox="34.279 48.3 57 57" enable-background="new 34.279 48.3 57 57" xml:space="preserve">
<g opacity="0.1">
	<path fill="#545454" d="M75.539,55.36v15.19c0,7.051-5.713,12.761-12.761,12.761c-3.607,0-6.867-1.497-9.188-3.903v8.732
		c2.746,1.439,5.873,2.253,9.188,2.253c10.957,0,19.839-8.885,19.839-19.842C82.617,64.456,79.868,58.998,75.539,55.36z"/>
	<path fill="#545454" d="M62.779,57.79c2.015,0,3.92,0.466,5.615,1.3v-7.571c-1.78-0.524-3.665-0.806-5.615-0.806
		c-10.84,0-19.642,8.697-19.83,19.488h-0.005v0.216c0,0.045-0.003,0.09-0.003,0.135c0,0.04,0.003,0.081,0.003,0.121v12.47v0.954
		v18.885c0,0,7.075-2.294,7.075-6.728v-7.847c0-0.97,0-1.877,0-2.661c0-0.65,0-1.216,0-1.649c0-0.599,0-0.954,0-0.954
		c0-6.144,0-11.245,0-12.591C50.018,63.503,55.731,57.79,62.779,57.79z"/>
</g>
<g opacity="0.1">
	<path fill="#545454" d="M62.779,61.363c-5.072,0-9.188,4.116-9.188,9.188c0,5.075,4.116,9.188,9.188,9.188
		c5.075,0,9.188-4.112,9.188-9.188C71.966,65.479,67.854,61.363,62.779,61.363z"/>
	<path fill="#545454" d="M70.275,52.189v8.034c1.337,0.966,2.501,2.205,3.403,3.696v-9.943
		C72.603,53.264,71.463,52.669,70.275,52.189z"/>
</g>
<rect x="35.279" y="49.3" opacity="0.1" fill="none" stroke="#545454" stroke-width="2" stroke-miterlimit="10" width="55" height="55"/>
<g opacity="0.5">
	<path d="M45.922,80.633H44.98l-3.579-5.479v5.479h-0.942v-7.109h0.942l3.589,5.503v-5.503h0.933V80.633z"/>
	<path d="M53.056,77.308c0,0.696-0.117,1.305-0.352,1.823c-0.234,0.52-0.566,0.916-0.996,1.189s-0.931,0.41-1.504,0.41
		c-0.56,0-1.057-0.138-1.489-0.412c-0.433-0.275-0.77-0.668-1.008-1.178c-0.24-0.509-0.362-1.099-0.369-1.77v-0.513
		c0-0.684,0.119-1.287,0.356-1.812s0.573-0.925,1.009-1.204c0.434-0.278,0.932-0.417,1.491-0.417c0.569,0,1.071,0.138,1.507,0.413
		c0.434,0.275,0.769,0.674,1.003,1.197c0.234,0.521,0.352,1.13,0.352,1.823V77.308z M52.123,76.849c0-0.843-0.169-1.49-0.508-1.94
		c-0.339-0.451-0.813-0.677-1.421-0.677c-0.593,0-1.059,0.226-1.399,0.677c-0.34,0.45-0.515,1.076-0.524,1.877v0.522
		c0,0.817,0.172,1.459,0.515,1.927c0.344,0.467,0.816,0.7,1.419,0.7c0.605,0,1.074-0.221,1.406-0.661
		c0.332-0.441,0.503-1.074,0.513-1.897V76.849z"/>
	<path d="M57.944,80.633h-0.938v-7.109h0.938V80.633z"/>
	<path d="M60.868,73.524l2.324,5.801l2.324-5.801h1.216v7.109h-0.938v-2.769l0.088-2.988l-2.334,5.757h-0.718l-2.329-5.742
		l0.093,2.974v2.769h-0.938v-7.109H60.868z"/>
	<path d="M72.402,78.773h-2.979l-0.669,1.86h-0.967l2.715-7.109h0.82l2.72,7.109H73.08L72.402,78.773z M69.706,78.006h2.417
		l-1.211-3.325L69.706,78.006z"/>
	<path d="M80.195,79.7c-0.241,0.345-0.577,0.603-1.008,0.774c-0.432,0.17-0.934,0.256-1.507,0.256c-0.579,0-1.094-0.136-1.543-0.408
		c-0.449-0.271-0.797-0.658-1.042-1.159c-0.246-0.501-0.372-1.082-0.379-1.743V76.8c0-1.071,0.25-1.901,0.75-2.49
		c0.499-0.589,1.201-0.884,2.106-0.884c0.742,0,1.34,0.189,1.792,0.569s0.729,0.917,0.83,1.614h-0.938
		c-0.176-0.944-0.735-1.416-1.68-1.416c-0.628,0-1.104,0.221-1.428,0.662c-0.324,0.441-0.488,1.081-0.491,1.918v0.582
		c0,0.798,0.183,1.433,0.547,1.903s0.857,0.706,1.479,0.706c0.352,0,0.659-0.039,0.923-0.117s0.481-0.209,0.654-0.395V77.86h-1.646
		v-0.767h2.578V79.7z"/>
	<path d="M85.776,77.347h-3.081v2.52h3.579v0.767h-4.517v-7.109h4.468v0.767h-3.53v2.29h3.081V77.347z"/>
</g>
</svg>
