<?xml version="1.0" encoding="utf-8"?>
<!-- Generator: Adobe Illustrator 17.0.0, SVG Export Plug-In . SVG Version: 6.00 Build 0)  -->
<!DOCTYPE svg PUBLIC "-//W3C//DTD SVG 1.1//EN" "http://www.w3.org/Graphics/SVG/1.1/DTD/svg11.dtd">
<svg version="1.1" id="Слой_1" xmlns="http://www.w3.org/2000/svg" xmlns:xlink="http://www.w3.org/1999/xlink" x="0px" y="0px"
	 width="32px" height="30.171px" viewBox="301.5 774.846 32 30.171" enable-background="new 301.5 774.846 32 30.171"
	 xml:space="preserve">
<path fill="#5F9137" d="M325.924,775.837l-3.276-0.826c-0.44-0.11-0.881-0.165-1.349-0.165h-7.653c-0.44,0-0.908,0.055-1.349,0.165
	l-3.276,0.826c-1.321,0.33-2.478,1.156-3.248,2.285l-4.047,6.111c-0.413,0.633-0.248,1.487,0.385,1.899l2.312,1.542
	c0.578,0.385,1.376,0.275,1.844-0.275l1.542-1.899v18.141c0,0.771,0.606,1.376,1.376,1.376h16.627c0.771,0,1.376-0.606,1.376-1.376
	v-18.141l1.542,1.899c0.44,0.551,1.239,0.688,1.844,0.275l2.312-1.542c0.633-0.413,0.798-1.266,0.385-1.899l-4.074-6.084
	C328.401,776.993,327.245,776.167,325.924,775.837z"/>
<g display="none">
	<path display="inline" fill="#FFFFFF" d="M240.152,926.042l-16.399-180.114c0,0-1.093,21.319-2.46,22.138v157.976
		c0,7.653,6.013,13.666,13.666,13.666h18.859C246.165,939.707,240.152,933.421,240.152,926.042z"/>
	<path display="inline" fill="#FFFFFF" d="M179.75,733.355l32.251-60.403c7.653-15.032,27.331-22.138,40.451-25.418l32.524-8.199
		c4.373-1.093,8.746,1.093,13.392,1.093h-18.859c-4.373,0-9.019,0.547-13.392,1.64l-32.524,8.199
		c-13.119,3.28-24.598,11.479-32.251,22.685l-40.451,60.403c-4.1,6.286-2.46,14.759,3.826,18.859l22.958,15.306
		c5.193,3.553,12.299,2.733,16.946-1.367l-20.772-13.939C177.29,748.114,175.65,739.641,179.75,733.355z"/>
</g>
<path fill="#FFFFFF" d="M321.96,775.204c-0.22,2.285-2.147,4.157-4.487,4.157c-2.367,0-4.322-1.817-4.487-4.157"/>
<path display="none" fill="#FFFFFF" d="M436.665,670.492c-8.199-12.299-20.499-20.772-34.711-24.325l-32.524-8.199
	c-4.646-1.093-9.566-1.64-14.212-1.64h-75.982c-4.92,0-9.566,0.547-14.212,1.64l-32.524,8.199
	c-14.212,3.553-26.512,12.299-34.711,24.325l-40.451,60.403c-2.733,3.826-3.553,8.746-2.733,13.392s3.553,8.746,7.653,11.206
	l22.958,15.306c3.006,1.913,6.286,3.006,9.839,3.006c5.466,0,10.386-2.46,13.939-6.56l7.926-9.839v168.635
	c0,9.839,7.926,17.765,17.765,17.765h165.082c9.839,0,17.765-7.926,17.765-17.765V757.407l7.926,9.839
	c3.28,4.1,8.473,6.56,13.939,6.56c3.553,0,6.833-1.093,9.839-3.006l22.958-15.306c3.826-2.733,6.56-6.56,7.653-11.206
	c0.82-4.646,0-9.293-2.733-13.392L436.665,670.492z M355.218,644.254c0.82,0,1.64,0,2.46,0
	c-2.187,21.045-19.405,36.624-40.451,36.624c-20.772,0-38.264-15.852-40.451-36.351c0.82,0,1.64,0,2.46,0h75.982V644.254z
	 M467.55,748.66l-22.958,15.306c-4.1,2.733-9.839,1.913-12.846-1.913l-15.306-18.859c-1.093-1.367-3.006-1.913-4.646-1.367
	s-2.733,2.186-2.733,3.826v180.114c0,5.193-4.373,9.566-9.566,9.566H234.686c-5.193,0-9.566-4.373-9.566-9.566V745.927
	c0-1.64-1.093-3.28-2.733-3.826c-0.547-0.273-0.82-0.273-1.367-0.273c-1.093,0-2.46,0.547-3.28,1.64l-15.306,18.859
	c-2.733,3.553-8.473,4.373-12.572,1.64l-22.958-15.306c-4.373-3.006-5.466-8.746-2.733-13.392l40.451-60.403
	c7.106-10.386,17.492-18.039,29.791-21.045l32.524-8.199c0.547-0.273,1.093-0.273,1.64-0.273
	c2.733,24.598,23.505,43.73,48.377,43.73c25.145,0,45.917-18.585,48.65-43.457c0.547,0,1.093,0.273,1.64,0.273l32.524,8.199
	c12.299,3.006,22.685,10.386,29.791,21.045l40.724,60.403C473.016,739.914,471.923,745.927,467.55,748.66z"/>
<path fill="#FFFFFF" d="M324.382,784.123h-3.909c-0.22,0-0.413,0.193-0.413,0.413s0.193,0.413,0.413,0.413h3.909
	c0.22,0,0.413-0.193,0.413-0.413S324.602,784.123,324.382,784.123z"/>
</svg>
