<?xml version="1.0" encoding="UTF-8" standalone="no"?>
<svg width="356px" height="356px" viewBox="0 0 356 356" version="1.1" xmlns="http://www.w3.org/2000/svg" xmlns:xlink="http://www.w3.org/1999/xlink" xmlns:sketch="http://www.bohemiancoding.com/sketch/ns">
    <!-- Generator: sketchtool 3.5.2 (25235) - http://www.bohemiancoding.com/sketch -->
    <title>online_sales_graphic</title>
    <desc>Created with sketchtool.</desc>
    <defs>
        <path id="path-1" d="M0,0 L356,0 L356,356 L0,356"></path>
        <path id="path-3" d="M0,0 L356,0 L356,356 L0,356"></path>
    </defs>
    <g id="Final-Pages" stroke="none" stroke-width="1" fill="none" fill-rule="evenodd" sketch:type="MSPage">
        <g id="software-overview---main" sketch:type="MSArtboardGroup" transform="translate(-908.000000, -2864.000000)">
            <g id="online_sales_graphic" sketch:type="MSLayerGroup" transform="translate(908.000000, 2864.000000)">
                <path d="M178.001207,235.322034 C176.341885,235.322034 174.984258,236.673627 174.984258,238.338983 C174.984258,240.004339 176.341885,241.355932 178.001207,241.355932 C179.660529,241.355932 181.018156,240.004339 181.018156,238.338983 C181.018156,236.673627 179.660529,235.322034 178.001207,235.322034 M178.001207,247.389831 C173.011173,247.389831 168.950359,243.329017 168.950359,238.338983 C168.950359,233.348949 173.011173,229.288136 178.001207,229.288136 C182.991241,229.288136 187.052054,233.348949 187.052054,238.338983 C187.052054,243.329017 182.991241,247.389831 178.001207,247.389831" id="Fill-1" fill="#FFFFFF" sketch:type="MSShapeGroup"></path>
                <path d="M3.01815593,187.050847 C1.3528,187.050847 0.00120677966,185.699254 0.00120677966,184.033898 L0.00120677966,81.4576271 C0.00120677966,79.7922712 1.3528,78.440678 3.01815593,78.440678 C4.68351186,78.440678 6.03510508,79.7922712 6.03510508,81.4576271 L6.03510508,184.033898 C6.03510508,185.699254 4.68351186,187.050847 3.01815593,187.050847" id="Fill-3" fill="#FFFFFF" sketch:type="MSShapeGroup"></path>
                <g id="Group-7">
                    <mask id="mask-2" sketch:name="Clip 6" fill="white">
                        <use xlink:href="#path-1"></use>
                    </mask>
                    <g id="Clip-6"></g>
                    <path d="M328.848664,271.525424 L27.1537492,271.525424 C11.9302237,271.525424 0.00120677966,259.596407 0.00120677966,244.372881 L0.00120677966,208.169492 C0.00120677966,206.504136 1.3528,205.152542 3.01815593,205.152542 L328.848664,205.152542 C330.51402,205.152542 331.865614,206.504136 331.865614,208.169492 C331.865614,209.834847 330.51402,211.186441 328.848664,211.186441 L6.03510508,211.186441 L6.03510508,244.372881 C6.03510508,256.21139 15.3092068,265.491525 27.1537492,265.491525 L328.848664,265.491525 C340.886292,265.491525 349.967308,256.410508 349.967308,244.372881 L349.967308,81.4576271 C349.967308,79.7922712 351.318902,78.440678 352.984258,78.440678 C354.649614,78.440678 356.001207,79.7922712 356.001207,81.4576271 L356.001207,244.372881 C356.001207,259.596407 344.07219,271.525424 328.848664,271.525424" id="Fill-5" fill="#FFFFFF" sketch:type="MSShapeGroup" mask="url(#mask-2)"></path>
                </g>
                <g id="Group-10">
                    <mask id="mask-4" sketch:name="Clip 9" fill="white">
                        <use xlink:href="#path-3"></use>
                    </mask>
                    <g id="Clip-9"></g>
                    <path d="M298.679173,30.1694915 C300.344529,30.1694915 301.696122,31.5210847 301.696122,33.1864407 C301.696122,48.1565424 313.878563,60.3389831 328.848664,60.3389831 C336.903919,60.3389831 344.361817,56.8091525 349.563037,50.5942373 L332.794834,6.03389831 L23.2075797,6.03389831 L6.43937627,50.5942373 C11.6405966,56.8091525 19.0984949,60.3389831 27.1537492,60.3389831 C42.1238508,60.3389831 54.3062915,48.1565424 54.3062915,33.1864407 C54.3062915,31.5210847 55.6578847,30.1694915 57.3232407,30.1694915 C58.9885966,30.1694915 60.3401898,31.5210847 60.3401898,33.1864407 C60.3401898,48.1565424 72.5226305,60.3389831 87.4927322,60.3389831 C102.462834,60.3389831 114.645275,48.1565424 114.645275,33.1864407 C114.645275,31.5210847 115.996868,30.1694915 117.662224,30.1694915 C119.32758,30.1694915 120.679173,31.5210847 120.679173,33.1864407 C120.679173,48.1565424 132.861614,60.3389831 147.831715,60.3389831 C162.801817,60.3389831 174.984258,48.1565424 174.984258,33.1864407 C174.984258,31.5210847 176.335851,30.1694915 178.001207,30.1694915 C179.666563,30.1694915 181.018156,31.5210847 181.018156,33.1864407 C181.018156,48.1565424 193.200597,60.3389831 208.170698,60.3389831 C223.1408,60.3389831 235.323241,48.1565424 235.323241,33.1864407 C235.323241,31.5210847 236.674834,30.1694915 238.34019,30.1694915 C240.005546,30.1694915 241.357139,31.5210847 241.357139,33.1864407 C241.357139,48.1565424 253.53958,60.3389831 268.509681,60.3389831 C283.479783,60.3389831 295.662224,48.1565424 295.662224,33.1864407 C295.662224,31.5210847 297.013817,30.1694915 298.679173,30.1694915 M328.848664,66.3728814 C315.477546,66.3728814 303.928664,58.4262373 298.679173,47.0101017 C293.429681,58.4262373 281.8808,66.3728814 268.509681,66.3728814 C255.138563,66.3728814 243.589681,58.4262373 238.34019,47.0101017 C233.090698,58.4262373 221.541817,66.3728814 208.170698,66.3728814 C194.79958,66.3728814 183.250698,58.4262373 178.001207,47.0101017 C172.751715,58.4262373 161.202834,66.3728814 147.831715,66.3728814 C134.460597,66.3728814 122.911715,58.4262373 117.662224,47.0101017 C112.412732,58.4262373 100.863851,66.3728814 87.4927322,66.3728814 C74.1216136,66.3728814 62.5727322,58.4262373 57.3232407,47.0101017 C52.0737492,58.4262373 40.5248678,66.3728814 27.1537492,66.3728814 C16.6426983,66.3728814 6.95829153,61.467322 0.598562712,52.923322 C-0.0168949153,52.1027119 -0.167742373,51.0226441 0.194291525,50.0572203 L18.2959864,1.95498305 C18.736461,0.778372881 19.8648,0 21.1198508,0 L334.882563,0 C336.137614,0 337.265953,0.778372881 337.706427,1.95498305 L355.808122,50.0572203 C356.170156,51.0226441 356.019308,52.1027119 355.403851,52.923322 C349.044122,61.467322 339.359715,66.3728814 328.848664,66.3728814" id="Fill-8" fill="#70BF3C" sketch:type="MSShapeGroup" mask="url(#mask-4)"></path>
                </g>
                <path d="M256.441885,356 L99.5605288,356 C97.8951729,356 96.5435797,354.648407 96.5435797,352.983051 C96.5435797,339.280068 109.993139,325.830508 123.696122,325.830508 L184.035105,325.830508 C185.700461,325.830508 187.052054,327.182102 187.052054,328.847458 C187.052054,330.512814 185.700461,331.864407 184.035105,331.864407 L123.696122,331.864407 C114.247037,331.864407 104.629003,340.565288 102.867105,349.966102 L253.135308,349.966102 C251.37341,340.565288 241.755376,331.864407 232.306292,331.864407 L208.170698,331.864407 C206.505342,331.864407 205.153749,330.512814 205.153749,328.847458 L205.153749,292.644068 C205.153749,290.978712 206.505342,289.627119 208.170698,289.627119 C209.836054,289.627119 211.187647,290.978712 211.187647,292.644068 L211.187647,325.830508 L232.306292,325.830508 C246.009275,325.830508 259.458834,339.280068 259.458834,352.983051 C259.458834,354.648407 258.107241,356 256.441885,356" id="Fill-11" fill="#FFFFFF" sketch:type="MSShapeGroup"></path>
                <path d="M147.831715,331.864407 C146.166359,331.864407 144.814766,330.512814 144.814766,328.847458 L144.814766,292.644068 C144.814766,290.978712 146.166359,289.627119 147.831715,289.627119 C149.497071,289.627119 150.848664,290.978712 150.848664,292.644068 L150.848664,328.847458 C150.848664,330.512814 149.497071,331.864407 147.831715,331.864407" id="Fill-13" fill="#FFFFFF" sketch:type="MSShapeGroup"></path>
                <path d="M268.509681,187.050847 C266.844325,187.050847 265.492732,185.699254 265.492732,184.033898 C265.492732,179.043864 261.431919,174.983051 256.441885,174.983051 C251.451851,174.983051 247.391037,179.043864 247.391037,184.033898 C247.391037,185.699254 246.039444,187.050847 244.374088,187.050847 C242.708732,187.050847 241.357139,185.699254 241.357139,184.033898 C241.357139,175.719186 248.121139,168.949153 256.441885,168.949153 C264.762631,168.949153 271.526631,175.719186 271.526631,184.033898 C271.526631,185.699254 270.175037,187.050847 268.509681,187.050847" id="Fill-15" fill="#F7C51E" sketch:type="MSShapeGroup"></path>
                <path d="M316.780868,187.050847 C315.115512,187.050847 313.763919,185.699254 313.763919,184.033898 C313.763919,179.043864 309.703105,174.983051 304.713071,174.983051 C299.723037,174.983051 295.662224,179.043864 295.662224,184.033898 C295.662224,185.699254 294.310631,187.050847 292.645275,187.050847 C290.979919,187.050847 289.628325,185.699254 289.628325,184.033898 C289.628325,175.719186 296.392325,168.949153 304.713071,168.949153 C313.033817,168.949153 319.797817,175.719186 319.797817,184.033898 C319.797817,185.699254 318.446224,187.050847 316.780868,187.050847" id="Fill-17" fill="#F7C51E" sketch:type="MSShapeGroup"></path>
                <path d="M220.238495,187.050847 C218.573139,187.050847 217.221546,185.699254 217.221546,184.033898 C217.221546,179.043864 213.160732,174.983051 208.170698,174.983051 C203.180664,174.983051 199.119851,179.043864 199.119851,184.033898 C199.119851,185.699254 197.768258,187.050847 196.102902,187.050847 C194.437546,187.050847 193.085953,185.699254 193.085953,184.033898 C193.085953,175.719186 199.849953,168.949153 208.170698,168.949153 C216.491444,168.949153 223.255444,175.719186 223.255444,184.033898 C223.255444,185.699254 221.903851,187.050847 220.238495,187.050847" id="Fill-19" fill="#F7C51E" sketch:type="MSShapeGroup"></path>
                <path d="M244.374088,150.847458 C242.708732,150.847458 241.357139,149.495864 241.357139,147.830508 C241.357139,142.840475 237.296325,138.779661 232.306292,138.779661 C227.316258,138.779661 223.255444,142.840475 223.255444,147.830508 C223.255444,149.495864 221.903851,150.847458 220.238495,150.847458 C218.573139,150.847458 217.221546,149.495864 217.221546,147.830508 C217.221546,139.515797 223.985546,132.745763 232.306292,132.745763 C240.627037,132.745763 247.391037,139.515797 247.391037,147.830508 C247.391037,149.495864 246.039444,150.847458 244.374088,150.847458" id="Fill-21" fill="#F7C51E" sketch:type="MSShapeGroup"></path>
                <path d="M171.967308,187.050847 C170.301953,187.050847 168.950359,185.699254 168.950359,184.033898 C168.950359,179.043864 164.889546,174.983051 159.899512,174.983051 C154.909478,174.983051 150.848664,179.043864 150.848664,184.033898 C150.848664,185.699254 149.497071,187.050847 147.831715,187.050847 C146.166359,187.050847 144.814766,185.699254 144.814766,184.033898 C144.814766,175.719186 151.578766,168.949153 159.899512,168.949153 C168.220258,168.949153 174.984258,175.719186 174.984258,184.033898 C174.984258,185.699254 173.632664,187.050847 171.967308,187.050847" id="Fill-23" fill="#F7C51E" sketch:type="MSShapeGroup"></path>
                <path d="M196.102902,150.847458 C194.437546,150.847458 193.085953,149.495864 193.085953,147.830508 C193.085953,142.840475 189.025139,138.779661 184.035105,138.779661 C179.045071,138.779661 174.984258,142.840475 174.984258,147.830508 C174.984258,149.495864 173.632664,150.847458 171.967308,150.847458 C170.301953,150.847458 168.950359,149.495864 168.950359,147.830508 C168.950359,139.515797 175.714359,132.745763 184.035105,132.745763 C192.355851,132.745763 199.119851,139.515797 199.119851,147.830508 C199.119851,149.495864 197.768258,150.847458 196.102902,150.847458" id="Fill-25" fill="#F7C51E" sketch:type="MSShapeGroup"></path>
                <path d="M292.645275,150.847458 C290.979919,150.847458 289.628325,149.495864 289.628325,147.830508 C289.628325,142.840475 285.567512,138.779661 280.577478,138.779661 C275.587444,138.779661 271.526631,142.840475 271.526631,147.830508 C271.526631,149.495864 270.175037,150.847458 268.509681,150.847458 C266.844325,150.847458 265.492732,149.495864 265.492732,147.830508 C265.492732,139.515797 272.256732,132.745763 280.577478,132.745763 C288.898224,132.745763 295.662224,139.515797 295.662224,147.830508 C295.662224,149.495864 294.310631,150.847458 292.645275,150.847458" id="Fill-27" fill="#F7C51E" sketch:type="MSShapeGroup"></path>
                <path d="M99.5665627,187.050847 C99.4277831,187.050847 99.2769356,187.044814 99.1381559,187.020678 C97.4848678,186.785356 96.3384271,185.25878 96.5737492,183.605492 L102.4568,142.454305 C100.779376,140.119186 94.033478,132.745763 75.4249356,132.745763 C56.8586305,132.745763 50.1006644,140.082983 48.3991051,142.460339 L54.276122,183.605492 C54.5114441,185.25878 53.3650034,186.785356 51.7117153,187.020678 C50.1127322,187.256 48.5439186,186.109559 48.3025627,184.462305 L42.2686644,142.225017 C42.1781559,141.615593 42.2807322,140.994102 42.5582915,140.445017 C42.8418847,139.889898 49.7205288,126.711864 75.4249356,126.711864 C101.129342,126.711864 108.007986,139.889898 108.29158,140.445017 C108.569139,140.994102 108.671715,141.615593 108.581207,142.225017 L102.547308,184.462305 C102.330088,185.964746 101.038834,187.050847 99.5665627,187.050847" id="Fill-29" fill="#FFFFFF" sketch:type="MSShapeGroup"></path>
                <path d="M75.4249356,187.050847 C73.7595797,187.050847 72.4079864,185.699254 72.4079864,184.033898 L72.4079864,159.898305 C72.4079864,158.232949 73.7595797,156.881356 75.4249356,156.881356 C77.0902915,156.881356 78.4418847,158.232949 78.4418847,159.898305 L78.4418847,184.033898 C78.4418847,185.699254 77.0902915,187.050847 75.4249356,187.050847" id="Fill-31" fill="#FFFFFF" sketch:type="MSShapeGroup"></path>
            </g>
        </g>
    </g>
</svg>