<?xml version="1.0" encoding="utf-8"?>
<!-- Generator: Adobe Illustrator 17.0.0, SVG Export Plug-In . SVG Version: 6.00 Build 0)  -->
<!DOCTYPE svg PUBLIC "-//W3C//DTD SVG 1.1//EN" "http://www.w3.org/Graphics/SVG/1.1/DTD/svg11.dtd">
<svg version="1.1" id="Layer_1" xmlns="http://www.w3.org/2000/svg" xmlns:xlink="http://www.w3.org/1999/xlink" x="0px" y="0px"
	 width="32px" height="32.001px" viewBox="0 0 32 32.001" enable-background="new 0 0 32 32.001" xml:space="preserve">
<g>
	<path fill="none" d="M20.267,13.867c0.32,0,0.533-0.213,0.533-0.533c0-0.32-0.213-0.533-0.533-0.533
		c-0.32,0-0.533,0.213-0.533,0.533C19.733,13.654,19.947,13.867,20.267,13.867z"/>
	<path fill="none" d="M21.333,26.667c-0.107,0-0.16,0-0.267-0.053l-10.4-5.92v10.24h20.267v-10.24l-9.28,5.867
		C21.547,26.614,21.44,26.667,21.333,26.667z"/>
	<polygon fill="none" points="17.6,1.814 17.6,4.8 20.587,4.8 	"/>
	<polygon fill="none" points="29.6,20.267 12.107,20.267 21.333,25.494 	"/>
	<path fill="none" d="M17.067,17.067h13.867V9.6H17.067V17.067z M26.667,11.734h2.667V12.8h-2.667V11.734z M23.467,13.867h5.867
		v1.067h-5.867V13.867z M20.267,11.734c0.907,0,1.6,0.693,1.6,1.6c0,0.907-0.693,1.6-1.6,1.6c-0.907,0-1.6-0.693-1.6-1.6
		C18.667,12.427,19.36,11.734,20.267,11.734z"/>
	<path fill="#5F9137" d="M1.067,1.067h15.467v4.267c0,0.32,0.213,0.533,0.533,0.533h4.267v1.6H22.4V5.333
		c0-0.053,0-0.107-0.053-0.16V5.12c-0.053-0.053-0.053-0.107-0.107-0.16l-4.8-4.8c-0.053-0.053-0.107-0.053-0.16-0.107h-0.053
		C17.173,0.053,17.12,0,17.067,0H0.533C0.213,0,0,0.213,0,0.533v30.933C0,31.787,0.213,32,0.533,32h6.178v-1.067H1.067V1.067z
		 M17.6,1.814L20.587,4.8H17.6V1.814z"/>
	<path fill="#5F9137" d="M31.467,8.534H16.533C16.213,8.534,16,8.747,16,9.067V17.6c0,0.32,0.213,0.533,0.533,0.533h14.933
		c0.32,0,0.533-0.213,0.533-0.533V9.067C32,8.747,31.787,8.534,31.467,8.534z M30.933,17.067H17.067V9.6h13.867V17.067z"/>
	<path fill="#5F9137" d="M31.422,18.527H8.3c-0.347,0-0.578,0.224-0.578,0.562v12.351c0,0.337,0.231,0.562,0.578,0.562h23.122
		c0.347,0,0.578-0.224,0.578-0.562V19.088C32,18.751,31.769,18.527,31.422,18.527z M29.399,19.649l-8.96,5.502l-10-5.502H29.399z
		 M30.844,30.877H8.878V20.099L20.15,26.33c0.116,0.056,0.174,0.056,0.289,0.056s0.231-0.056,0.347-0.112l10.058-6.175V30.877z"/>
	<rect x="26.667" y="11.734" fill="#5F9137" width="2.667" height="1.067"/>
	<rect x="23.467" y="13.867" fill="#5F9137" width="5.867" height="1.067"/>
	<path fill="#5F9137" d="M20.267,14.934c0.907,0,1.6-0.693,1.6-1.6c0-0.907-0.693-1.6-1.6-1.6c-0.907,0-1.6,0.693-1.6,1.6
		C18.667,14.24,19.36,14.934,20.267,14.934z M20.267,12.8c0.32,0,0.533,0.213,0.533,0.533c0,0.32-0.213,0.533-0.533,0.533
		c-0.32,0-0.533-0.213-0.533-0.533C19.733,13.014,19.947,12.8,20.267,12.8z"/>
	<rect x="3.2" y="3.2" fill="#5F9137" width="3.2" height="1.067"/>
	<rect x="3.2" y="5.867" fill="#5F9137" width="10.133" height="1.067"/>
	<rect x="3.2" y="9.6" fill="#5F9137" width="6.4" height="1.067"/>
	<rect x="3.2" y="12.8" fill="#5F9137" width="10.133" height="1.067"/>
	<rect x="3.2" y="16" fill="#5F9137" width="10.133" height="1.067"/>
	<rect x="3.2" y="19.2" fill="#5F9137" width="3.511" height="1.067"/>
	<rect x="3.2" y="22.4" fill="#5F9137" width="3.511" height="1.067"/>
	<rect x="3.2" y="25.6" fill="#5F9137" width="3.511" height="1.067"/>
</g>
</svg>
