<?xml version="1.0" encoding="utf-8"?>
<!-- Generator: Adobe Illustrator 17.0.0, SVG Export Plug-In . SVG Version: 6.00 Build 0)  -->
<!DOCTYPE svg PUBLIC "-//W3C//DTD SVG 1.1//EN" "http://www.w3.org/Graphics/SVG/1.1/DTD/svg11.dtd">
<svg version="1.1" id="Capa_1" xmlns="http://www.w3.org/2000/svg" xmlns:xlink="http://www.w3.org/1999/xlink" x="0px" y="0px"
	 width="32px" height="28.039px" viewBox="240 241.98 32 28.039" enable-background="new 240 241.98 32 28.039"
	 xml:space="preserve">
<g>
	<g>
		<rect x="240" y="241.98" fill="#5F9137" width="32" height="3.176"/>
		<polygon fill="#5F9137" points="258.333,265.654 259.784,270.02 262.987,270.02 261.536,265.654 		"/>
		<polygon fill="#5F9137" points="249.013,270.02 252.216,270.02 253.667,265.654 250.464,265.654 		"/>
		<path fill="#5F9137" d="M242.588,264.203h26.817v-17.601h-26.817V264.203z M257.065,249.039c2.922,0,5.281,2.386,5.281,5.307l0,0
			h-5.281V249.039L257.065,249.039z M249.654,256.484c0-2.922,2.359-5.307,5.281-5.307v5.281h5.281c0,2.922-2.359,5.281-5.281,5.281
			C252.013,261.765,249.654,259.405,249.654,256.484L249.654,256.484z"/>
	</g>
</g>
</svg>
