<?xml version="1.0" encoding="utf-8"?>
<!-- Generator: Adobe Illustrator 17.0.0, SVG Export Plug-In . SVG Version: 6.00 Build 0)  -->
<!DOCTYPE svg PUBLIC "-//W3C//DTD SVG 1.1//EN" "http://www.w3.org/Graphics/SVG/1.1/DTD/svg11.dtd">
<svg version="1.1" id="Layer_1" xmlns="http://www.w3.org/2000/svg" xmlns:xlink="http://www.w3.org/1999/xlink" x="0px" y="0px"
	 width="1099.214px" height="140.735px" viewBox="-1476.426 -1389.779 1099.214 140.735"
	 enable-background="new -1476.426 -1389.779 1099.214 140.735" xml:space="preserve">
<circle display="none" fill="#F75353" cx="-1417.858" cy="-1331.345" r="86.208"/>
<polyline display="none" fill="#FFFFFF" points="-1476.52,-1274.548 -1476.52,-1331.211 -1457.016,-1331.211 "/>
<polyline display="none" fill="#FFFFFF" points="-1359.195,-1388.143 -1359.195,-1331.48 -1415.858,-1331.48 "/>
<text transform="matrix(1 0 0 1 -1235.358 -1273.684)" display="none"><tspan x="0" y="0" display="inline" fill="#79BE37" font-family="'KeepCalm-Medium'" font-size="80" letter-spacing="-4">Products Designer </tspan><tspan x="723.508" y="0" display="inline" fill="#666666" font-family="'KeepCalm-Medium'" font-size="80" letter-spacing="-4">Pro</tspan></text>
<g>
	<path fill="#79BE37" d="M-1184.078-1316.164c0,3.04-0.575,5.88-1.725,8.52c-1.15,2.64-2.714,4.934-4.691,6.88
		c-1.978,1.948-4.304,3.468-6.976,4.56c-2.674,1.094-5.508,1.64-8.501,1.64h-10.586v20.88h-12.4v-63.92h23.001
		c2.991,0,5.822,0.547,8.495,1.64c2.671,1.094,4.995,2.6,6.972,4.52c1.977,1.92,3.539,4.188,4.688,6.8
		C-1184.653-1322.03-1184.078-1319.204-1184.078-1316.164z M-1196.478-1316.324c0-1.652-0.308-3.2-0.92-4.64
		c-0.614-1.44-1.454-2.693-2.52-3.76c-1.067-1.066-2.32-1.92-3.76-2.56s-2.988-0.96-4.64-0.96h-8.24v24.16h8.24
		c1.652,0,3.2-0.333,4.64-1c1.44-0.667,2.692-1.56,3.76-2.68c1.066-1.12,1.906-2.413,2.52-3.88
		C-1196.786-1313.11-1196.478-1314.67-1196.478-1316.324z"/>
	<path fill="#79BE37" d="M-1148.559-1315.124l-6.16,9.76c-1.12-1.226-2.36-2.306-3.72-3.24c-1.36-0.933-2.734-1.4-4.12-1.4
		c-0.748,0-1.56,0.173-2.44,0.52c-0.88,0.347-1.708,0.92-2.48,1.72c-0.774,0.8-1.428,1.854-1.96,3.16
		c-0.534,1.308-0.8,2.92-0.8,4.84v26.08h-11.52v-46.24h11.52v4.96c1.386-1.973,2.92-3.493,4.6-4.56c1.68-1.066,3.56-1.6,5.64-1.6
		c2.026,0,4.012,0.547,5.96,1.64C-1152.093-1318.39-1150.266-1316.936-1148.559-1315.124z"/>
	<path fill="#79BE37" d="M-1100.72-1296.804c0,3.468-0.64,6.68-1.92,9.64c-1.28,2.96-3.04,5.52-5.28,7.68
		c-2.24,2.16-4.867,3.867-7.88,5.12c-3.014,1.252-6.228,1.88-9.64,1.88c-3.414,0-6.614-0.628-9.6-1.88
		c-2.988-1.252-5.6-2.972-7.84-5.16c-2.24-2.187-4-4.76-5.28-7.72c-1.28-2.96-1.92-6.146-1.92-9.56c0-3.36,0.652-6.52,1.96-9.48
		c1.306-2.96,3.08-5.546,5.32-7.76c2.24-2.212,4.853-3.946,7.84-5.2c2.986-1.252,6.16-1.88,9.52-1.88c3.413,0,6.626,0.627,9.64,1.88
		c3.013,1.254,5.64,2.96,7.88,5.12c2.24,2.16,4,4.734,5.28,7.72C-1101.36-1303.416-1100.72-1300.217-1100.72-1296.804z
		 M-1112.24-1296.804c0-1.972-0.346-3.813-1.038-5.52c-0.691-1.706-1.635-3.2-2.831-4.48c-1.196-1.28-2.593-2.28-4.188-3
		c-1.595-0.72-3.296-1.08-5.104-1.08s-3.51,0.36-5.105,1.08c-1.595,0.72-2.991,1.72-4.188,3c-1.196,1.28-2.14,2.774-2.831,4.48
		c-0.691,1.708-1.036,3.548-1.036,5.52c0,1.974,0.345,3.814,1.036,5.52c0.691,1.708,1.635,3.2,2.831,4.48
		c1.196,1.28,2.593,2.28,4.188,3c1.595,0.72,3.297,1.08,5.105,1.08s3.509-0.36,5.104-1.08c1.595-0.72,2.991-1.72,4.188-3
		c1.196-1.28,2.14-2.772,2.831-4.48C-1112.586-1292.99-1112.24-1294.83-1112.24-1296.804z"/>
	<path fill="#79BE37" d="M-1054.64-1273.684h-11.76v-2.4c-1.494,1.228-3.12,2.12-4.88,2.68c-1.76,0.56-3.627,0.84-5.6,0.84
		c-3.254,0-6.24-0.654-8.96-1.96c-2.72-1.307-5.067-3.066-7.04-5.28c-1.974-2.212-3.507-4.786-4.6-7.72
		c-1.094-2.933-1.64-6.026-1.64-9.28c0-3.466,0.626-6.68,1.88-9.64c1.252-2.96,2.92-5.533,5-7.72c2.08-2.186,4.453-3.906,7.12-5.16
		c2.666-1.252,5.412-1.88,8.24-1.88c1.973,0,3.893,0.268,5.76,0.8c1.866,0.534,3.466,1.28,4.8,2.24v-21.92h11.68V-1273.684z
		 M-1066.24-1286.084v-22.24c-0.535-0.373-1.151-0.732-1.848-1.08c-0.696-0.346-1.418-0.64-2.167-0.88
		c-0.75-0.24-1.499-0.426-2.249-0.56c-0.75-0.132-1.419-0.2-2.008-0.2c-1.927,0-3.68,0.333-5.26,1
		c-1.58,0.667-2.958,1.627-4.135,2.88c-1.177,1.254-2.087,2.76-2.73,4.52c-0.643,1.76-0.963,3.708-0.963,5.84
		c0,2.08,0.321,3.988,0.963,5.72c0.643,1.734,1.525,3.228,2.65,4.48c1.124,1.254,2.475,2.228,4.055,2.92
		c1.579,0.694,3.305,1.04,5.179,1.04C-1071.701-1282.644-1068.864-1283.79-1066.24-1286.084z"/>
	<path fill="#79BE37" d="M-1008.081-1273.684h-11.52v-3.52c-0.748,0.748-1.614,1.4-2.6,1.96c-0.988,0.56-2.028,1.04-3.12,1.44
		c-1.094,0.4-2.214,0.707-3.36,0.92c-1.147,0.213-2.228,0.32-3.24,0.32c-2.348,0-4.6-0.374-6.76-1.12
		c-2.16-0.746-4.068-1.893-5.72-3.44c-1.654-1.546-2.974-3.546-3.96-6c-0.987-2.453-1.48-5.36-1.48-8.72v-28.08h11.52v27.52
		c0,1.654,0.252,3.108,0.76,4.36c0.506,1.253,1.173,2.293,2,3.12c0.827,0.828,1.787,1.44,2.88,1.84c1.092,0.4,2.226,0.6,3.4,0.6
		c3.732,0,6.96-1.28,9.68-3.84v-33.6h11.52V-1273.684z"/>
	<path fill="#79BE37" d="M-960.802-1280.644c-2.348,2.667-5.174,4.694-8.48,6.08c-3.308,1.386-6.774,2.08-10.4,2.08
		c-3.36,0-6.533-0.614-9.516-1.84c-2.985-1.226-5.577-2.92-7.774-5.08c-2.198-2.16-3.933-4.732-5.204-7.72
		c-1.271-2.986-1.906-6.212-1.906-9.68c0-3.413,0.635-6.6,1.906-9.56c1.271-2.96,2.992-5.532,5.165-7.72
		c2.171-2.187,4.749-3.906,7.732-5.16c2.983-1.252,6.182-1.88,9.596-1.88c3.52,0,6.866,0.64,10.04,1.92
		c3.172,1.28,5.932,3.228,8.28,5.84l-7.76,7.92c-1.174-1.546-2.6-2.827-4.28-3.84c-1.68-1.012-3.72-1.52-6.12-1.52
		c-1.76,0-3.427,0.374-5,1.12c-1.574,0.748-2.96,1.748-4.16,3c-1.2,1.254-2.147,2.734-2.84,4.44c-0.693,1.708-1.04,3.52-1.04,5.44
		s0.346,3.734,1.04,5.44c0.693,1.708,1.626,3.188,2.8,4.44c1.172,1.254,2.56,2.254,4.16,3c1.6,0.748,3.28,1.12,5.04,1.12
		c2.293,0,4.373-0.546,6.24-1.64c1.866-1.093,3.36-2.493,4.48-4.2L-960.802-1280.644z"/>
	<path fill="#79BE37" d="M-933.362-1274.724c-1.174,0.748-2.534,1.306-4.08,1.68c-1.547,0.373-3.094,0.56-4.64,0.56
		c-2.72,0-5.014-0.334-6.88-1c-1.868-0.667-3.36-1.693-4.48-3.08c-1.12-1.386-1.934-3.146-2.44-5.28
		c-0.507-2.132-0.76-4.64-0.76-7.52v-20.24h-6.08v-5.2c3.732-1.546,6.76-3.84,9.08-6.88c2.32-3.04,3.906-6.986,4.76-11.84h3.76
		v13.52h11.68v10.4h-11.68v21.04c0,1.174,0.146,2.134,0.44,2.88c0.292,0.748,0.68,1.334,1.16,1.76c0.48,0.428,1.026,0.72,1.64,0.88
		c0.612,0.16,1.266,0.24,1.96,0.24c0.906,0,2-0.16,3.28-0.48c1.28-0.32,2.373-0.853,3.28-1.6V-1274.724z"/>
	<path fill="#79BE37" d="M-896.642-1286.644c0,2.294-0.535,4.333-1.604,6.12c-1.07,1.787-2.46,3.28-4.17,4.48
		c-1.71,1.2-3.635,2.107-5.772,2.72c-2.139,0.613-4.25,0.92-6.334,0.92c-3.529,0-6.776-0.653-9.742-1.96
		c-2.968-1.306-5.573-3.4-7.818-6.28l6.96-7.04c1.386,1.76,2.986,3.134,4.8,4.12c1.813,0.987,3.76,1.48,5.84,1.48
		c1.813,0,3.32-0.333,4.52-1c1.2-0.667,1.8-1.667,1.8-3c0-1.386-0.854-2.546-2.56-3.48c-1.708-0.933-4.107-1.853-7.2-2.76
		c-1.813-0.532-3.574-1.212-5.28-2.04c-1.708-0.826-3.228-1.84-4.56-3.04c-1.334-1.2-2.4-2.572-3.2-4.12
		c-0.8-1.546-1.2-3.333-1.2-5.36c0-2.24,0.521-4.252,1.563-6.04c1.042-1.786,2.405-3.28,4.089-4.48c1.684-1.2,3.595-2.12,5.734-2.76
		c2.137-0.64,4.302-0.96,6.495-0.96c7.055,0,12.829,2.667,17.319,8l-6.88,6.96c-1.334-1.652-2.854-2.96-4.56-3.92
		c-1.708-0.96-3.574-1.44-5.6-1.44c-0.694,0-1.427,0.094-2.2,0.28c-0.774,0.188-1.494,0.454-2.16,0.8
		c-0.667,0.347-1.214,0.8-1.64,1.36c-0.427,0.56-0.64,1.188-0.64,1.88c0,1.228,0.813,2.294,2.44,3.2c1.626,0.907,3.96,1.813,7,2.72
		c1.972,0.587,3.84,1.334,5.6,2.24c1.76,0.907,3.307,1.96,4.64,3.16c1.333,1.2,2.386,2.56,3.16,4.08
		C-897.03-1290.284-896.642-1288.564-896.642-1286.644z"/>
	<path fill="#79BE37" d="M-813.845-1305.684c0,4.428-0.747,8.574-2.24,12.44c-1.494,3.868-3.574,7.254-6.24,10.16
		c-2.667,2.907-5.854,5.2-9.56,6.88c-3.708,1.68-7.748,2.52-12.12,2.52h-26.72v-64h26.72c4.373,0,8.413,0.854,12.12,2.56
		c3.706,1.708,6.892,4,9.56,6.88c2.667,2.88,4.747,6.268,6.24,10.16C-814.592-1314.19-813.845-1310.056-813.845-1305.684z
		 M-826.404-1306.004c0.052-2.986-0.4-5.813-1.36-8.48c-0.96-2.667-2.347-5-4.16-7c-1.814-2-4.04-3.573-6.68-4.72
		c-2.64-1.146-5.614-1.72-8.92-1.72h-10.8v43.68h10.8c3.252,0,6.172-0.546,8.76-1.64c2.586-1.092,4.787-2.612,6.6-4.56
		c1.813-1.946,3.212-4.24,4.2-6.88C-826.978-1299.964-826.458-1302.856-826.404-1306.004z"/>
	<path fill="#79BE37" d="M-762.085-1296.884c0,0.748-0.04,1.52-0.12,2.32c-0.08,0.8-0.174,1.627-0.28,2.48h-36.96
		c0.426,1.333,1.026,2.6,1.8,3.8c0.772,1.2,1.72,2.24,2.84,3.12c1.12,0.88,2.386,1.574,3.8,2.08c1.413,0.507,2.972,0.76,4.68,0.76
		c2.08,0,4.16-0.36,6.24-1.08c2.08-0.72,3.813-1.692,5.2-2.92l7.28,7.28c-3.2,2.4-6.334,4.094-9.4,5.08
		c-3.068,0.986-6.308,1.48-9.72,1.48c-3.467,0-6.708-0.64-9.72-1.92c-3.014-1.28-5.628-3.012-7.84-5.2
		c-2.213-2.187-3.96-4.76-5.24-7.72c-1.28-2.96-1.92-6.12-1.92-9.48c0-3.36,0.64-6.52,1.92-9.48c1.28-2.96,3.04-5.532,5.28-7.72
		c2.24-2.187,4.853-3.92,7.84-5.2c2.986-1.28,6.186-1.92,9.6-1.92c3.252,0,6.373,0.6,9.36,1.8c2.986,1.2,5.626,2.868,7.92,5
		c2.292,2.134,4.106,4.68,5.44,7.64C-762.752-1303.724-762.085-1300.456-762.085-1296.884z M-774.165-1301.364
		c-0.908-2.932-2.52-5.292-4.84-7.08c-2.32-1.787-4.948-2.68-7.88-2.68c-2.88,0-5.467,0.894-7.76,2.68
		c-2.294,1.787-3.894,4.147-4.8,7.08H-774.165z"/>
	<path fill="#79BE37" d="M-724.965-1286.644c0,2.294-0.535,4.333-1.604,6.12c-1.07,1.787-2.46,3.28-4.17,4.48
		c-1.71,1.2-3.635,2.107-5.772,2.72c-2.139,0.613-4.25,0.92-6.334,0.92c-3.529,0-6.776-0.653-9.742-1.96
		c-2.968-1.306-5.573-3.4-7.818-6.28l6.96-7.04c1.386,1.76,2.986,3.134,4.8,4.12c1.813,0.987,3.76,1.48,5.84,1.48
		c1.813,0,3.32-0.333,4.52-1c1.2-0.667,1.8-1.667,1.8-3c0-1.386-0.854-2.546-2.56-3.48c-1.708-0.933-4.107-1.853-7.2-2.76
		c-1.813-0.532-3.574-1.212-5.28-2.04c-1.708-0.826-3.228-1.84-4.56-3.04c-1.334-1.2-2.4-2.572-3.2-4.12
		c-0.8-1.546-1.2-3.333-1.2-5.36c0-2.24,0.521-4.252,1.563-6.04c1.042-1.786,2.405-3.28,4.089-4.48c1.684-1.2,3.595-2.12,5.734-2.76
		c2.137-0.64,4.302-0.96,6.495-0.96c7.055,0,12.829,2.667,17.319,8l-6.88,6.96c-1.334-1.652-2.854-2.96-4.56-3.92
		c-1.708-0.96-3.574-1.44-5.6-1.44c-0.694,0-1.427,0.094-2.2,0.28c-0.774,0.188-1.494,0.454-2.16,0.8
		c-0.667,0.347-1.214,0.8-1.64,1.36c-0.427,0.56-0.64,1.188-0.64,1.88c0,1.228,0.813,2.294,2.44,3.2c1.626,0.907,3.96,1.813,7,2.72
		c1.972,0.587,3.84,1.334,5.6,2.24c1.76,0.907,3.307,1.96,4.64,3.16c1.333,1.2,2.386,2.56,3.16,4.08
		C-725.352-1290.284-724.965-1288.564-724.965-1286.644z"/>
	<path fill="#79BE37" d="M-709.847-1328.004h-12v-12h12V-1328.004z M-710.006-1273.684h-11.68v-46.32h11.68V-1273.684z"/>
	<path fill="#79BE37" d="M-660.967-1310.804h-4.88c1.227,2.4,1.84,4.96,1.84,7.68c0,2.08-0.388,4.094-1.16,6.04
		c-0.774,1.947-1.88,3.72-3.32,5.32c-1.44,1.6-3.188,2.96-5.24,4.08c-2.054,1.12-4.36,1.868-6.92,2.24
		c-1.76,0.267-3.08,0.68-3.96,1.24c-0.88,0.56-1.32,1.12-1.32,1.68s0.44,1.08,1.32,1.56c0.88,0.48,2.2,0.8,3.96,0.96
		c5.972,0.534,10.6,2.027,13.88,4.48c3.28,2.452,4.92,5.706,4.92,9.76c0,2.08-0.505,4-1.515,5.76c-1.01,1.76-2.457,3.28-4.344,4.56
		c-1.886,1.28-4.157,2.266-6.815,2.96c-2.657,0.692-5.632,1.04-8.926,1.04c-3.349,0-6.365-0.348-9.047-1.04
		c-2.684-0.694-4.982-1.667-6.895-2.92c-1.913-1.253-3.374-2.76-4.384-4.52c-1.01-1.76-1.514-3.707-1.514-5.84
		c0-3.2,0.913-5.88,2.739-8.04c1.826-2.16,4.804-3.772,8.933-4.84c-1.28-0.48-2.2-1.132-2.76-1.96
		c-0.56-0.826-0.813-1.667-0.76-2.52c0.052-0.853,0.413-1.667,1.08-2.44c0.666-0.772,1.614-1.373,2.844-1.8
		c-1.397-0.64-2.727-1.466-3.989-2.48c-1.263-1.012-2.404-2.186-3.424-3.52c-1.02-1.333-1.826-2.826-2.417-4.48
		c-0.591-1.652-0.886-3.412-0.886-5.28c0-2.506,0.533-4.853,1.6-7.04c1.066-2.186,2.506-4.092,4.32-5.72
		c1.813-1.626,3.92-2.906,6.32-3.84c2.4-0.933,4.933-1.4,7.6-1.4c2.612,0,5.04,0.4,7.28,1.2h15.84V-1310.804z M-673.367-1265.764
		c0-1.867-0.944-3.228-2.829-4.08c-1.886-0.854-4.316-1.28-7.292-1.28c-3.188,0-5.699,0.453-7.531,1.36
		c-1.832,0.906-2.749,2.24-2.749,4c0,1.813,0.956,3.172,2.869,4.08c1.913,0.906,4.383,1.36,7.411,1.36c3.08,0,5.538-0.44,7.37-1.32
		S-673.367-1263.898-673.367-1265.764z M-675.526-1303.124c0-1.172-0.225-2.266-0.674-3.28c-0.45-1.012-1.058-1.906-1.823-2.68
		c-0.766-0.772-1.665-1.386-2.695-1.84c-1.03-0.452-2.126-0.68-3.289-0.68c-1.163,0-2.245,0.228-3.249,0.68
		c-1.005,0.454-1.89,1.068-2.655,1.84c-0.767,0.773-1.374,1.667-1.823,2.68c-0.45,1.014-0.674,2.108-0.674,3.28
		c0,1.174,0.224,2.28,0.674,3.32c0.449,1.04,1.056,1.948,1.823,2.72c0.765,0.773,1.65,1.387,2.655,1.84
		c1.004,0.454,2.086,0.68,3.249,0.68c1.162,0,2.258-0.227,3.289-0.68c1.03-0.453,1.929-1.066,2.695-1.84
		c0.765-0.772,1.373-1.68,1.823-2.72C-675.751-1300.844-675.526-1301.95-675.526-1303.124z"/>
	<path fill="#79BE37" d="M-617.287-1273.684h-11.52v-27.6c0-1.652-0.255-3.106-0.764-4.36c-0.509-1.252-1.191-2.292-2.049-3.12
		c-0.857-0.826-1.835-1.44-2.932-1.84c-1.098-0.4-2.236-0.6-3.414-0.6c-1.768,0-3.509,0.308-5.223,0.92
		c-1.713,0.614-3.266,1.587-4.659,2.92v33.68h-11.52v-46.24h11.52l0.08,3.44c0.692-0.693,1.546-1.333,2.56-1.92
		c1.013-0.586,2.066-1.08,3.16-1.48c1.092-0.4,2.212-0.706,3.36-0.92c1.146-0.212,2.252-0.32,3.32-0.32c2.347,0,4.6,0.374,6.76,1.12
		c2.16,0.748,4.08,1.894,5.76,3.44c1.68,1.547,3.026,3.547,4.04,6c1.013,2.454,1.52,5.36,1.52,8.72V-1273.684z"/>
	<path fill="#79BE37" d="M-564.727-1296.884c0,0.748-0.04,1.52-0.12,2.32c-0.08,0.8-0.174,1.627-0.28,2.48h-36.96
		c0.426,1.333,1.026,2.6,1.8,3.8c0.772,1.2,1.72,2.24,2.84,3.12c1.12,0.88,2.386,1.574,3.8,2.08c1.413,0.507,2.972,0.76,4.68,0.76
		c2.08,0,4.16-0.36,6.24-1.08c2.08-0.72,3.813-1.692,5.2-2.92l7.28,7.28c-3.2,2.4-6.334,4.094-9.4,5.08
		c-3.068,0.986-6.308,1.48-9.72,1.48c-3.467,0-6.708-0.64-9.72-1.92c-3.014-1.28-5.628-3.012-7.84-5.2
		c-2.213-2.187-3.96-4.76-5.24-7.72c-1.28-2.96-1.92-6.12-1.92-9.48c0-3.36,0.64-6.52,1.92-9.48c1.28-2.96,3.04-5.532,5.28-7.72
		c2.24-2.187,4.853-3.92,7.84-5.2c2.986-1.28,6.186-1.92,9.6-1.92c3.252,0,6.373,0.6,9.36,1.8c2.986,1.2,5.626,2.868,7.92,5
		c2.292,2.134,4.106,4.68,5.44,7.64C-565.395-1303.724-564.727-1300.456-564.727-1296.884z M-576.808-1301.364
		c-0.908-2.932-2.52-5.292-4.84-7.08c-2.32-1.787-4.948-2.68-7.88-2.68c-2.88,0-5.467,0.894-7.76,2.68
		c-2.294,1.787-3.894,4.147-4.8,7.08H-576.808z"/>
	<path fill="#79BE37" d="M-528.328-1315.124l-6.16,9.76c-1.12-1.226-2.36-2.306-3.72-3.24c-1.36-0.933-2.734-1.4-4.12-1.4
		c-0.748,0-1.56,0.173-2.44,0.52c-0.88,0.347-1.708,0.92-2.48,1.72c-0.774,0.8-1.428,1.854-1.96,3.16
		c-0.534,1.308-0.8,2.92-0.8,4.84v26.08h-11.52v-46.24h11.52v4.96c1.386-1.973,2.92-3.493,4.6-4.56c1.68-1.066,3.56-1.6,5.64-1.6
		c2.026,0,4.012,0.547,5.96,1.64C-531.862-1318.39-530.036-1316.936-528.328-1315.124z"/>
	<path fill="#666666" d="M-460.57-1316.164c0,3.04-0.575,5.88-1.725,8.52c-1.15,2.64-2.714,4.934-4.691,6.88
		c-1.978,1.948-4.304,3.468-6.976,4.56c-2.674,1.094-5.508,1.64-8.501,1.64h-10.586v20.88h-12.4v-63.92h23.001
		c2.991,0,5.822,0.547,8.495,1.64c2.671,1.094,4.995,2.6,6.972,4.52c1.977,1.92,3.539,4.188,4.688,6.8
		C-461.145-1322.03-460.57-1319.204-460.57-1316.164z M-472.97-1316.324c0-1.652-0.308-3.2-0.92-4.64
		c-0.614-1.44-1.454-2.693-2.52-3.76c-1.067-1.066-2.32-1.92-3.76-2.56s-2.988-0.96-4.64-0.96h-8.24v24.16h8.24
		c1.652,0,3.2-0.333,4.64-1c1.44-0.667,2.692-1.56,3.76-2.68c1.066-1.12,1.906-2.413,2.52-3.88
		C-473.278-1313.11-472.97-1314.67-472.97-1316.324z"/>
	<path fill="#666666" d="M-425.051-1315.124l-6.16,9.76c-1.12-1.226-2.36-2.306-3.72-3.24c-1.36-0.933-2.734-1.4-4.12-1.4
		c-0.748,0-1.56,0.173-2.44,0.52c-0.88,0.347-1.708,0.92-2.48,1.72c-0.774,0.8-1.428,1.854-1.96,3.16
		c-0.534,1.308-0.8,2.92-0.8,4.84v26.08h-11.52v-46.24h11.52v4.96c1.386-1.973,2.92-3.493,4.6-4.56c1.68-1.066,3.56-1.6,5.64-1.6
		c2.026,0,4.012,0.547,5.96,1.64C-428.585-1318.39-426.759-1316.936-425.051-1315.124z"/>
	<path fill="#666666" d="M-377.212-1296.804c0,3.468-0.64,6.68-1.92,9.64c-1.28,2.96-3.04,5.52-5.28,7.68
		c-2.24,2.16-4.867,3.867-7.88,5.12c-3.014,1.252-6.228,1.88-9.64,1.88c-3.414,0-6.614-0.628-9.6-1.88
		c-2.988-1.252-5.6-2.972-7.84-5.16c-2.24-2.187-4-4.76-5.28-7.72c-1.28-2.96-1.92-6.146-1.92-9.56c0-3.36,0.652-6.52,1.96-9.48
		c1.306-2.96,3.08-5.546,5.32-7.76c2.24-2.212,4.853-3.946,7.84-5.2c2.986-1.252,6.16-1.88,9.52-1.88c3.413,0,6.626,0.627,9.64,1.88
		c3.013,1.254,5.64,2.96,7.88,5.12c2.24,2.16,4,4.734,5.28,7.72C-377.852-1303.416-377.212-1300.217-377.212-1296.804z
		 M-388.732-1296.804c0-1.972-0.346-3.813-1.038-5.52c-0.691-1.706-1.635-3.2-2.831-4.48c-1.196-1.28-2.593-2.28-4.188-3
		c-1.595-0.72-3.296-1.08-5.104-1.08s-3.51,0.36-5.105,1.08c-1.595,0.72-2.991,1.72-4.188,3c-1.196,1.28-2.14,2.774-2.831,4.48
		c-0.691,1.708-1.036,3.548-1.036,5.52c0,1.974,0.345,3.814,1.036,5.52c0.691,1.708,1.635,3.2,2.831,4.48
		c1.196,1.28,2.593,2.28,4.188,3c1.595,0.72,3.297,1.08,5.105,1.08s3.509-0.36,5.104-1.08c1.595-0.72,2.991-1.72,4.188-3
		c1.196-1.28,2.14-2.772,2.831-4.48C-389.078-1292.99-388.732-1294.83-388.732-1296.804z"/>
</g>
<g display="none">
	<path display="inline" fill="#79BE37" d="M-1239.694-1323.778v21.094h-9.883v-56.875h21.758c6.354,0,11.399,1.656,15.137,4.966
		c3.736,3.311,5.605,7.691,5.605,13.139c0,5.579-1.83,9.92-5.488,13.022c-3.659,3.103-8.783,4.653-15.371,4.653H-1239.694z
		 M-1239.694-1331.746h11.875c3.516,0,6.197-0.826,8.047-2.48c1.849-1.653,2.773-4.043,2.773-7.168c0-3.072-0.938-5.527-2.813-7.363
		s-4.453-2.779-7.734-2.832h-12.148V-1331.746z"/>
	<path display="inline" fill="#79BE37" d="M-1181.233-1336.278c-1.25-0.208-2.539-0.313-3.867-0.313c-4.35,0-7.279,1.667-8.789,5
		v28.906h-9.492v-42.266h9.063l0.234,4.727c2.291-3.672,5.469-5.508,9.531-5.508c1.354,0,2.474,0.183,3.359,0.547
		L-1181.233-1336.278z"/>
	<path display="inline" fill="#79BE37" d="M-1182.42-1324.207c0-4.141,0.82-7.871,2.461-11.191s3.945-5.872,6.914-7.656
		c2.969-1.783,6.38-2.676,10.234-2.676c5.703,0,10.332,1.836,13.887,5.508s5.475,8.542,5.762,14.609l0.039,2.227
		c0,4.167-0.801,7.891-2.402,11.172s-3.894,5.82-6.875,7.617c-2.982,1.797-6.426,2.695-10.332,2.695
		c-5.964,0-10.736-1.985-14.316-5.957c-3.581-3.971-5.371-9.264-5.371-15.879V-1324.207z M-1172.928-1323.387
		c0,4.35,0.898,7.754,2.695,10.215s4.297,3.691,7.5,3.691s5.696-1.25,7.48-3.75c1.783-2.5,2.676-6.158,2.676-10.977
		c0-4.271-0.918-7.656-2.754-10.156s-4.33-3.75-7.48-3.75c-3.1,0-5.561,1.23-7.383,3.691
		C-1172.017-1331.961-1172.928-1328.282-1172.928-1323.387z"/>
	<path display="inline" fill="#79BE37" d="M-1140.873-1324.129c0-6.51,1.51-11.738,4.531-15.684
		c3.021-3.945,7.07-5.918,12.148-5.918c4.479,0,8.099,1.563,10.859,4.688v-21.641h9.492v60h-8.594l-0.469-4.375
		c-2.839,3.438-6.628,5.156-11.367,5.156c-4.948,0-8.952-1.992-12.012-5.977C-1139.344-1311.864-1140.873-1317.28-1140.873-1324.129
		z M-1131.381-1323.309c0,4.297,0.826,7.65,2.48,10.059c1.653,2.409,4.004,3.613,7.051,3.613c3.88,0,6.719-1.731,8.516-5.195
		v-18.047c-1.745-3.385-4.558-5.078-8.438-5.078c-3.073,0-5.443,1.218-7.109,3.652
		C-1130.548-1331.869-1131.381-1328.204-1131.381-1323.309z"/>
	<path display="inline" fill="#79BE37" d="M-1072.334-1306.824c-2.787,3.281-6.745,4.922-11.875,4.922
		c-4.584,0-8.054-1.341-10.41-4.023c-2.357-2.682-3.535-6.563-3.535-11.641v-27.383h9.492v27.266c0,5.365,2.227,8.047,6.68,8.047
		c4.609,0,7.721-1.653,9.336-4.961v-30.352h9.492v42.266h-8.945L-1072.334-1306.824z"/>
	<path display="inline" fill="#79BE37" d="M-1040.123-1309.481c2.369,0,4.336-0.689,5.898-2.07c1.563-1.38,2.396-3.086,2.5-5.117
		h8.945c-0.104,2.631-0.925,5.085-2.461,7.363c-1.537,2.279-3.62,4.082-6.25,5.41c-2.631,1.328-5.469,1.992-8.516,1.992
		c-5.912,0-10.6-1.914-14.063-5.742c-3.464-3.828-5.195-9.114-5.195-15.859v-0.977c0-6.432,1.719-11.582,5.156-15.449
		s8.125-5.801,14.063-5.801c5.025,0,9.121,1.465,12.285,4.395s4.824,6.777,4.98,11.543h-8.945c-0.104-2.422-0.932-4.414-2.48-5.977
		c-1.55-1.563-3.522-2.344-5.918-2.344c-3.073,0-5.443,1.113-7.109,3.34c-1.667,2.227-2.514,5.605-2.539,10.137v1.523
		c0,4.584,0.826,8.002,2.48,10.254C-1045.638-1310.607-1043.248-1309.481-1040.123-1309.481z"/>
	<path display="inline" fill="#79BE37" d="M-1007.717-1355.223v10.273h7.461v7.031h-7.461v23.594c0,1.615,0.318,2.78,0.957,3.496
		c0.638,0.717,1.777,1.074,3.418,1.074c1.094,0,2.2-0.13,3.32-0.391v7.344c-2.162,0.599-4.245,0.898-6.25,0.898
		c-7.292,0-10.938-4.023-10.938-12.07v-23.945h-6.953v-7.031h6.953v-10.273H-1007.717z"/>
	<path display="inline" fill="#79BE37" d="M-973.319-1314.168c0-1.692-0.697-2.981-2.09-3.867c-1.394-0.885-3.705-1.666-6.934-2.344
		c-3.229-0.677-5.925-1.536-8.086-2.578c-4.74-2.291-7.109-5.611-7.109-9.961c0-3.646,1.536-6.692,4.609-9.141
		c3.072-2.447,6.979-3.672,11.719-3.672c5.052,0,9.134,1.25,12.246,3.75c3.111,2.5,4.668,5.742,4.668,9.727h-9.492
		c0-1.822-0.678-3.34-2.031-4.551c-1.354-1.211-3.151-1.816-5.391-1.816c-2.084,0-3.783,0.482-5.098,1.445
		c-1.315,0.964-1.973,2.253-1.973,3.867c0,1.459,0.611,2.592,1.836,3.398c1.224,0.808,3.697,1.621,7.422,2.441
		c3.724,0.82,6.646,1.797,8.77,2.93c2.122,1.133,3.697,2.494,4.727,4.082c1.028,1.589,1.543,3.516,1.543,5.781
		c0,3.803-1.576,6.882-4.727,9.238c-3.151,2.357-7.279,3.535-12.383,3.535c-3.464,0-6.55-0.625-9.258-1.875
		c-2.709-1.25-4.818-2.969-6.328-5.156c-1.511-2.188-2.266-4.544-2.266-7.07h9.219c0.13,2.24,0.977,3.965,2.539,5.176
		s3.633,1.816,6.211,1.816c2.5,0,4.4-0.475,5.703-1.426C-973.97-1311.388-973.319-1312.631-973.319-1314.168z"/>
	<path display="inline" fill="#79BE37" d="M-942.881-1302.684v-56.875h16.797c5.025,0,9.485,1.12,13.379,3.359
		c3.893,2.24,6.907,5.417,9.043,9.531c2.135,4.115,3.203,8.828,3.203,14.141v2.852c0,5.391-1.074,10.131-3.223,14.219
		c-2.148,4.089-5.209,7.24-9.18,9.453c-3.972,2.214-8.522,3.32-13.652,3.32H-942.881z M-932.998-1351.59v40.938h6.445
		c5.182,0,9.16-1.618,11.934-4.854c2.773-3.236,4.186-7.882,4.238-13.938v-3.158c0-6.16-1.342-10.864-4.023-14.114
		c-2.683-3.249-6.576-4.874-11.68-4.874H-932.998z"/>
	<path display="inline" fill="#79BE37" d="M-876.92-1301.903c-6.016,0-10.893-1.895-14.629-5.684
		c-3.737-3.789-5.605-8.834-5.605-15.137v-1.172c0-4.219,0.813-7.988,2.441-11.309c1.627-3.32,3.912-5.904,6.855-7.754
		c2.942-1.849,6.224-2.773,9.844-2.773c5.755,0,10.201,1.836,13.34,5.508c3.138,3.672,4.707,8.867,4.707,15.586v3.828h-27.617
		c0.286,3.49,1.451,6.25,3.496,8.281c2.044,2.031,4.615,3.047,7.715,3.047c4.349,0,7.891-1.758,10.625-5.273l5.117,4.883
		c-1.693,2.526-3.952,4.486-6.777,5.879C-870.235-1302.6-873.405-1301.903-876.92-1301.903z M-878.053-1338.114
		c-2.604,0-4.707,0.912-6.309,2.734c-1.602,1.823-2.624,4.362-3.066,7.617h18.086v-0.703c-0.209-3.177-1.055-5.579-2.539-7.207
		C-873.366-1337.299-875.423-1338.114-878.053-1338.114z"/>
	<path display="inline" fill="#79BE37" d="M-832.913-1314.168c0-1.692-0.697-2.981-2.09-3.867c-1.394-0.885-3.705-1.666-6.934-2.344
		c-3.229-0.677-5.925-1.536-8.086-2.578c-4.74-2.291-7.109-5.611-7.109-9.961c0-3.646,1.536-6.692,4.609-9.141
		c3.072-2.447,6.979-3.672,11.719-3.672c5.052,0,9.134,1.25,12.246,3.75c3.111,2.5,4.668,5.742,4.668,9.727h-9.492
		c0-1.822-0.678-3.34-2.031-4.551c-1.354-1.211-3.151-1.816-5.391-1.816c-2.084,0-3.783,0.482-5.098,1.445
		c-1.315,0.964-1.973,2.253-1.973,3.867c0,1.459,0.611,2.592,1.836,3.398c1.224,0.808,3.697,1.621,7.422,2.441
		c3.724,0.82,6.646,1.797,8.77,2.93c2.122,1.133,3.697,2.494,4.727,4.082c1.028,1.589,1.543,3.516,1.543,5.781
		c0,3.803-1.576,6.882-4.727,9.238c-3.151,2.357-7.279,3.535-12.383,3.535c-3.464,0-6.55-0.625-9.258-1.875
		c-2.709-1.25-4.818-2.969-6.328-5.156c-1.511-2.188-2.266-4.544-2.266-7.07h9.219c0.13,2.24,0.977,3.965,2.539,5.176
		s3.633,1.816,6.211,1.816c2.5,0,4.4-0.475,5.703-1.426C-833.564-1311.388-832.913-1312.631-832.913-1314.168z"/>
	<path display="inline" fill="#79BE37" d="M-819.295-1355.965c0-1.469,0.462-2.689,1.387-3.66c0.924-0.971,2.246-1.457,3.965-1.457
		s3.047,0.486,3.984,1.457c0.938,0.971,1.406,2.191,1.406,3.66c0,1.444-0.469,2.645-1.406,3.603s-2.266,1.437-3.984,1.437
		s-3.041-0.479-3.965-1.437C-818.833-1353.321-819.295-1354.521-819.295-1355.965z M-809.217-1302.684h-9.492v-42.266h9.492
		V-1302.684z"/>
	<path display="inline" fill="#79BE37" d="M-804.545-1324.129c0-6.563,1.543-11.803,4.629-15.723
		c3.086-3.919,7.181-5.879,12.285-5.879c4.817,0,8.606,1.68,11.367,5.039l0.43-4.258h8.555v40.977c0,5.547-1.726,9.922-5.176,13.125
		c-3.451,3.203-8.105,4.805-13.965,4.805c-3.1,0-6.127-0.645-9.082-1.934c-2.956-1.289-5.202-2.976-6.738-5.059l4.492-5.703
		c2.916,3.463,6.51,5.195,10.781,5.195c3.15,0,5.638-0.854,7.461-2.559c1.822-1.706,2.734-4.213,2.734-7.52v-2.852
		c-2.734,3.047-6.381,4.57-10.938,4.57c-4.948,0-8.991-1.966-12.129-5.898C-802.977-1311.733-804.545-1317.176-804.545-1324.129z
		 M-795.092-1323.309c0,4.245,0.865,7.585,2.598,10.02c1.731,2.436,4.134,3.652,7.207,3.652c3.828,0,6.666-1.641,8.516-4.922
		v-18.594c-1.797-3.203-4.609-4.805-8.438-4.805c-3.125,0-5.554,1.237-7.285,3.711
		C-794.227-1331.772-795.092-1328.126-795.092-1323.309z"/>
	<path display="inline" fill="#79BE37" d="M-752.725-1344.949l0.273,4.883c3.125-3.775,7.227-5.664,12.305-5.664
		c8.802,0,13.281,5.039,13.438,15.117v27.93h-9.492v-27.383c0-2.682-0.58-4.668-1.738-5.957c-1.159-1.289-3.054-1.934-5.684-1.934
		c-3.828,0-6.68,1.732-8.555,5.195v30.078h-9.492v-42.266H-752.725z"/>
	<path display="inline" fill="#79BE37" d="M-702.428-1301.903c-6.016,0-10.893-1.895-14.629-5.684
		c-3.737-3.789-5.605-8.834-5.605-15.137v-1.172c0-4.219,0.813-7.988,2.441-11.309c1.627-3.32,3.912-5.904,6.855-7.754
		c2.942-1.849,6.224-2.773,9.844-2.773c5.755,0,10.201,1.836,13.34,5.508c3.138,3.672,4.707,8.867,4.707,15.586v3.828h-27.617
		c0.286,3.49,1.451,6.25,3.496,8.281c2.044,2.031,4.615,3.047,7.715,3.047c4.349,0,7.891-1.758,10.625-5.273l5.117,4.883
		c-1.693,2.526-3.952,4.486-6.777,5.879C-695.743-1302.6-698.913-1301.903-702.428-1301.903z M-703.561-1338.114
		c-2.604,0-4.707,0.912-6.309,2.734c-1.602,1.823-2.624,4.362-3.066,7.617h18.086v-0.703c-0.209-3.177-1.055-5.579-2.539-7.207
		C-698.873-1337.299-700.931-1338.114-703.561-1338.114z"/>
	<path display="inline" fill="#79BE37" d="M-659.983-1336.278c-1.25-0.208-2.539-0.313-3.867-0.313c-4.35,0-7.279,1.667-8.789,5
		v28.906h-9.492v-42.266h9.063l0.234,4.727c2.291-3.672,5.469-5.508,9.531-5.508c1.354,0,2.474,0.183,3.359,0.547L-659.983-1336.278
		z"/>
	<path display="inline" fill="#666666" d="M-631.264-1323.778v21.094h-9.883v-56.875h21.758c6.354,0,11.399,1.656,15.137,4.966
		c3.736,3.311,5.605,7.691,5.605,13.139c0,5.579-1.83,9.92-5.488,13.022c-3.659,3.103-8.783,4.653-15.371,4.653H-631.264z
		 M-631.264-1331.746h11.875c3.516,0,6.197-0.826,8.047-2.48c1.849-1.653,2.773-4.043,2.773-7.168c0-3.072-0.938-5.527-2.813-7.363
		s-4.453-2.779-7.734-2.832h-12.148V-1331.746z"/>
	<path display="inline" fill="#666666" d="M-572.803-1336.278c-1.25-0.208-2.539-0.313-3.867-0.313c-4.35,0-7.279,1.667-8.789,5
		v28.906h-9.492v-42.266h9.063l0.234,4.727c2.291-3.672,5.469-5.508,9.531-5.508c1.354,0,2.474,0.183,3.359,0.547L-572.803-1336.278
		z"/>
	<path display="inline" fill="#666666" d="M-573.991-1324.207c0-4.141,0.82-7.871,2.461-11.191s3.945-5.872,6.914-7.656
		c2.969-1.783,6.38-2.676,10.234-2.676c5.703,0,10.332,1.836,13.887,5.508s5.475,8.542,5.762,14.609l0.039,2.227
		c0,4.167-0.801,7.891-2.402,11.172s-3.894,5.82-6.875,7.617c-2.982,1.797-6.426,2.695-10.332,2.695
		c-5.964,0-10.736-1.985-14.316-5.957c-3.581-3.971-5.371-9.264-5.371-15.879V-1324.207z M-564.498-1323.387
		c0,4.35,0.898,7.754,2.695,10.215s4.297,3.691,7.5,3.691s5.696-1.25,7.48-3.75c1.783-2.5,2.676-6.158,2.676-10.977
		c0-4.271-0.918-7.656-2.754-10.156s-4.33-3.75-7.48-3.75c-3.1,0-5.561,1.23-7.383,3.691
		C-563.587-1331.961-564.498-1328.282-564.498-1323.387z"/>
</g>
<g display="none">
	<path display="inline" fill="#79BE37" d="M-1212.502-1333.621v32.547h-10.963v-83.137h30.662c9.097,0,16.225,2.323,21.384,6.966
		c5.157,4.645,7.737,10.792,7.737,18.443c0,8.071-2.522,14.285-7.566,18.643c-5.045,4.359-12.268,6.538-21.669,6.538H-1212.502z
		 M-1212.502-1342.586h19.699c5.861,0,10.354-1.382,13.475-4.147c3.12-2.764,4.682-6.759,4.682-11.984
		c0-4.957-1.562-8.922-4.682-11.897c-3.122-2.974-7.404-4.519-12.847-4.633h-20.327V-1342.586z"/>
	<path display="inline" fill="#79BE37" d="M-1121.486-1353.378c-1.599-0.266-3.332-0.4-5.196-0.4c-6.929,0-11.63,2.951-14.104,8.85
		v43.852h-10.563v-61.781h10.278l0.171,7.137c3.463-5.519,8.374-8.279,14.732-8.279c2.056,0,3.616,0.267,4.682,0.799V-1353.378z"/>
	<path display="inline" fill="#79BE37" d="M-1115.719-1332.536c0-6.053,1.189-11.496,3.569-16.33
		c2.378-4.833,5.69-8.565,9.935-11.192c4.244-2.627,9.087-3.94,14.532-3.94c8.412,0,15.217,2.912,20.413,8.736
		s7.794,13.571,7.794,23.239v0.742c0,6.016-1.152,11.411-3.454,16.188c-2.304,4.778-5.596,8.499-9.878,11.163
		c-4.282,2.665-9.203,3.997-14.76,3.997c-8.375,0-15.16-2.912-20.356-8.736c-5.196-5.824-7.794-13.533-7.794-23.125V-1332.536z
		 M-1105.098-1331.28c0,6.852,1.589,12.354,4.768,16.502c3.178,4.15,7.432,6.224,12.762,6.224c5.367,0,9.63-2.103,12.79-6.309
		c3.159-4.205,4.739-10.097,4.739-17.672c0-6.775-1.609-12.266-4.825-16.473c-3.218-4.205-7.49-6.309-12.819-6.309
		c-5.216,0-9.421,2.076-12.619,6.224C-1103.5-1344.945-1105.098-1339.007-1105.098-1331.28z"/>
	<path display="inline" fill="#79BE37" d="M-1048.798-1332.479c0-9.478,2.245-17.101,6.738-22.868
		c4.491-5.767,10.372-8.651,17.644-8.651c7.232,0,12.962,2.475,17.187,7.423v-32.204h10.563v87.705h-9.707l-0.514-6.624
		c-4.225,5.177-10.107,7.766-17.644,7.766c-7.157,0-12.99-2.931-17.501-8.793c-4.511-5.861-6.766-13.513-6.766-22.954V-1332.479z
		 M-1038.235-1331.28c0,7.005,1.446,12.486,4.34,16.445c2.892,3.96,6.889,5.938,11.991,5.938c6.699,0,11.591-3.006,14.675-9.022
		v-28.378c-3.16-5.824-8.014-8.736-14.56-8.736c-5.177,0-9.213,1.999-12.105,5.995
		C-1036.789-1345.041-1038.235-1339.121-1038.235-1331.28z"/>
	<path display="inline" fill="#79BE37" d="M-942.137-1307.184c-4.111,4.835-10.145,7.252-18.1,7.252
		c-6.586,0-11.601-1.913-15.046-5.738c-3.446-3.826-5.188-9.487-5.225-16.987v-40.198h10.563v39.912
		c0,9.364,3.806,14.046,11.42,14.046c8.07,0,13.437-3.006,16.102-9.022v-44.937h10.563v61.781h-10.049L-942.137-1307.184z"/>
	<path display="inline" fill="#79BE37" d="M-891.033-1308.555c3.769,0,7.06-1.142,9.878-3.426c2.816-2.284,4.377-5.139,4.682-8.565
		h9.992c-0.191,3.54-1.409,6.909-3.654,10.107c-2.247,3.198-5.245,5.749-8.993,7.651c-3.75,1.903-7.718,2.855-11.905,2.855
		c-8.414,0-15.103-2.806-20.07-8.422c-4.968-5.614-7.451-13.294-7.451-23.04v-1.77c0-6.014,1.103-11.363,3.312-16.045
		c2.207-4.682,5.376-8.317,9.507-10.906c4.13-2.588,9.012-3.883,14.646-3.883c6.928,0,12.685,2.076,17.273,6.224
		c4.586,4.15,7.032,9.536,7.337,16.159h-9.992c-0.305-3.997-1.819-7.28-4.539-9.85c-2.722-2.569-6.081-3.854-10.078-3.854
		c-5.367,0-9.527,1.933-12.476,5.796c-2.951,3.864-4.425,9.45-4.425,16.759v1.998c0,7.119,1.465,12.6,4.397,16.445
		C-900.664-1310.476-896.477-1308.555-891.033-1308.555z"/>
	<path display="inline" fill="#79BE37" d="M-840.271-1377.816v14.96h11.534v8.165h-11.534v38.362c0,2.477,0.514,4.335,1.542,5.574
		c1.028,1.238,2.778,1.857,5.253,1.857c1.218,0,2.892-0.228,5.025-0.685v8.515c-2.779,0.757-5.482,1.135-8.108,1.135
		c-4.721,0-8.279-1.427-10.678-4.282s-3.597-6.909-3.597-12.162v-38.314h-11.249v-8.165h11.249v-14.96H-840.271z"/>
	<path display="inline" fill="#79BE37" d="M-780.431-1317.462c0-2.855-1.076-5.072-3.226-6.652
		c-2.151-1.579-5.901-2.941-11.249-4.083c-5.349-1.142-9.593-2.512-12.733-4.111c-3.14-1.599-5.463-3.502-6.966-5.71
		c-1.505-2.207-2.255-4.833-2.255-7.88c0-5.062,2.141-9.344,6.424-12.847c4.282-3.502,9.754-5.253,16.416-5.253
		c7.003,0,12.685,1.809,17.044,5.424c4.358,3.617,6.538,8.242,6.538,13.875h-10.62c0-2.892-1.228-5.386-3.683-7.48
		c-2.455-2.093-5.549-3.141-9.279-3.141c-3.846,0-6.852,0.838-9.022,2.512c-2.17,1.676-3.255,3.864-3.255,6.566
		c0,2.551,1.008,4.474,3.026,5.767c2.017,1.295,5.661,2.532,10.935,3.712c5.272,1.18,9.544,2.589,12.819,4.225
		c3.273,1.637,5.7,3.607,7.28,5.91c1.579,2.304,2.37,5.11,2.37,8.422c0,5.52-2.208,9.945-6.624,13.276
		c-4.417,3.332-10.145,4.996-17.187,4.996c-4.949,0-9.327-0.876-13.133-2.626c-3.807-1.75-6.786-4.197-8.936-7.337
		c-2.151-3.141-3.226-6.538-3.226-10.192h10.563c0.19,3.54,1.607,6.348,4.254,8.422c2.645,2.076,6.138,3.112,10.478,3.112
		c3.997,0,7.203-0.808,9.621-2.427C-781.64-1312.599-780.431-1314.758-780.431-1317.462z"/>
	<path display="inline" fill="#79BE37" d="M-725.502-1301.075v-83.137h23.468c7.232,0,13.627,1.599,19.185,4.796
		c5.557,3.198,9.85,7.747,12.876,13.647c3.026,5.901,4.558,12.676,4.596,20.327v5.31c0,7.843-1.513,14.713-4.539,20.613
		c-3.026,5.901-7.347,10.431-12.962,13.59c-5.616,3.16-12.154,4.778-19.614,4.853H-725.502z M-714.539-1375.247v65.207h11.534
		c8.451,0,15.026-2.628,19.728-7.886c4.701-5.257,7.052-12.745,7.052-22.461v-4.858c0-9.448-2.218-16.792-6.652-22.03
		c-4.435-5.239-10.726-7.895-18.871-7.972H-714.539z"/>
	<path display="inline" fill="#79BE37" d="M-624.836-1299.933c-8.375,0-15.188-2.749-20.442-8.251
		c-5.253-5.5-7.88-12.856-7.88-22.069v-1.941c0-6.128,1.171-11.6,3.512-16.416c2.341-4.815,5.614-8.583,9.821-11.306
		c4.205-2.721,8.765-4.083,13.675-4.083c8.031,0,14.275,2.647,18.729,7.937c4.454,5.292,6.681,12.867,6.681,22.726v4.397h-41.854
		c0.151,6.091,1.931,11.012,5.339,14.76c3.406,3.75,7.737,5.624,12.99,5.624c3.73,0,6.889-0.761,9.479-2.284
		c2.588-1.522,4.853-3.54,6.795-6.053l6.452,5.025C-606.716-1303.91-614.482-1299.933-624.836-1299.933z M-626.149-1355.319
		c-4.264,0-7.843,1.552-10.735,4.654c-2.893,3.103-4.682,7.452-5.367,13.047h30.948v-0.799c-0.305-5.367-1.752-9.526-4.34-12.476
		C-618.232-1353.843-621.734-1355.319-626.149-1355.319z"/>
	<path display="inline" fill="#79BE37" d="M-552.548-1317.462c0-2.855-1.076-5.072-3.226-6.652
		c-2.151-1.579-5.901-2.941-11.249-4.083c-5.349-1.142-9.593-2.512-12.733-4.111c-3.141-1.599-5.463-3.502-6.966-5.71
		c-1.505-2.207-2.255-4.833-2.255-7.88c0-5.062,2.141-9.344,6.424-12.847c4.282-3.502,9.754-5.253,16.416-5.253
		c7.003,0,12.685,1.809,17.044,5.424c4.358,3.617,6.538,8.242,6.538,13.875h-10.62c0-2.892-1.228-5.386-3.683-7.48
		c-2.455-2.093-5.549-3.141-9.279-3.141c-3.846,0-6.852,0.838-9.022,2.512c-2.17,1.676-3.255,3.864-3.255,6.566
		c0,2.551,1.008,4.474,3.026,5.767c2.017,1.295,5.661,2.532,10.935,3.712c5.272,1.18,9.544,2.589,12.819,4.225
		c3.273,1.637,5.7,3.607,7.28,5.91c1.579,2.304,2.37,5.11,2.37,8.422c0,5.52-2.208,9.945-6.624,13.276
		c-4.417,3.332-10.145,4.996-17.187,4.996c-4.949,0-9.327-0.876-13.133-2.626c-3.807-1.75-6.786-4.197-8.936-7.337
		c-2.151-3.141-3.226-6.538-3.226-10.192h10.563c0.19,3.54,1.607,6.348,4.254,8.422c2.645,2.076,6.138,3.112,10.478,3.112
		c3.997,0,7.203-0.808,9.621-2.427C-553.757-1312.599-552.548-1314.758-552.548-1317.462z"/>
	<path display="inline" fill="#79BE37" d="M-528.166-1379.244c0-1.713,0.522-3.159,1.57-4.34c1.046-1.179,2.598-1.77,4.654-1.77
		c2.056,0,3.616,0.591,4.682,1.77c1.065,1.181,1.599,2.627,1.599,4.34c0,1.713-0.534,3.14-1.599,4.282
		c-1.066,1.142-2.627,1.713-4.682,1.713c-2.056,0-3.607-0.571-4.654-1.713C-527.644-1376.103-528.166-1377.531-528.166-1379.244z
		 M-516.746-1301.075h-10.563v-61.781h10.563V-1301.075z"/>
	<path display="inline" fill="#79BE37" d="M-502.357-1332.479c0-9.63,2.227-17.291,6.681-22.982
		c4.454-5.69,10.354-8.536,17.701-8.536c7.537,0,13.418,2.665,17.644,7.994l0.514-6.852h9.65v60.297c0,7.994-2.37,14.293-7.109,18.9
		c-4.739,4.605-11.106,6.909-19.1,6.909c-4.454,0-8.813-0.952-13.076-2.855c-4.264-1.904-7.519-4.511-9.764-7.823l5.482-6.338
		c4.529,5.596,10.068,8.394,16.616,8.394c5.139,0,9.144-1.448,12.019-4.34c2.874-2.893,4.311-6.966,4.311-12.219v-5.31
		c-4.225,4.874-9.992,7.309-17.301,7.309c-7.233,0-13.086-2.912-17.558-8.736C-500.122-1314.493-502.357-1322.43-502.357-1332.479z
		 M-491.737-1331.28c0,6.966,1.427,12.439,4.282,16.416c2.855,3.978,6.852,5.967,11.991,5.967c6.661,0,11.553-3.026,14.675-9.079
		v-28.207c-3.236-5.9-8.09-8.85-14.56-8.85c-5.139,0-9.156,1.999-12.048,5.995C-490.291-1345.041-491.737-1339.121-491.737-1331.28z
		"/>
	<path display="inline" fill="#79BE37" d="M-424.245-1362.856l0.343,7.766c4.719-5.938,10.886-8.907,18.5-8.907
		c13.056,0,19.642,7.366,19.756,22.097v40.826h-10.563v-40.883c-0.039-4.454-1.056-7.746-3.055-9.878
		c-1.998-2.131-5.11-3.198-9.336-3.198c-3.426,0-6.434,0.914-9.022,2.741c-2.589,1.827-4.606,4.225-6.053,7.195v44.024h-10.563
		v-61.781H-424.245z"/>
	<path display="inline" fill="#79BE37" d="M-344.078-1299.933c-8.375,0-15.188-2.749-20.442-8.251
		c-5.253-5.5-7.88-12.856-7.88-22.069v-1.941c0-6.128,1.171-11.6,3.512-16.416c2.341-4.815,5.614-8.583,9.821-11.306
		c4.205-2.721,8.765-4.083,13.675-4.083c8.031,0,14.275,2.647,18.729,7.937c4.454,5.292,6.681,12.867,6.681,22.726v4.397h-41.854
		c0.151,6.091,1.931,11.012,5.339,14.76c3.406,3.75,7.737,5.624,12.99,5.624c3.73,0,6.889-0.761,9.478-2.284
		c2.588-1.522,4.853-3.54,6.795-6.053l6.452,5.025C-325.959-1303.91-333.724-1299.933-344.078-1299.933z M-345.391-1355.319
		c-4.264,0-7.843,1.552-10.735,4.654c-2.894,3.103-4.682,7.452-5.367,13.047h30.948v-0.799c-0.305-5.367-1.752-9.526-4.34-12.476
		C-337.474-1353.843-340.976-1355.319-345.391-1355.319z"/>
	<path display="inline" fill="#79BE37" d="M-277.9-1353.378c-1.599-0.266-3.332-0.4-5.196-0.4c-6.929,0-11.63,2.951-14.104,8.85
		v43.852h-10.563v-61.781h10.278l0.171,7.137c3.463-5.519,8.374-8.279,14.732-8.279c2.056,0,3.616,0.267,4.682,0.799V-1353.378z"/>
	<path display="inline" fill="#666666" d="M-229.708-1334.934v33.86h-7.023v-83.137h28.321c8.641,0,15.464,2.208,20.47,6.624
		c5.005,4.417,7.509,10.488,7.509,18.215c0,7.804-2.408,13.828-7.223,18.072c-4.816,4.245-11.791,6.367-20.927,6.367H-229.708z
		 M-229.708-1340.873h21.298c6.813,0,12.009-1.62,15.588-4.861c3.577-3.24,5.367-7.758,5.367-13.554
		c0-5.756-1.78-10.341-5.339-13.753c-3.56-3.412-8.613-5.155-15.16-5.233h-21.755V-1340.873z"/>
	<path display="inline" fill="#666666" d="M-137.778-1357.032c-1.447-0.266-2.989-0.4-4.625-0.4c-4.264,0-7.871,1.191-10.82,3.569
		c-2.951,2.38-5.053,5.834-6.309,10.364v42.425h-6.795v-61.781h6.681l0.114,9.821c3.616-7.309,9.421-10.963,17.415-10.963
		c1.903,0,3.406,0.248,4.511,0.742L-137.778-1357.032z"/>
	<path display="inline" fill="#666666" d="M-131.897-1332.879c0-5.938,1.151-11.286,3.455-16.045
		c2.303-4.758,5.557-8.459,9.764-11.106c4.205-2.645,8.973-3.968,14.303-3.968c8.222,0,14.883,2.884,19.985,8.651
		c5.1,5.767,7.651,13.41,7.651,22.925v1.427c0,5.977-1.152,11.354-3.455,16.131c-2.304,4.778-5.549,8.461-9.735,11.049
		c-4.188,2.589-8.965,3.883-14.332,3.883c-8.185,0-14.837-2.883-19.956-8.651c-5.12-5.767-7.68-13.408-7.68-22.925V-1332.879z
		 M-125.045-1330.995c0,7.386,1.913,13.447,5.738,18.186c3.826,4.739,8.84,7.109,15.046,7.109c6.167,0,11.163-2.37,14.989-7.109
		c3.826-4.739,5.738-10.992,5.738-18.757v-1.313c0-4.719-0.876-9.04-2.627-12.962c-1.752-3.92-4.207-6.956-7.366-9.107
		c-3.16-2.15-6.776-3.226-10.849-3.226c-6.091,0-11.059,2.39-14.903,7.166c-3.846,4.778-5.767,11.03-5.767,18.757V-1330.995z"/>
</g>
<g display="none">
	<path display="inline" fill="#F75353" d="M-933.018-1316.973v41.222h-13.885v-105.296h38.835c11.522,0,20.55,2.941,27.083,8.823
		c6.532,5.882,9.799,13.668,9.799,23.358c0,10.222-3.195,18.092-9.583,23.612c-6.389,5.521-15.537,8.28-27.445,8.28H-933.018z
		 M-933.018-1328.326h24.95c7.424,0,13.113-1.751,17.067-5.253c3.953-3.5,5.93-8.561,5.93-15.178c0-6.278-1.978-11.301-5.93-15.068
		c-3.954-3.768-9.378-5.723-16.272-5.868h-25.746V-1328.326z"/>
	<path display="inline" fill="#F75353" d="M-817.742-1341.995c-2.025-0.337-4.219-0.506-6.581-0.506
		c-8.775,0-14.729,3.736-17.863,11.209v55.541h-13.379V-1354h13.018l0.217,9.04c4.387-6.99,10.606-10.486,18.658-10.486
		c2.604,0,4.58,0.338,5.93,1.013V-1341.995z"/>
	<path display="inline" fill="#F75353" d="M-810.437-1315.599c0-7.666,1.506-14.56,4.52-20.683
		c3.012-6.123,7.207-10.849,12.583-14.175c5.375-3.327,11.51-4.99,18.405-4.99c10.655,0,19.273,3.688,25.854,11.065
		c6.581,7.376,9.872,17.188,9.872,29.434v0.939c0,7.619-1.458,14.453-4.375,20.503c-2.918,6.051-7.087,10.764-12.511,14.139
		s-11.656,5.062-18.694,5.062c-10.607,0-19.201-3.688-25.782-11.064s-9.872-17.14-9.872-29.289V-1315.599z M-796.986-1314.008
		c0,8.679,2.013,15.646,6.039,20.9c4.025,5.256,9.413,7.883,16.164,7.883c6.798,0,12.197-2.663,16.199-7.991
		c4.001-5.326,6.002-12.788,6.002-22.383c0-8.581-2.037-15.536-6.111-20.864c-4.075-5.326-9.486-7.991-16.236-7.991
		c-6.605,0-11.933,2.629-15.982,7.883C-794.961-1331.316-796.986-1323.794-796.986-1314.008z"/>
	<path display="inline" fill="#F75353" d="M-725.68-1315.527c0-12.005,2.844-21.659,8.534-28.964
		c5.688-7.304,13.137-10.956,22.347-10.956c9.16,0,16.417,3.135,21.768,9.401v-40.787h13.379v111.081h-12.294l-0.651-8.389
		c-5.352,6.558-12.8,9.835-22.346,9.835c-9.065,0-16.453-3.712-22.166-11.137c-5.713-7.424-8.57-17.115-8.57-29.072V-1315.527z
		 M-712.3-1314.008c0,8.872,1.832,15.814,5.496,20.828c3.663,5.015,8.726,7.521,15.187,7.521c8.485,0,14.681-3.809,18.586-11.427
		v-35.942c-4.002-7.376-10.149-11.064-18.441-11.064c-6.557,0-11.668,2.531-15.332,7.593
		C-710.469-1331.437-712.3-1323.939-712.3-1314.008z"/>
	<path display="inline" fill="#F75353" d="M-590.588-1283.49c-5.207,6.124-12.849,9.185-22.925,9.185
		c-8.342,0-14.693-2.422-19.056-7.268c-4.364-4.846-6.57-12.017-6.617-21.515V-1354h13.379v50.551
		c0,11.86,4.82,17.791,14.464,17.791c10.221,0,17.019-3.809,20.394-11.427V-1354h13.379v78.249h-12.728L-590.588-1283.49z"/>
	<path display="inline" fill="#F75353" d="M-525.862-1285.225c4.773,0,8.942-1.446,12.511-4.339
		c3.567-2.893,5.544-6.509,5.93-10.848h12.656c-0.242,4.483-1.784,8.75-4.628,12.8c-2.845,4.05-6.642,7.281-11.39,9.691
		c-4.749,2.41-9.775,3.615-15.078,3.615c-10.656,0-19.128-3.555-25.42-10.667c-6.292-7.11-9.438-16.838-9.438-29.181v-2.241
		c0-7.617,1.398-14.392,4.194-20.322c2.796-5.93,6.81-10.533,12.042-13.813c5.23-3.278,11.414-4.918,18.549-4.918
		c8.774,0,16.066,2.629,21.876,7.883c5.81,5.256,8.907,12.077,9.293,20.467h-12.656c-0.386-5.063-2.303-9.221-5.749-12.476
		c-3.448-3.254-7.702-4.882-12.765-4.882c-6.798,0-12.066,2.448-15.801,7.341c-3.737,4.894-5.605,11.969-5.605,21.226v2.531
		c0,9.016,1.855,15.959,5.569,20.828C-538.06-1287.658-532.758-1285.225-525.862-1285.225z"/>
	<path display="inline" fill="#F75353" d="M-461.571-1372.948V-1354h14.608v10.342h-14.608v48.587c0,3.138,0.651,5.492,1.953,7.061
		s3.519,2.353,6.653,2.353c1.542,0,3.663-0.289,6.364-0.868v10.785c-3.52,0.958-6.942,1.437-10.269,1.437
		c-5.979,0-10.486-1.808-13.524-5.424c-3.037-3.615-4.556-8.75-4.556-15.403v-48.526h-14.247V-1354h14.247v-18.947H-461.571z"/>
	<path display="inline" fill="#F75353" d="M-385.781-1296.506c0-3.616-1.363-6.425-4.086-8.426c-2.725-2-7.474-3.725-14.247-5.171
		c-6.774-1.446-12.149-3.182-16.127-5.207c-3.978-2.024-6.919-4.435-8.823-7.231c-1.905-2.796-2.857-6.122-2.857-9.98
		c0-6.411,2.712-11.835,8.136-16.271c5.424-4.435,12.354-6.653,20.792-6.653c8.871,0,16.066,2.291,21.587,6.87
		c5.52,4.581,8.28,10.439,8.28,17.574h-13.451c0-3.664-1.555-6.822-4.665-9.475c-3.11-2.65-7.027-3.978-11.752-3.978
		c-4.87,0-8.678,1.062-11.426,3.183c-2.748,2.122-4.122,4.894-4.122,8.316c0,3.23,1.277,5.666,3.833,7.305
		c2.555,1.64,7.171,3.206,13.849,4.7c6.677,1.495,12.089,3.279,16.236,5.352c4.146,2.073,7.219,4.568,9.221,7.485
		c2,2.917,3.001,6.473,3.001,10.667c0,6.991-2.797,12.596-8.389,16.814c-5.593,4.219-12.849,6.327-21.768,6.327
		c-6.268,0-11.813-1.109-16.633-3.326c-4.822-2.217-8.595-5.315-11.318-9.293c-2.725-3.978-4.086-8.28-4.086-12.909h13.379
		c0.24,4.483,2.036,8.04,5.388,10.667c3.35,2.629,7.774,3.941,13.271,3.941c5.062,0,9.124-1.023,12.186-3.073
		C-387.312-1290.347-385.781-1293.082-385.781-1296.506z"/>
	<path display="inline" fill="#F75353" d="M-352.876-1275.751v-105.296h29.723c9.16,0,17.259,2.024,24.299,6.074
		c7.039,4.05,12.475,9.813,16.308,17.284c3.833,7.475,5.773,16.056,5.822,25.746v6.726c0,9.933-1.917,18.635-5.749,26.107
		c-3.833,7.474-9.306,13.21-16.417,17.212c-7.112,4.002-15.393,6.051-24.842,6.146H-352.876z M-338.991-1369.694v82.589h14.608
		c10.704,0,19.031-3.329,24.986-9.988c5.954-6.659,8.932-16.142,8.932-28.447v-6.152c0-11.967-2.81-21.268-8.425-27.903
		c-5.617-6.635-13.585-10-23.901-10.098H-338.991z"/>
	<path display="inline" fill="#F75353" d="M-225.378-1274.305c-10.607,0-19.237-3.482-25.89-10.45
		c-6.653-6.966-9.98-16.282-9.98-27.951v-2.458c0-7.763,1.482-14.692,4.448-20.792c2.965-6.099,7.111-10.872,12.439-14.319
		c5.327-3.446,11.101-5.171,17.32-5.171c10.172,0,18.08,3.352,23.72,10.053c5.641,6.702,8.461,16.296,8.461,28.782v5.569h-53.01
		c0.192,7.714,2.447,13.946,6.762,18.694c4.314,4.749,9.799,7.123,16.452,7.123c4.725,0,8.726-0.964,12.005-2.893
		c3.278-1.928,6.147-4.483,8.606-7.666l8.172,6.364C-202.429-1279.342-212.264-1274.305-225.378-1274.305z M-227.041-1344.454
		c-5.4,0-9.933,1.966-13.596,5.895c-3.665,3.93-5.93,9.438-6.798,16.524h39.197v-1.012c-0.386-6.799-2.218-12.065-5.496-15.802
		C-217.014-1342.585-221.449-1344.454-227.041-1344.454z"/>
	<path display="inline" fill="#F75353" d="M-133.822-1296.506c0-3.616-1.363-6.425-4.086-8.426c-2.725-2-7.474-3.725-14.247-5.171
		c-6.774-1.446-12.149-3.182-16.127-5.207c-3.978-2.024-6.919-4.435-8.823-7.231c-1.905-2.796-2.857-6.122-2.857-9.98
		c0-6.411,2.712-11.835,8.136-16.271c5.424-4.435,12.354-6.653,20.792-6.653c8.871,0,16.066,2.291,21.587,6.87
		c5.52,4.581,8.28,10.439,8.28,17.574h-13.451c0-3.664-1.555-6.822-4.665-9.475c-3.11-2.65-7.027-3.978-11.752-3.978
		c-4.87,0-8.678,1.062-11.426,3.183c-2.748,2.122-4.122,4.894-4.122,8.316c0,3.23,1.277,5.666,3.833,7.305
		c2.555,1.64,7.171,3.206,13.849,4.7c6.677,1.495,12.089,3.279,16.236,5.352c4.146,2.073,7.219,4.568,9.221,7.485
		c2,2.917,3.001,6.473,3.001,10.667c0,6.991-2.797,12.596-8.389,16.814c-5.593,4.219-12.849,6.327-21.768,6.327
		c-6.268,0-11.813-1.109-16.633-3.326c-4.822-2.217-8.595-5.315-11.318-9.293c-2.725-3.978-4.086-8.28-4.086-12.909h13.379
		c0.24,4.483,2.036,8.04,5.388,10.667c3.35,2.629,7.774,3.941,13.271,3.941c5.062,0,9.124-1.023,12.186-3.073
		C-135.353-1290.347-133.822-1293.082-133.822-1296.506z"/>
	<path display="inline" fill="#F75353" d="M-102.942-1374.755c0-2.17,0.662-4.002,1.989-5.497c1.326-1.493,3.291-2.241,5.894-2.241
		s4.58,0.748,5.93,2.241c1.349,1.495,2.025,3.327,2.025,5.497c0,2.169-0.676,3.978-2.025,5.424c-1.35,1.446-3.327,2.169-5.93,2.169
		s-4.568-0.723-5.894-2.169C-102.28-1370.778-102.942-1372.586-102.942-1374.755z M-88.478-1275.751h-13.379V-1354h13.379V-1275.751
		z"/>
	<path display="inline" fill="#F75353" d="M-70.254-1315.527c0-12.196,2.821-21.9,8.462-29.108
		c5.641-7.207,13.113-10.812,22.419-10.812c9.546,0,16.994,3.375,22.346,10.125l0.651-8.679h12.222v76.369
		c0,10.124-3.001,18.104-9.004,23.938c-6.002,5.833-14.065,8.75-24.19,8.75c-5.641,0-11.162-1.205-16.561-3.615
		c-5.4-2.412-9.522-5.714-12.367-9.908l6.942-8.027c5.737,7.088,12.752,10.631,21.045,10.631c6.509,0,11.583-1.833,15.224-5.496
		c3.64-3.664,5.46-8.823,5.46-15.477v-6.726c-5.352,6.172-12.656,9.257-21.913,9.257c-9.16,0-16.573-3.688-22.237-11.064
		C-67.422-1292.746-70.254-1302.798-70.254-1315.527z M-56.803-1314.008c0,8.823,1.809,15.755,5.424,20.792
		c3.616,5.039,8.679,7.558,15.188,7.558c8.437,0,14.632-3.833,18.586-11.499v-35.726c-4.099-7.473-10.246-11.209-18.441-11.209
		c-6.509,0-11.596,2.531-15.259,7.593C-54.971-1331.437-56.803-1323.939-56.803-1314.008z"/>
	<path display="inline" fill="#F75353" d="M28.678-1354l0.435,9.836c5.978-7.521,13.787-11.282,23.431-11.282
		c16.536,0,24.878,9.329,25.022,27.987v51.708H64.187v-51.78c-0.049-5.641-1.338-9.811-3.869-12.511s-6.473-4.05-11.824-4.05
		c-4.339,0-8.148,1.157-11.427,3.471c-3.278,2.314-5.834,5.352-7.665,9.112v55.758H16.023V-1354H28.678z"/>
	<path display="inline" fill="#F75353" d="M130.214-1274.305c-10.607,0-19.236-3.482-25.89-10.45
		c-6.653-6.966-9.98-16.282-9.98-27.951v-2.458c0-7.763,1.482-14.692,4.447-20.792c2.966-6.099,7.111-10.872,12.439-14.319
		c5.326-3.446,11.101-5.171,17.32-5.171c10.172,0,18.079,3.352,23.721,10.053c5.641,6.702,8.461,16.296,8.461,28.782v5.569h-53.01
		c0.192,7.714,2.446,13.946,6.762,18.694c4.314,4.749,9.8,7.123,16.453,7.123c4.724,0,8.726-0.964,12.005-2.893
		c3.277-1.928,6.146-4.483,8.605-7.666l8.172,6.364C153.163-1279.342,143.327-1274.305,130.214-1274.305z M128.551-1344.454
		c-5.4,0-9.933,1.966-13.596,5.895c-3.665,3.93-5.931,9.438-6.799,16.524h39.197v-1.012c-0.387-6.799-2.218-12.065-5.496-15.802
		C138.578-1342.585,134.143-1344.454,128.551-1344.454z"/>
	<path display="inline" fill="#F75353" d="M214.031-1341.995c-2.024-0.337-4.219-0.506-6.581-0.506
		c-8.775,0-14.729,3.736-17.862,11.209v55.541h-13.379V-1354h13.017l0.218,9.04c4.386-6.99,10.605-10.486,18.658-10.486
		c2.604,0,4.579,0.338,5.93,1.013V-1341.995z"/>
	<path display="inline" fill="#474747" d="M242.309-1316.973v41.222h-13.886v-105.296h38.835c11.522,0,20.551,2.941,27.084,8.823
		c6.532,5.882,9.799,13.668,9.799,23.358c0,10.222-3.194,18.092-9.582,23.612c-6.389,5.521-15.537,8.28-27.445,8.28H242.309z
		 M242.309-1328.326h24.949c7.425,0,13.114-1.751,17.067-5.253c3.953-3.5,5.931-8.561,5.931-15.178
		c0-6.278-1.978-11.301-5.931-15.068s-9.377-5.723-16.271-5.868h-25.745V-1328.326z"/>
	<path display="inline" fill="#474747" d="M357.584-1341.995c-2.024-0.337-4.219-0.506-6.581-0.506
		c-8.775,0-14.729,3.736-17.862,11.209v55.541h-13.379V-1354h13.017l0.218,9.04c4.386-6.99,10.605-10.486,18.658-10.486
		c2.604,0,4.579,0.338,5.93,1.013V-1341.995z"/>
	<path display="inline" fill="#474747" d="M364.889-1315.599c0-7.666,1.506-14.56,4.52-20.683
		c3.013-6.123,7.207-10.849,12.584-14.175c5.375-3.327,11.51-4.99,18.405-4.99c10.654,0,19.272,3.688,25.854,11.065
		c6.581,7.376,9.872,17.188,9.872,29.434v0.939c0,7.619-1.459,14.453-4.376,20.503c-2.917,6.051-7.087,10.764-12.511,14.139
		s-11.656,5.062-18.694,5.062c-10.607,0-19.201-3.688-25.782-11.064s-9.871-17.14-9.871-29.289V-1315.599z M378.34-1314.008
		c0,8.679,2.013,15.646,6.039,20.9c4.024,5.256,9.412,7.883,16.163,7.883c6.798,0,12.197-2.663,16.199-7.991
		c4.001-5.326,6.003-12.788,6.003-22.383c0-8.581-2.038-15.536-6.111-20.864c-4.075-5.326-9.486-7.991-16.235-7.991
		c-6.606,0-11.933,2.629-15.982,7.883C380.365-1331.316,378.34-1323.794,378.34-1314.008z"/>
</g>
<circle opacity="0.3" fill="#666666" cx="-1418.251" cy="-1331.245" r="25"/>
<circle opacity="0.3" fill="#666666" cx="-1319.858" cy="-1330.211" r="25"/>
<rect x="-1299.421" y="-1388.947" display="none" fill="#79BE37" width="5" height="20"/>
<rect x="-1443.358" y="-1292.947" display="none" fill="#79BE37" width="5" height="20"/>
<line display="none" fill="none" stroke="#F75353" stroke-width="5" stroke-miterlimit="10" x1="-1354.346" y1="-1388.947" x2="-1354.346" y2="-1272.947"/>
<path fill="none" stroke="#666666" stroke-width="20" stroke-miterlimit="10" d="M-1466.426-1331.211
	c0-26.823,21.745-48.568,48.568-48.568s48.568,21.745,48.568,48.568s-21.745,48.568-48.568,48.568 M-1466.426-1272.947v-59.264"/>
<path fill="none" stroke="#666666" stroke-width="20" stroke-miterlimit="10" d="M-1272.29-1330.379
	c0,26.823-21.745,48.568-48.568,48.568s-48.568-21.745-48.568-48.568s21.745-48.568,48.568-48.568 M-1272.29-1329.274v-59.264"/>
<line fill="none" stroke="#79BE37" stroke-width="20" stroke-miterlimit="10" x1="-1421.421" y1="-1282.947" x2="-1436.421" y2="-1282.947"/>
<line fill="none" stroke="#79BE37" stroke-width="20" stroke-miterlimit="10" x1="-1302.358" y1="-1378.947" x2="-1317.358" y2="-1378.947"/>
</svg>
