<?xml version="1.0" encoding="utf-8"?>
<!-- Generator: Adobe Illustrator 17.0.0, SVG Export Plug-In . SVG Version: 6.00 Build 0)  -->
<!DOCTYPE svg PUBLIC "-//W3C//DTD SVG 1.1//EN" "http://www.w3.org/Graphics/SVG/1.1/DTD/svg11.dtd">
<svg version="1.1" id="Layer_1" xmlns="http://www.w3.org/2000/svg" xmlns:xlink="http://www.w3.org/1999/xlink" x="0px" y="0px"
	 width="363.636px" height="363.636px" viewBox="-449.776 -1786 363.636 363.636"
	 enable-background="new -449.776 -1786 363.636 363.636" xml:space="preserve">
<g>
	<path fill="#666666" d="M109.358,23.795v44.64c0,20.72-16.79,37.5-37.5,37.5c-10.6,0-20.18-4.4-27-11.47v25.66
		c8.07,4.23,17.26,6.62,27,6.62c32.2,0,58.3-26.11,58.3-58.31C130.158,50.525,122.078,34.485,109.358,23.795z"/>
	<path fill="#666666" d="M71.858,30.935c5.92,0,11.52,1.37,16.5,3.82v-22.25c-5.23-1.54-10.77-2.37-16.5-2.37
		c-31.854,0-57.722,25.557-58.274,57.27h-0.016v0.634c-0.001,0.133-0.01,0.263-0.01,0.396c0,0.119,0.009,0.237,0.01,0.356v36.644
		v2.803v55.497c0,0,20.79-6.74,20.79-19.77v-23.06c0-2.851,0-5.517,0-7.82c0-1.909,0-3.573,0-4.847c0-1.759,0-2.803,0-2.803
		c0-18.054,0-33.046,0-37C34.358,47.725,51.148,30.935,71.858,30.935z"/>
</g>
<g>
	<path fill="#82B440" d="M71.858,41.435c-14.904,0-27,12.096-27,27c0,14.915,12.096,27,27,27c14.915,0,27-12.085,27-27
		C98.858,53.531,86.773,41.435,71.858,41.435z"/>
	<path fill="#82B440" d="M93.888,14.475v23.61c3.93,2.84,7.35,6.48,10,10.86v-29.22C100.728,17.635,97.378,15.885,93.888,14.475z"/>
</g>
<text transform="matrix(1 0 0 1 134.1584 126.4353)" fill="#666666" font-family="'CenturyGothic'" font-size="108" letter-spacing="-4">roduct</text>
<text transform="matrix(1 0 0 1 451.0717 126.4353)" fill="#82B440" font-family="'CenturyGothic'" font-size="108" letter-spacing="-4">designer</text>
<text transform="matrix(1 0 0 1 856.7987 126.4353)" fill="#666666" font-family="'CenturyGothic'" font-size="108" letter-spacing="-4">pro</text>
<g>
	<path fill="#666666" d="M139.59,69.06h7.541v8.385c2.25-3.304,4.623-5.774,7.119-7.409c2.496-1.635,5.097-2.452,7.805-2.452
		c2.039,0,4.219,0.651,6.539,1.951l-3.85,6.223c-1.547-0.667-2.848-1.002-3.902-1.002c-2.461,0-4.834,1.011-7.119,3.032
		c-2.286,2.022-4.026,5.16-5.221,9.413c-0.915,3.27-1.371,9.88-1.371,19.828v19.406h-7.541V69.06z"/>
	<path fill="#666666" d="M196.628,67.584c8.84,0,16.165,3.2,21.976,9.598c5.283,5.836,7.924,12.745,7.924,20.725
		c0,8.016-2.792,15.021-8.373,21.015c-5.583,5.994-12.759,8.991-21.527,8.991c-8.805,0-15.998-2.997-21.58-8.991
		c-5.582-5.993-8.373-12.999-8.373-21.015c0-7.944,2.641-14.835,7.924-20.672C180.409,70.801,187.753,67.584,196.628,67.584z
		 M196.601,74.809c-6.139,0-11.414,2.268-15.824,6.803s-6.615,10.02-6.615,16.453c0,4.149,1.005,8.016,3.017,11.602
		c2.01,3.586,4.727,6.354,8.15,8.306c3.422,1.951,7.179,2.927,11.272,2.927c4.092,0,7.849-0.976,11.272-2.927
		c3.422-1.951,6.139-4.72,8.15-8.306c2.011-3.586,3.017-7.452,3.017-11.602c0-6.434-2.214-11.918-6.642-16.453
		S202.704,74.809,196.601,74.809z"/>
	<path fill="#666666" d="M292.056,46.912v79.523h-7.277v-9.861c-3.094,3.763-6.565,6.592-10.415,8.49s-8.06,2.848-12.63,2.848
		c-8.121,0-15.056-2.944-20.804-8.833c-5.748-5.888-8.622-13.052-8.622-21.489c0-8.261,2.9-15.328,8.701-21.199
		c5.801-5.871,12.779-8.807,20.936-8.807c4.71,0,8.973,1.002,12.788,3.006c3.814,2.004,7.163,5.01,10.046,9.018V46.912H292.056z
		 M262.551,74.703c-4.108,0-7.901,1.01-11.377,3.029c-3.477,2.02-6.243,4.856-8.296,8.508c-2.054,3.652-3.081,7.515-3.081,11.587
		c0,4.039,1.036,7.902,3.107,11.589s4.854,6.558,8.348,8.611c3.494,2.056,7.243,3.082,11.247,3.082
		c4.038,0,7.866-1.019,11.483-3.056c3.616-2.036,6.399-4.793,8.349-8.269c1.949-3.477,2.923-7.393,2.923-11.747
		c0-6.636-2.186-12.185-6.558-16.645C274.323,76.934,268.942,74.703,262.551,74.703z"/>
	<path fill="#666666" d="M302.423,69.06h7.383v26.79c0,6.539,0.352,11.04,1.056,13.5c1.057,3.516,3.072,6.294,6.047,8.332
		c2.975,2.039,6.521,3.059,10.642,3.059c4.119,0,7.613-0.993,10.483-2.979c2.869-1.985,4.85-4.596,5.942-7.831
		c0.739-2.215,1.109-6.908,1.109-14.08V69.06h7.541v28.16c0,7.91-0.923,13.869-2.769,17.877s-4.624,7.146-8.332,9.413
		c-3.709,2.268-8.358,3.401-13.948,3.401s-10.257-1.134-14.001-3.401s-6.539-5.432-8.385-9.492s-2.769-10.168-2.769-18.325V69.06
		H302.423z"/>
	<path fill="#666666" d="M419.314,80.978l-5.854,3.639c-5.057-6.714-11.957-10.072-20.701-10.072
		c-6.988,0-12.791,2.248-17.408,6.743s-6.926,9.956-6.926,16.381c0,4.18,1.062,8.113,3.187,11.8
		c2.124,3.687,5.039,6.549,8.744,8.585c3.705,2.037,7.857,3.056,12.457,3.056c8.428,0,15.31-3.356,20.648-10.072l5.854,3.85
		c-2.742,4.13-6.425,7.333-11.048,9.61c-4.624,2.276-9.888,3.415-15.794,3.415c-9.07,0-16.594-2.882-22.57-8.648
		c-5.977-5.766-8.965-12.778-8.965-21.041c0-5.554,1.397-10.713,4.192-15.478c2.795-4.763,6.635-8.481,11.522-11.153
		c4.886-2.671,10.353-4.008,16.4-4.008c3.797,0,7.462,0.58,10.995,1.74s6.53,2.672,8.991,4.535
		C415.499,75.723,417.591,78.096,419.314,80.978z"/>
	<path fill="#666666" d="M434.534,47.756h7.383V69.06h11.707v6.381h-11.707v50.994h-7.383V75.441h-10.073V69.06h10.073V47.756z"/>
	<path fill="#82B440" d="M516.567,46.912v79.523h-7.277v-9.861c-3.094,3.763-6.565,6.592-10.415,8.49s-8.06,2.848-12.63,2.848
		c-8.121,0-15.056-2.944-20.804-8.833c-5.748-5.888-8.622-13.052-8.622-21.489c0-8.261,2.9-15.328,8.701-21.199
		c5.801-5.871,12.779-8.807,20.936-8.807c4.711,0,8.974,1.002,12.788,3.006s7.163,5.01,10.046,9.018V46.912H516.567z
		 M487.062,74.703c-4.108,0-7.9,1.01-11.377,3.029c-3.478,2.02-6.243,4.856-8.297,8.508s-3.081,7.515-3.081,11.587
		c0,4.039,1.036,7.902,3.107,11.589s4.854,6.558,8.349,8.611c3.493,2.056,7.242,3.082,11.246,3.082
		c4.038,0,7.866-1.019,11.483-3.056c3.616-2.036,6.398-4.793,8.349-8.269c1.948-3.477,2.923-7.393,2.923-11.747
		c0-6.636-2.186-12.185-6.558-16.645C498.835,76.934,493.453,74.703,487.062,74.703z"/>
	<path fill="#82B440" d="M576.189,107.398l6.223,3.27c-2.041,4.008-4.398,7.243-7.074,9.703c-2.674,2.461-5.682,4.333-9.024,5.616
		c-3.344,1.283-7.127,1.925-11.349,1.925c-9.36,0-16.68-3.066-21.958-9.202c-5.278-6.135-7.917-13.068-7.917-20.804
		c0-7.277,2.233-13.764,6.703-19.459c5.664-7.242,13.247-10.863,22.749-10.863c9.782,0,17.593,3.709,23.435,11.127
		c4.152,5.239,6.262,11.778,6.334,19.617h-51.627c0.14,6.664,2.27,12.127,6.388,16.389s9.205,6.393,15.26,6.393
		c2.921,0,5.763-0.508,8.526-1.523c2.763-1.016,5.112-2.364,7.048-4.045C571.842,113.86,573.935,111.145,576.189,107.398z
		 M576.189,91.947c-0.986-3.937-2.42-7.083-4.305-9.439c-1.883-2.355-4.373-4.253-7.47-5.695c-3.099-1.441-6.354-2.162-9.768-2.162
		c-5.633,0-10.473,1.811-14.521,5.432c-2.957,2.637-5.192,6.592-6.705,11.865L576.189,91.947L576.189,91.947z"/>
	<path fill="#82B440" d="M621.519,75.336l-4.746,4.904c-3.948-3.832-7.808-5.748-11.578-5.748c-2.398,0-4.451,0.791-6.16,2.373
		c-1.71,1.582-2.564,3.428-2.564,5.537c0,1.864,0.704,3.639,2.113,5.326c1.409,1.724,4.369,3.744,8.879,6.064
		c5.495,2.848,9.229,5.59,11.203,8.227c1.938,2.673,2.906,5.679,2.906,9.018c0,4.712-1.655,8.701-4.965,11.971
		c-3.311,3.27-7.447,4.904-12.411,4.904c-3.311,0-6.471-0.721-9.48-2.162c-3.011-1.441-5.502-3.428-7.474-5.959l4.641-5.273
		c3.771,4.254,7.771,6.381,11.999,6.381c2.959,0,5.479-0.949,7.558-2.848s3.119-4.131,3.119-6.697c0-2.109-0.688-3.989-2.061-5.643
		c-1.375-1.616-4.476-3.655-9.301-6.117c-5.18-2.671-8.703-5.308-10.57-7.91c-1.867-2.601-2.801-5.572-2.801-8.912
		c0-4.359,1.487-7.98,4.464-10.863c2.975-2.882,6.734-4.324,11.277-4.324C610.848,67.584,616.167,70.168,621.519,75.336z"/>
	<path fill="#82B440" d="M631.755,45.435c1.68,0,3.115,0.598,4.306,1.793c1.189,1.196,1.785,2.637,1.785,4.324
		c0,1.653-0.596,3.077-1.785,4.271c-1.19,1.196-2.626,1.793-4.306,1.793c-1.646,0-3.063-0.597-4.253-1.793
		c-1.19-1.195-1.785-2.619-1.785-4.271c0-1.688,0.595-3.128,1.785-4.324C628.691,46.034,630.109,45.435,631.755,45.435z
		 M628.09,69.06h7.383v57.375h-7.383V69.06z"/>
	<path fill="#82B440" d="M694.883,69.06h7.383v45.721c0,8.051-0.704,13.939-2.109,17.666c-1.934,5.273-5.292,9.334-10.072,12.182
		c-4.781,2.848-10.529,4.271-17.244,4.271c-4.923,0-9.343-0.697-13.263-2.089c-3.921-1.394-7.111-3.262-9.571-5.606
		c-2.461-2.346-4.729-5.774-6.803-10.287h8.016c2.182,3.797,4.998,6.609,8.447,8.438c3.449,1.827,7.727,2.742,12.83,2.742
		c5.033,0,9.284-0.938,12.751-2.812c3.468-1.875,5.94-4.231,7.418-7.068c1.479-2.839,2.218-7.42,2.218-13.745v-2.953
		c-2.78,3.516-6.177,6.215-10.188,8.095c-4.012,1.881-8.271,2.821-12.774,2.821c-5.279,0-10.241-1.31-14.887-3.929
		c-4.646-2.618-8.234-6.144-10.769-10.573c-2.533-4.43-3.8-9.298-3.8-14.607c0-5.308,1.319-10.257,3.959-14.845
		s6.29-8.217,10.953-10.89c4.663-2.671,9.581-4.008,14.754-4.008c4.293,0,8.297,0.888,12.01,2.663
		c3.713,1.776,7.293,4.703,10.742,8.78V69.06H694.883z M673.103,74.703c-4.185,0-8.068,1.011-11.654,3.032
		c-3.586,2.022-6.399,4.817-8.438,8.385c-2.039,3.569-3.059,7.428-3.059,11.575c0,6.294,2.109,11.496,6.328,15.609
		s9.685,6.17,16.4,6.17c6.784,0,12.242-2.038,16.374-6.117c4.131-4.077,6.196-9.439,6.196-16.084c0-4.324-0.949-8.182-2.848-11.575
		c-1.898-3.392-4.588-6.073-8.068-8.042C680.855,75.688,677.111,74.703,673.103,74.703z"/>
	<path fill="#82B440" d="M712.686,69.06h7.383v10.283c2.953-3.937,6.223-6.882,9.809-8.833s7.488-2.927,11.707-2.927
		c4.289,0,8.095,1.09,11.417,3.27s5.774,5.115,7.356,8.807s2.373,9.439,2.373,17.244v29.531h-7.383V99.066
		c0-6.608-0.274-11.021-0.821-13.236c-0.855-3.797-2.497-6.653-4.923-8.569c-2.426-1.916-5.591-2.874-9.493-2.874
		c-4.466,0-8.466,1.477-11.999,4.43c-3.534,2.953-5.863,6.61-6.988,10.969c-0.704,2.848-1.055,8.052-1.055,15.609v21.041h-7.383
		L712.686,69.06L712.686,69.06z"/>
	<path fill="#82B440" d="M821.456,107.398l6.223,3.27c-2.041,4.008-4.398,7.243-7.073,9.703c-2.675,2.461-5.683,4.333-9.025,5.616
		c-3.344,1.283-7.127,1.925-11.349,1.925c-9.36,0-16.679-3.066-21.957-9.202c-5.278-6.135-7.918-13.068-7.918-20.804
		c0-7.277,2.233-13.764,6.703-19.459c5.665-7.242,13.248-10.863,22.749-10.863c9.782,0,17.594,3.709,23.435,11.127
		c4.152,5.239,6.263,11.778,6.334,19.617H777.95c0.14,6.664,2.271,12.127,6.389,16.389s9.204,6.393,15.259,6.393
		c2.921,0,5.763-0.508,8.526-1.523c2.763-1.016,5.112-2.364,7.049-4.045C817.108,113.86,819.203,111.145,821.456,107.398z
		 M821.456,91.947c-0.985-3.937-2.42-7.083-4.304-9.439c-1.884-2.355-4.374-4.253-7.471-5.695c-3.099-1.441-6.354-2.162-9.768-2.162
		c-5.633,0-10.473,1.811-14.521,5.432c-2.957,2.637-5.192,6.592-6.705,11.865L821.456,91.947L821.456,91.947z"/>
	<path fill="#82B440" d="M835.146,69.06h7.541v8.385c2.249-3.304,4.622-5.774,7.119-7.409c2.496-1.635,5.097-2.452,7.805-2.452
		c2.038,0,4.219,0.651,6.539,1.951l-3.85,6.223c-1.548-0.667-2.848-1.002-3.902-1.002c-2.461,0-4.834,1.011-7.119,3.032
		c-2.286,2.022-4.026,5.16-5.221,9.413c-0.915,3.27-1.371,9.88-1.371,19.828v19.406h-7.541L835.146,69.06L835.146,69.06z"/>
	<path fill="#666666" d="M865.131,69.06h7.383v10.547c2.915-4.008,6.269-7.014,10.063-9.018c3.793-2.004,8.024-3.006,12.695-3.006
		c8.147,0,15.119,2.936,20.914,8.807c5.796,5.872,8.693,12.938,8.693,21.199c0,8.438-2.871,15.602-8.614,21.489
		c-5.742,5.889-12.669,8.833-20.782,8.833c-4.566,0-8.763-0.949-12.591-2.848s-7.288-4.728-10.378-8.49v30.85h-7.383V69.06z
		 M894.662,74.703c-6.384,0-11.759,2.23-16.126,6.69s-6.55,10.009-6.55,16.645c0,4.354,0.973,8.271,2.92,11.747
		c1.946,3.476,4.734,6.232,8.365,8.269c3.631,2.037,7.462,3.056,11.496,3.056c3.963,0,7.689-1.026,11.18-3.082
		c3.49-2.054,6.27-4.925,8.34-8.611c2.068-3.687,3.104-7.55,3.104-11.589c0-4.072-1.026-7.936-3.078-11.587
		s-4.813-6.488-8.286-8.508C902.553,75.713,898.765,74.703,894.662,74.703z"/>
	<path fill="#666666" d="M930.5,69.06h7.541v8.385c2.249-3.304,4.622-5.774,7.119-7.409c2.496-1.635,5.097-2.452,7.805-2.452
		c2.038,0,4.219,0.651,6.539,1.951l-3.85,6.223c-1.548-0.667-2.848-1.002-3.902-1.002c-2.461,0-4.834,1.011-7.119,3.032
		c-2.286,2.022-4.026,5.16-5.221,9.413c-0.915,3.27-1.371,9.88-1.371,19.828v19.406H930.5V69.06z"/>
	<path fill="#666666" d="M987.538,67.584c8.84,0,16.165,3.2,21.977,9.598c5.282,5.836,7.924,12.745,7.924,20.725
		c0,8.016-2.792,15.021-8.373,21.015c-5.583,5.994-12.759,8.991-21.527,8.991c-8.805,0-15.998-2.997-21.58-8.991
		c-5.582-5.993-8.373-12.999-8.373-21.015c0-7.944,2.641-14.835,7.924-20.672C971.319,70.801,978.663,67.584,987.538,67.584z
		 M987.511,74.809c-6.139,0-11.414,2.268-15.823,6.803c-4.41,4.535-6.615,10.02-6.615,16.453c0,4.149,1.005,8.016,3.017,11.602
		c2.011,3.586,4.728,6.354,8.149,8.306c3.423,1.951,7.18,2.927,11.272,2.927s7.85-0.976,11.272-2.927
		c3.422-1.951,6.138-4.72,8.149-8.306s3.017-7.452,3.017-11.602c0-6.434-2.214-11.918-6.642-16.453
		C998.88,77.076,993.615,74.809,987.511,74.809z"/>
</g>
<g id="Grid" display="none">
	<line display="inline" fill="none" stroke="#FF0000" stroke-miterlimit="10" x1="-24.112" y1="10.135" x2="1331.888" y2="10.135"/>
	
		<line display="inline" fill="none" stroke="#FF0000" stroke-miterlimit="10" x1="-92.112" y1="163.735" x2="1341.888" y2="163.735"/>
	
		<line display="inline" fill="none" stroke="#FF0000" stroke-miterlimit="10" x1="-136.112" y1="126.745" x2="1427.888" y2="126.745"/>
	<line display="inline" fill="none" stroke="#FF0000" stroke-miterlimit="10" x1="1233.888" y1="95.435" x2="-92.112" y2="95.435"/>
	<line display="inline" fill="none" stroke="#FF0000" stroke-miterlimit="10" x1="71.858" y1="68.435" x2="1050.555" y2="68.435"/>
</g>
<g opacity="0.5">
	<path fill="#232838" d="M-1434-1847c0-2.2,1.8-4,4-4l0,0c2.2,0,4,1.8,4,4l0,0c0,2.2-1.8,4-4,4l0,0
		C-1432.2-1843-1434-1844.8-1434-1847z M-1450-1847c0-2.2,1.8-4,4-4l0,0c2.2,0,4,1.8,4,4l0,0c0,2.2-1.8,4-4,4l0,0
		C-1448.2-1843-1450-1844.8-1450-1847z M-1466-1847c0-2.2,1.756-4,4-4l0,0c2.2,0,4,1.8,4,4l0,0c0,2.2-1.8,4-4,4l0,0
		C-1464.244-1843-1466-1844.8-1466-1847z M-1482-1847c0-2.2,1.8-4,4-4l0,0c2.2,0,4,1.8,4,4l0,0c0,2.2-1.8,4-4,4l0,0
		C-1480.2-1843-1482-1844.8-1482-1847z M-1498-1847c0-2.2,1.8-4,4-4l0,0c2.2,0,4,1.8,4,4l0,0c0,2.2-1.8,4-4,4l0,0
		C-1496.2-1843-1498-1844.8-1498-1847z M-1514-1847c0-2.2,1.8-4,4-4l0,0c2.2,0,4,1.8,4,4l0,0c0,2.2-1.8,4-4,4l0,0
		C-1512.2-1843-1514-1844.8-1514-1847z M-1530-1847c0-2.2,1.8-4,4-4l0,0c2.2,0,4,1.8,4,4l0,0c0,2.2-1.8,4-4,4l0,0
		C-1528.2-1843-1530-1844.8-1530-1847z M-1546-1847c0-2.2,1.8-4,4-4l0,0c2.2,0,4,1.8,4,4l0,0c0,2.2-1.8,4-4,4l0,0
		C-1544.2-1843-1546-1844.8-1546-1847z M-1562-1847c0-2.2,1.8-4,4-4l0,0c2.2,0,4,1.8,4,4l0,0c0,2.2-1.8,4-4,4l0,0
		C-1560.2-1843-1562-1844.8-1562-1847z M-1426-1855c0-2.2,1.8-4,4-4l0,0c2.2,0,4,1.8,4,4l0,0c0,2.2-1.8,4-4,4l0,0
		C-1424.2-1851-1426-1852.8-1426-1855z M-1562-1863c0-2.2,1.8-4,4-4l0,0c2.2,0,4,1.8,4,4l0,0c0,2.2-1.8,4-4,4l0,0
		C-1560.2-1859-1562-1860.8-1562-1863z M-1410-1871c0-2.2,1.8-4,4-4l0,0c2.2,0,4,1.8,4,4l0,0c0,2.2-1.8,4-4,4l0,0
		C-1408.2-1867-1410-1868.8-1410-1871z M-1426-1871c0-2.2,1.8-4,4-4l0,0c2.2,0,4,1.8,4,4l0,0c0,2.2-1.8,4-4,4l0,0
		C-1424.2-1867-1426-1868.8-1426-1871z M-1570-1871c0-2.2,1.8-4,4-4l0,0c2.2,0,4,1.8,4,4l0,0c0,2.2-1.8,4-4,4l0,0
		C-1568.2-1867-1570-1868.8-1570-1871z M-1586-1871c0-2.2,1.8-4,4-4l0,0c2.2,0,4,1.8,4,4l0,0c0,2.2-1.8,4-4,4l0,0
		C-1584.2-1867-1586-1868.8-1586-1871z M-1402-1879c0-2.2,1.8-4,4-4l0,0c2.2,0,4,1.8,4,4l0,0c0,2.2-1.8,4-4,4l0,0
		C-1400.2-1875-1402-1876.8-1402-1879z M-1586-1887c0-2.2,1.8-4,4-4l0,0c2.2,0,4,1.8,4,4l0,0c0,2.2-1.8,4-4,4l0,0
		C-1584.2-1883-1586-1884.8-1586-1887z M-1402-1895c0-2.2,1.8-4,4-4l0,0c2.2,0,4,1.8,4,4l0,0c0,2.2-1.8,4-4,4l0,0
		C-1400.2-1891-1402-1892.8-1402-1895z M-1586-1903c0-2.2,1.8-4,4-4l0,0c2.2,0,4,1.8,4,4l0,0c0,2.2-1.8,4-4,4l0,0
		C-1584.2-1899-1586-1900.8-1586-1903z M-1402-1911c0-2.2,1.8-4,4-4l0,0c2.2,0,4,1.8,4,4l0,0c0,2.2-1.8,4-4,4l0,0
		C-1400.2-1907-1402-1908.8-1402-1911z M-1586-1919c0-2.2,1.8-4,4-4l0,0c2.2,0,4,1.8,4,4l0,0c0,2.2-1.8,4-4,4l0,0
		C-1584.2-1915-1586-1916.8-1586-1919z M-1402-1927c0-2.2,1.8-4,4-4l0,0c2.2,0,4,1.8,4,4l0,0c0,2.2-1.8,4-4,4l0,0
		C-1400.2-1923-1402-1924.8-1402-1927z M-1586-1935c0-2.2,1.8-4,4-4l0,0c2.2,0,4,1.8,4,4l0,0c0,2.2-1.8,4-4,4l0,0
		C-1584.2-1931-1586-1932.8-1586-1935z M-1402-1943c0-2.2,1.8-4,4-4l0,0c2.2,0,4,1.8,4,4l0,0c0,2.2-1.8,4-4,4l0,0
		C-1400.2-1939-1402-1940.8-1402-1943z M-1586-1951c0-2.2,1.8-4,4-4l0,0c2.2,0,4,1.8,4,4l0,0c0,2.2-1.8,4-4,4l0,0
		C-1584.2-1947-1586-1948.8-1586-1951z M-1402-1959c0-2.2,1.8-4,4-4l0,0c2.2,0,4,1.8,4,4l0,0c0,2.2-1.8,4-4,4l0,0
		C-1400.2-1955-1402-1956.8-1402-1959z M-1586-1967c0-2.2,1.8-4,4-4l0,0c2.2,0,4,1.8,4,4l0,0c0,2.2-1.8,4-4,4l0,0
		C-1584.2-1963-1586-1964.8-1586-1967z M-1402-1975c0-2.2,1.8-4,4-4l0,0c2.2,0,4,1.8,4,4l0,0c0,2.2-1.8,4-4,4l0,0
		C-1400.2-1971-1402-1972.8-1402-1975z M-1586-1983c0-2.2,1.8-4,4-4l0,0c2.2,0,4,1.8,4,4l0,0c0,2.2-1.8,4-4,4l0,0
		C-1584.2-1979-1586-1980.8-1586-1983z M-1402-1991c0-2.2,1.8-4,4-4l0,0c2.2,0,4,1.8,4,4l0,0c0,2.2-1.8,4-4,4l0,0
		C-1400.2-1987-1402-1988.8-1402-1991z M-1586-1999c0-2.2,1.8-4,4-4l0,0c2.2,0,4,1.8,4,4l0,0c0,2.2-1.8,4-4,4l0,0
		C-1584.2-1995-1586-1996.8-1586-1999z M-1402-2007c0-2.2,1.8-4,4-4l0,0c2.2,0,4,1.8,4,4l0,0c0,2.2-1.8,4-4,4l0,0
		C-1400.2-2003-1402-2004.8-1402-2007z M-1418-2007c0-2.2,1.8-4,4-4l0,0c2.2,0,4,1.8,4,4l0,0c0,2.2-1.8,4-4,4l0,0
		C-1416.2-2003-1418-2004.8-1418-2007z M-1562-2007c0-2.2,1.8-4,4-4l0,0c2.2,0,4,1.8,4,4l0,0c0,2.2-1.8,4-4,4l0,0
		C-1560.2-2003-1562-2004.8-1562-2007z M-1578-2007c0-2.2,1.8-4,4-4l0,0c2.2,0,4,1.8,4,4l0,0c0,2.2-1.8,4-4,4l0,0
		C-1576.2-2003-1578-2004.8-1578-2007z M-1426-2015c0-2.2,1.8-4,4-4l0,0c2.2,0,4,1.8,4,4l0,0c0,2.2-1.8,4-4,4l0,0
		C-1424.2-2011-1426-2012.8-1426-2015z M-1562-2023c0-2.2,1.8-4,4-4l0,0c2.2,0,4,1.8,4,4l0,0c0,2.2-1.8,4-4,4l0,0
		C-1560.2-2019-1562-2020.8-1562-2023z M-1426-2031c0-2.2,1.8-4,4-4l0,0c2.2,0,4,1.8,4,4l0,0c0,2.2-1.8,4-4,4l0,0
		C-1424.2-2027-1426-2028.8-1426-2031z M-1442-2031c0-2.2,1.8-4,4-4l0,0c2.2,0,4,1.8,4,4l0,0c0,2.2-1.8,4-4,4l0,0
		C-1440.2-2027-1442-2028.8-1442-2031z M-1458-2031c0-2.2,1.8-4,4-4l0,0c2.2,0,4,1.8,4,4l0,0c0,2.2-1.8,4-4,4l0,0
		C-1456.2-2027-1458-2028.8-1458-2031z M-1474-2031c0-2.2,1.8-4,4-4l0,0c2.2,0,4,1.8,4,4l0,0c0,2.2-1.8,4-4,4l0,0
		C-1472.2-2027-1474-2028.8-1474-2031z M-1490-2031c0-2.2,1.8-4,4-4l0,0c2.2,0,4,1.8,4,4l0,0c0,2.2-1.8,4-4,4l0,0
		C-1488.2-2027-1490-2028.8-1490-2031z M-1506-2031c0-2.2,1.8-4,4-4l0,0c2.2,0,4,1.8,4,4l0,0c0,2.2-1.8,4-4,4l0,0
		C-1504.2-2027-1506-2028.8-1506-2031z M-1522-2031c0-2.2,1.8-4,4-4l0,0c2.2,0,4,1.8,4,4l0,0c0,2.2-1.8,4-4,4l0,0
		C-1520.2-2027-1522-2028.8-1522-2031z M-1538-2031c0-2.2,1.8-4,4-4l0,0c2.2,0,4,1.8,4,4l0,0c0,2.2-1.8,4-4,4l0,0
		C-1536.2-2027-1538-2028.8-1538-2031z M-1554-2031c0-2.2,1.8-4,4-4l0,0c2.2,0,4,1.8,4,4l0,0c0,2.2-1.8,4-4,4l0,0
		C-1552.2-2027-1554-2028.8-1554-2031z"/>
	<g>
		<rect x="-1422" y="-2055" fill="#232838" width="48" height="48"/>
		<path fill="#232838" d="M-1370-2003h-56v-56h56V-2003z M-1418-2011h40v-40h-40V-2011z"/>
	</g>
	<g>
		<rect x="-1422" y="-1871" fill="#232838" width="48" height="48"/>
		<path fill="#232838" d="M-1370-1819h-56v-56h56V-1819z M-1418-1827h40v-40h-40V-1827z"/>
	</g>
	<g>
		<rect x="-1606" y="-2055" fill="#232838" width="48" height="48"/>
		<path fill="#232838" d="M-1554-2003h-56v-56h56V-2003z M-1602-2011h40v-40h-40V-2011z"/>
	</g>
	<g>
		<rect x="-1606" y="-1871" fill="#232838" width="48" height="48"/>
		<path fill="#232838" d="M-1554-1819h-56v-56h56V-1819z M-1602-1827h40v-40h-40V-1827z"/>
	</g>
</g>
<g>
	<path fill="#232838" d="M-201.161-1716.65v79.515c0,36.908-29.907,66.797-66.797,66.797c-18.881,0-35.946-7.838-48.094-20.431
		v45.707c14.375,7.535,30.744,11.792,48.094,11.792c57.356,0,103.847-46.508,103.847-103.865
		C-164.111-1669.037-178.503-1697.609-201.161-1716.65z"/>
	<path fill="#232838" d="M-267.957-1703.932c10.545,0,20.52,2.44,29.391,6.804v-39.633c-9.316-2.743-19.184-4.222-29.391-4.222
		c-56.74,0-102.817,45.523-103.801,102.012h-0.029v1.129c-0.002,0.237-0.018,0.469-0.018,0.705c0,0.212,0.016,0.422,0.018,0.634
		v65.272v4.993v98.854c0,0,37.032-12.006,37.032-35.215v-41.076c0-5.078,0-9.827,0-13.929c0-3.4,0-6.364,0-8.634
		c0-3.133,0-4.993,0-4.993c0-32.159,0-58.863,0-65.906C-334.754-1674.025-304.847-1703.932-267.957-1703.932z"/>
</g>
<g>
	<path fill="#82B440" d="M-267.957-1685.229c-26.548,0-48.094,21.546-48.094,48.094c0,26.567,21.546,48.094,48.094,48.094
		c26.567,0,48.094-21.526,48.094-48.094C-219.864-1663.683-241.39-1685.229-267.957-1685.229z"/>
	<path fill="#82B440" d="M-228.717-1733.251v42.055c7,5.059,13.092,11.542,17.812,19.344v-52.048
		C-216.533-1727.623-222.5-1730.74-228.717-1733.251z"/>
</g>
<g>
	<polygon fill="#EE8700" points="-86.136,-1786.005 -86.136,-1422.365 -267.956,-1422.365 -267.956,-1437.255 -100.776,-1437.255 
		-100.776,-1772.255 -267.956,-1772.255 -267.956,-1786.005 	"/>
	<polygon fill="#FFA733" points="-434.776,-1772.255 -434.776,-1437.255 -267.956,-1437.255 -267.956,-1422.365 -449.776,-1422.365 
		-449.776,-1786.005 -267.956,-1786.005 -267.956,-1772.255 	"/>
</g>
<rect x="-434.776" y="-1772.255" display="none" fill="#232838" width="334" height="335"/>
</svg>
