<?xml version="1.0" encoding="utf-8"?>
<!-- Generator: Adobe Illustrator 17.0.0, SVG Export Plug-In . SVG Version: 6.00 Build 0)  -->
<!DOCTYPE svg PUBLIC "-//W3C//DTD SVG 1.1//EN" "http://www.w3.org/Graphics/SVG/1.1/DTD/svg11.dtd">
<svg version="1.1" id="Layer_1" xmlns="http://www.w3.org/2000/svg" xmlns:xlink="http://www.w3.org/1999/xlink" x="0px" y="0px"
	 width="116.6px" height="153.6px" viewBox="0 0 116.6 153.6" enable-background="new 0 0 116.6 153.6" xml:space="preserve">
<g>
	<path fill="#666666" d="M95.8,13.66V58.3c0,20.72-16.79,37.5-37.5,37.5c-10.6,0-20.18-4.4-27-11.47v25.66
		c8.07,4.23,17.26,6.62,27,6.62c32.2,0,58.3-26.11,58.3-58.31C116.6,40.39,108.52,24.35,95.8,13.66z"/>
	<path fill="#666666" d="M58.3,20.8c5.92,0,11.52,1.37,16.5,3.82V2.37C69.57,0.83,64.03,0,58.3,0C26.446,0,0.578,25.557,0.026,57.27
		H0.01v0.634C0.009,58.037,0,58.167,0,58.3c0,0.119,0.009,0.237,0.01,0.356V95.3v2.803V153.6c0,0,20.79-6.74,20.79-19.77v-23.06
		c0-2.851,0-5.517,0-7.82c0-1.909,0-3.573,0-4.847c0-1.759,0-2.803,0-2.803c0-18.054,0-33.046,0-37C20.8,37.59,37.59,20.8,58.3,20.8
		z"/>
</g>
<g>
	<path fill="#82B440" d="M58.3,31.3c-14.904,0-27,12.096-27,27c0,14.915,12.096,27,27,27c14.915,0,27-12.085,27-27
		C85.3,43.396,73.215,31.3,58.3,31.3z"/>
	<path fill="#82B440" d="M80.33,4.34v23.61c3.93,2.84,7.35,6.48,10,10.86V9.59C87.17,7.5,83.82,5.75,80.33,4.34z"/>
</g>
</svg>
