<?xml version="1.0" encoding="utf-8"?>
<!-- Generator: Adobe Illustrator 17.0.0, SVG Export Plug-In . SVG Version: 6.00 Build 0)  -->
<!DOCTYPE svg PUBLIC "-//W3C//DTD SVG 1.1//EN" "http://www.w3.org/Graphics/SVG/1.1/DTD/svg11.dtd">
<svg version="1.1" id="Layer_1" xmlns="http://www.w3.org/2000/svg" xmlns:xlink="http://www.w3.org/1999/xlink" x="0px" y="0px"
	 width="32px" height="24.448px" viewBox="240 243.777 32 24.448" enable-background="new 240 243.777 32 24.448"
	 xml:space="preserve">
<g>
	<g>
		<g>
			<path fill="#5F9137" d="M244.895,243.777c-0.001,0-0.002,0-0.003,0c-0.303,0-0.587,0.118-0.802,0.332
				c-0.217,0.217-0.337,0.505-0.337,0.813v17.171c0,0.63,0.514,1.143,1.146,1.145c2.665,0.006,7.131,0.562,10.212,3.786v-17.97
				c0-0.213-0.055-0.414-0.157-0.58C252.425,244.402,247.566,243.783,244.895,243.777z"/>
			<path fill="#5F9137" d="M268.247,262.093v-17.171c0-0.307-0.12-0.596-0.337-0.813c-0.215-0.214-0.5-0.332-0.802-0.332
				c-0.001,0-0.002,0-0.003,0c-2.671,0.006-7.53,0.625-10.059,4.697c-0.103,0.166-0.157,0.366-0.157,0.58v17.97
				c3.081-3.224,7.546-3.779,10.212-3.786C267.733,263.236,268.247,262.722,268.247,262.093z"/>
			<path fill="#5F9137" d="M270.855,247.737h-0.83v14.356c0,1.608-1.31,2.919-2.92,2.923c-2.261,0.005-5.989,0.447-8.629,2.946
				c4.566-1.118,9.379-0.391,12.123,0.234c0.343,0.078,0.696-0.003,0.971-0.221c0.273-0.218,0.43-0.544,0.43-0.894v-18.198
				C272,248.251,271.486,247.737,270.855,247.737z"/>
			<path fill="#5F9137" d="M241.975,262.093v-14.356h-0.83c-0.631,0-1.145,0.514-1.145,1.145v18.198c0,0.35,0.157,0.676,0.43,0.894
				c0.274,0.219,0.628,0.3,0.971,0.221c2.743-0.625,7.557-1.352,12.122-0.234c-2.64-2.499-6.368-2.941-8.628-2.946
				C243.285,265.012,241.975,263.701,241.975,262.093z"/>
		</g>
	</g>
</g>
</svg>
