<?xml version="1.0" encoding="utf-8"?>
<!-- Generator: Adobe Illustrator 17.0.0, SVG Export Plug-In . SVG Version: 6.00 Build 0)  -->
<!DOCTYPE svg PUBLIC "-//W3C//DTD SVG 1.1//EN" "http://www.w3.org/Graphics/SVG/1.1/DTD/svg11.dtd">
<svg version="1.1" id="Capa_1" xmlns="http://www.w3.org/2000/svg" xmlns:xlink="http://www.w3.org/1999/xlink" x="0px" y="0px"
	 width="32px" height="44.55px" viewBox="240.009 233.725 32 44.55" enable-background="new 240.009 233.725 32 44.55"
	 xml:space="preserve">
<g>
	<path fill="#5F9137" d="M269.034,233.725h-1.491h-5.209h-22.326v12.656v14.884v12.643h2.977v4.367l2.977-1.984l2.977,1.984v-4.367
		h13.395h5.209h1.491c1.64,0,2.975-1.334,2.975-2.974v-9.669v-14.884v-9.683C272.008,235.059,270.674,233.725,269.034,233.725z
		 M241.496,235.213h20.837v11.168h-20.837C241.496,246.381,241.496,235.213,241.496,235.213z M257.868,259.025
		c-0.411,0-0.744,0.333-0.744,0.744c0,0,0.001,0.005,0.001,0.007h-2.98c0-0.002,0.001-0.005,0.001-0.005
		c0-0.414-0.333-0.746-0.744-0.746c-0.411,0-0.744,0.333-0.744,0.744c0,0,0.001,0.005,0.001,0.007h-2.98
		c0-0.002,0.001-0.005,0.001-0.005c0-0.414-0.333-0.746-0.744-0.746c-0.411,0-0.744,0.333-0.744,0.744c0,0,0.001,0.005,0.001,0.007
		h-2.98c0-0.002,0.001-0.005,0.001-0.005c0-0.414-0.333-0.746-0.744-0.746s-0.744,0.333-0.744,0.744c0,0,0.001,0.005,0.001,0.007
		h-2.234v-2.24v-4.465v-4.465v-0.737h0.706c-0.392,0.021-0.706,0.339-0.706,0.737c0,0.411,0.333,0.744,0.744,0.744
		s0.744-0.333,0.744-0.744c0-0.397-0.314-0.716-0.706-0.737h4.389c-0.392,0.021-0.706,0.339-0.706,0.737
		c0,0.411,0.333,0.744,0.744,0.744s0.744-0.333,0.744-0.744c0-0.397-0.314-0.716-0.706-0.737h4.389
		c-0.392,0.021-0.706,0.339-0.706,0.737c0,0.411,0.333,0.744,0.744,0.744c0.411,0,0.744-0.333,0.744-0.744
		c0-0.397-0.314-0.716-0.706-0.737h4.389c-0.392,0.021-0.706,0.339-0.706,0.737c0,0.411,0.333,0.744,0.744,0.744
		c0.411,0,0.744-0.333,0.744-0.744c0-0.397-0.314-0.716-0.706-0.737h4.389c-0.392,0.021-0.706,0.339-0.706,0.737
		c0,0.411,0.333,0.744,0.744,0.744s0.744-0.333,0.744-0.744c0-0.397-0.314-0.716-0.706-0.737h2.195v2.225
		c-0.411,0-0.744,0.333-0.744,0.744c0,0.411,0.333,0.744,0.744,0.744v2.977c-0.411,0-0.744,0.333-0.744,0.744
		s0.333,0.744,0.744,0.744v2.977c-0.411,0-0.744,0.333-0.744,0.744c0,0,0.001,0.005,0.001,0.007h-2.98
		c0-0.002,0.001-0.005,0.001-0.005C258.612,259.358,258.279,259.025,257.868,259.025z M247.45,275.495l-1.488-0.993l-1.488,0.993
		v-1.587h2.977V275.495z M248.938,272.42h-5.953h-1.488v-11.155h20.837v11.155H248.938L248.938,272.42z M263.822,272.42v-11.155
		v-14.884v-11.168h2.233v11.168v14.884v11.155H263.822L263.822,272.42z M269.031,249.351c0.411,0,0.744-0.333,0.744-0.744
		c0-0.397-0.314-0.716-0.706-0.737h1.45v11.907h-2.977V247.87h1.45c-0.392,0.021-0.706,0.339-0.706,0.737
		C268.287,249.017,268.62,249.351,269.031,249.351z M270.519,270.934c0,0.819-0.667,1.485-1.486,1.485h-1.491v-11.155h2.977V270.934
		z M267.543,246.381v-11.168h1.491c0.819,0,1.486,0.667,1.486,1.485v9.683H267.543z"/>
	<circle fill="#5F9137" cx="244.473" cy="250.839" r="0.744"/>
	<circle fill="#5F9137" cx="248.938" cy="250.839" r="0.744"/>
	<circle fill="#5F9137" cx="253.403" cy="250.839" r="0.744"/>
	<circle fill="#5F9137" cx="257.868" cy="250.839" r="0.744"/>
	<circle fill="#5F9137" cx="242.24" cy="253.072" r="0.744"/>
	<circle fill="#5F9137" cx="246.706" cy="253.072" r="0.744"/>
	<circle fill="#5F9137" cx="242.24" cy="257.537" r="0.744"/>
	<circle fill="#5F9137" cx="246.706" cy="257.537" r="0.744"/>
	<circle fill="#5F9137" cx="244.473" cy="255.304" r="0.744"/>
	<circle fill="#5F9137" cx="248.938" cy="255.304" r="0.744"/>
	<circle fill="#5F9137" cx="251.171" cy="253.072" r="0.744"/>
	<circle fill="#5F9137" cx="255.636" cy="253.072" r="0.744"/>
	<circle fill="#5F9137" cx="251.171" cy="257.537" r="0.744"/>
	<circle fill="#5F9137" cx="255.636" cy="257.537" r="0.744"/>
	<circle fill="#5F9137" cx="253.403" cy="255.304" r="0.744"/>
	<circle fill="#5F9137" cx="257.868" cy="255.304" r="0.744"/>
	<circle fill="#5F9137" cx="260.101" cy="253.072" r="0.744"/>
	<circle fill="#5F9137" cx="260.101" cy="257.537" r="0.744"/>
	<circle fill="#5F9137" cx="269.031" cy="253.072" r="0.744"/>
	<circle fill="#5F9137" cx="269.031" cy="257.537" r="0.744"/>
</g>
</svg>
