<?xml version="1.0" encoding="UTF-8" standalone="no"?>
<svg width="214px" height="77px" viewBox="0 0 214 77" version="1.1" xmlns="http://www.w3.org/2000/svg" xmlns:xlink="http://www.w3.org/1999/xlink">
    <defs></defs>
    <g id="Page-1" stroke="none" stroke-width="1" fill="none" fill-rule="evenodd">
        <g id="v2" transform="translate(-885.000000, -4979.000000)">
            <g id="content_mask" transform="translate(-1.000000, 0.000000)">
                <g id="content">
                    <g id="evetns" transform="translate(81.000000, 4423.000000)">
                        <g id="eventsGrid" transform="translate(0.000000, 124.000000)">
                            <g id="icon" transform="translate(1.000000, 400.000000)">
                                <g id="ICON-Logo-Final-KO-RGB" transform="translate(804.000000, 32.000000)">
                                    <path d="M0.0255776892,1.22264088 L20.1867649,1.22264088 L20.1867649,73.5371271 L0.0255776892,73.5371271 L0.0255776892,1.22264088 Z" id="Fill-1" fill="#FFFFFF"></path>
                                    <path d="M78.4727769,51.0650387 C75.0381195,54.858884 70.0769004,57.2492873 64.5495618,57.2492873 C54.1799402,57.2492873 45.7738327,48.860116 45.7738327,38.5119116 C45.7738327,28.1637072 54.1799402,19.7749613 64.5495618,19.7749613 C70.0769004,19.7749613 75.0381195,22.1653646 78.4727769,25.9592099 C80.7146614,19.4741934 84.6421155,13.777895 89.7363386,9.38634254 C82.9782869,3.55944199 74.1816932,0.0242486188 64.5495618,0.0242486188 C43.2493147,0.0242486188 25.982243,17.2556575 25.982243,38.5119116 C25.982243,59.7681657 43.2493147,77 64.5495618,77 C74.1816932,77 82.9782869,73.4648066 89.7363386,67.6379061 C84.6421155,63.2459282 80.7146614,57.5500552 78.4727769,51.0650387" id="Fill-3" fill="#FFFFFF"></path>
                                    <path d="M133.70055,38.5119116 C133.70055,48.860116 125.294016,57.2492873 114.924394,57.2492873 C104.554773,57.2492873 96.1486653,48.860116 96.1486653,38.5119116 C96.1486653,28.1637072 104.554773,19.7749613 114.924394,19.7749613 C125.294016,19.7749613 133.70055,28.1637072 133.70055,38.5119116" id="Fill-5" fill="#73B743"></path>
                                    <path d="M193.767622,1.22221547 L193.767622,39.4456961 L163.954267,1.22221547 L145.216052,1.22221547 L145.216052,14.7057238 C150.393829,21.2566796 153.492139,29.520779 153.492139,38.5119116 C153.492139,47.5030442 150.393829,55.7671436 145.216052,62.3185249 L145.216052,73.5371271 L165.092048,73.5371271 L165.092048,33.867663 L196.044462,73.5371271 L213.643191,73.5371271 L213.643191,1.22221547 L193.767622,1.22221547" id="Fill-6" fill="#FFFFFF"></path>
                                </g>
                            </g>
                        </g>
                    </g>
                </g>
            </g>
        </g>
    </g>
</svg>