<?xml version="1.0" encoding="UTF-8" standalone="no"?>
<svg width="125px" height="109px" viewBox="0 0 125 109" version="1.1" xmlns="http://www.w3.org/2000/svg" xmlns:xlink="http://www.w3.org/1999/xlink">
    <defs></defs>
    <g id="Page-1" stroke="none" stroke-width="1" fill="none" fill-rule="evenodd" stroke-linejoin="round">
        <g id="v2" transform="translate(-225.000000, -4072.000000)" stroke-width="2" stroke="#535353">
            <g id="content_mask" transform="translate(-1.000000, 0.000000)">
                <g id="content">
                    <g id="already_a_partner" transform="translate(81.000000, 3264.000000)">
                        <g id="portal" transform="translate(0.000000, 774.000000)">
                            <g id="Statspanel" transform="translate(145.000000, 34.396552)">
                                <rect id="Rectangle-1552" stroke-linecap="round" fill="#E1F5FF" x="10.7758621" y="10.6206897" width="105.603448" height="68.9655172"></rect>
                                <path d="M59.8415912,77.4313611 L47.2293607,107.603448 L39.8224908,107.603448" id="Path-3483" stroke-linecap="round"></path>
                                <path d="M84.3629985,77.4313611 L71.750768,107.603448 L64.3438981,107.603448" id="Path-3483" stroke-linecap="round" transform="translate(74.353448, 92.517405) scale(-1, 1) translate(-74.353448, -92.517405) "></path>
                                <rect id="Rectangle-1553" stroke-linecap="round" x="0" y="0" width="125" height="12.9310345" rx="20"></rect>
                                <path d="M25.862069,66.6551724 L25.862069,34.0414959" id="Line" stroke-linecap="square"></path>
                                <path d="M47.4137931,66.6551724 L47.4137931,27.862069" id="Line" stroke-linecap="square"></path>
                                <path d="M68.9655172,66.6551724 L68.9655172,47.1392562" id="Line" stroke-linecap="square"></path>
                                <path d="M90.5172414,66.6551724 L90.5172414,30.0172414" id="Line" stroke-linecap="square"></path>
                                <path d="M36.637931,66.6551724 L36.637931,45.1034483" id="Line" stroke-linecap="square"></path>
                                <path d="M58.1896552,66.6551724 L58.1896552,55.8793103" id="Line" stroke-linecap="square"></path>
                                <path d="M79.7413793,66.6551724 L79.7413793,34.0414959" id="Line" stroke-linecap="square"></path>
                                <path d="M101.293103,66.6551724 L101.293103,42.850515" id="Line" stroke-linecap="square"></path>
                            </g>
                        </g>
                    </g>
                </g>
            </g>
        </g>
    </g>
</svg>