<?xml version="1.0" encoding="utf-8"?>
<!-- Generator: Adobe Illustrator 17.0.0, SVG Export Plug-In . SVG Version: 6.00 Build 0)  -->
<!DOCTYPE svg PUBLIC "-//W3C//DTD SVG 1.1//EN" "http://www.w3.org/Graphics/SVG/1.1/DTD/svg11.dtd">
<svg version="1.1" id="Capa_1" xmlns="http://www.w3.org/2000/svg" xmlns:xlink="http://www.w3.org/1999/xlink" x="0px" y="0px"
	 width="32px" height="44.714px" viewBox="239.998 233.643 32 44.714" enable-background="new 239.998 233.643 32 44.714"
	 xml:space="preserve">
<g>
	<path fill="#5F9137" d="M239.998,278.357h32v-44.714h-32V278.357z M264.147,270.279h-16.295v-1.694h16.295V270.279z
		 M266.326,266.743h-20.652v-1.695h20.652L266.326,266.743L266.326,266.743z M247.852,263.458v-1.694h16.295v1.694H247.852z
		 M241.694,235.348h28.61V252.4l-28.61,6.821V235.348z M247.036,248.465c-0.339-0.177-0.743-0.207-1.213-0.092l-2.038,0.499
		l1.162,4.745l0.984-0.241l-0.418-1.706l0.988-0.242c0.515-0.126,0.884-0.339,1.105-0.639c0.221-0.3,0.263-0.73,0.126-1.29
		C247.608,248.985,247.376,248.641,247.036,248.465z M246.693,250.333c-0.098,0.145-0.26,0.245-0.486,0.3l-0.894,0.219l-0.342-1.397
		l0.893-0.22c0.226-0.056,0.415-0.046,0.566,0.028c0.152,0.074,0.257,0.235,0.317,0.482
		C246.81,249.994,246.791,250.189,246.693,250.333z M249.031,247.587l-0.532,5.16l1.037-0.254l0.083-1.054l1.748-0.428l0.551,0.899
		l1.076-0.263l-2.84-4.333L249.031,247.587z M249.687,250.555l0.158-2.017l1.057,1.72L249.687,250.555z M257.206,250.201
		c-0.035-0.073-0.08-0.218-0.133-0.435l-0.079-0.318c-0.081-0.333-0.188-0.568-0.318-0.709c-0.13-0.14-0.316-0.227-0.556-0.26
		c0.239-0.154,0.389-0.354,0.45-0.6c0.061-0.246,0.063-0.481,0.008-0.707c-0.045-0.187-0.115-0.346-0.21-0.477
		c-0.094-0.132-0.206-0.245-0.336-0.341c-0.157-0.116-0.333-0.19-0.525-0.223c-0.192-0.033-0.453-0.012-0.778,0.061l-2.269,0.555
		l1.161,4.744l0.969-0.236l-0.456-1.861l0.968-0.237c0.276-0.068,0.477-0.063,0.602,0.013c0.125,0.076,0.228,0.265,0.306,0.567
		l0.114,0.44c0.036,0.139,0.083,0.272,0.142,0.399c0.029,0.061,0.071,0.141,0.126,0.239l1.093-0.268l-0.028-0.119
		C257.344,250.393,257.262,250.317,257.206,250.201z M255.465,248.154c-0.094,0.077-0.246,0.142-0.458,0.194l-1.067,0.262
		l-0.312-1.275l1.094-0.268c0.204-0.05,0.364-0.059,0.479-0.029c0.205,0.055,0.343,0.225,0.414,0.513
		C255.68,247.817,255.63,248.018,255.465,248.154z M260.848,245.583l-1.419,0.348l0.957,3.905l-0.998,0.244l-0.958-3.904
		l-1.425,0.349l-0.206-0.84l3.844-0.941L260.848,245.583z M265.052,243.664l-0.86,3.354l0.435,1.779l-0.992,0.242l-0.435-1.779
		l-2.368-2.563l1.169-0.286l1.491,1.825l0.436-2.297L265.052,243.664z M267.759,247.045l0.227,0.931l-0.962,0.236l-0.228-0.931
		L267.759,247.045z M266.948,246.836l-0.809-2.147l-0.295-1.203l1.007-0.246l0.295,1.203l0.281,2.276L266.948,246.836z
		 M259.978,239.356h-16.193v-1.195h16.193V239.356L259.978,239.356z"/>
</g>
</svg>
