<?xml version="1.0" encoding="utf-8"?>
<!-- Generator: Adobe Illustrator 17.0.0, SVG Export Plug-In . SVG Version: 6.00 Build 0)  -->
<!DOCTYPE svg PUBLIC "-//W3C//DTD SVG 1.1//EN" "http://www.w3.org/Graphics/SVG/1.1/DTD/svg11.dtd">
<svg version="1.1" id="Capa_1" xmlns="http://www.w3.org/2000/svg" xmlns:xlink="http://www.w3.org/1999/xlink" x="0px" y="0px"
	 width="32px" height="30.289px" viewBox="240 240.845 32 30.289" enable-background="new 240 240.845 32 30.289"
	 xml:space="preserve">
<g>
	<path fill="#5F9137" d="M268.051,255.537L256,264.128l-12.051-8.591L240,252.72v18.414h32V252.72L268.051,255.537z
		 M255.931,240.845l-7.182,3.921h14.46L255.931,240.845z M268.319,253.745v-8.283h-24.637v8.284L256,262.529L268.319,253.745z
		 M244.217,245.998h23.566v7.471L256,261.871l-11.783-8.402V245.998z M246.871,247.995h0.342v2.625h-0.342V247.995z
		 M248.126,249.498c0-0.436-0.005-0.752-0.027-1.083l0.014-0.004c0.13,0.285,0.304,0.586,0.486,0.876l0.833,1.332h0.345v-2.624
		h-0.321v1.098c0,0.41,0.008,0.729,0.039,1.079l-0.011,0.004c-0.122-0.269-0.277-0.546-0.468-0.853l-0.837-1.328h-0.373v2.625h0.321
		V249.498z M251.316,250.62l0.937-2.625h-0.361l-0.444,1.297c-0.12,0.342-0.226,0.674-0.3,0.977h-0.008
		c-0.073-0.307-0.172-0.626-0.28-0.981l-0.407-1.293h-0.371l0.859,2.625H251.316z M252.535,247.995h0.342v2.625h-0.342V247.995z
		 M253.967,250.62h0.342v-2.337h0.803v-0.288h-1.945v0.288h0.799V250.62z M255.262,250.62l0.275-0.826h0.929l0.28,0.826h0.365
		l-0.895-2.625h-0.406l-0.895,2.625H255.262z M255.863,248.77c0.055-0.158,0.093-0.323,0.133-0.475h0.008
		c0.038,0.151,0.078,0.308,0.138,0.479l0.26,0.755h-0.794C255.608,249.529,255.863,248.77,255.863,248.77z M257.692,250.62h0.342
		v-2.337h0.803v-0.288h-1.944v0.288h0.798V250.62z M259.126,247.995h0.342v2.625h-0.342V247.995z M261.083,250.662
		c0.669,0,1.219-0.483,1.219-1.382c0-0.783-0.464-1.331-1.183-1.331c-0.702,0-1.212,0.544-1.212,1.38
		C259.906,250.121,260.385,250.662,261.083,250.662z M261.106,248.225c0.565,0,0.837,0.545,0.837,1.071
		c0,0.596-0.304,1.09-0.84,1.09c-0.538,0-0.843-0.502-0.843-1.067C260.26,248.747,260.542,248.225,261.106,248.225z M263.06,249.498
		c0-0.436-0.004-0.752-0.023-1.083l0.011-0.004c0.13,0.285,0.306,0.586,0.487,0.876l0.833,1.332h0.344v-2.624h-0.321v1.098
		c0,0.41,0.009,0.729,0.039,1.079l-0.009,0.004c-0.122-0.269-0.277-0.546-0.468-0.853l-0.839-1.328h-0.373v2.625h0.319V249.498
		L263.06,249.498z M259.003,253.779l0.091-0.069l0.112-0.082c0.078-0.057,0.156-0.111,0.235-0.164
		c0.321-0.211,0.656-0.403,1.002-0.568c0.692-0.318,1.439-0.54,2.192-0.484c0.375,0.022,0.748,0.12,1.098,0.291
		c0.354,0.17,0.676,0.415,0.978,0.699c-0.206-0.357-0.477-0.684-0.818-0.949c-0.338-0.268-0.748-0.452-1.175-0.561
		c-0.87-0.2-1.777-0.058-2.589,0.231c-0.41,0.142-0.805,0.322-1.179,0.536c-0.093,0.054-0.188,0.108-0.281,0.166l-0.141,0.089
		l-0.069,0.047l-0.034,0.024l-0.053,0.039c-0.13,0.099-0.299,0.211-0.457,0.306c-0.646,0.391-1.352,0.688-2.052,0.766
		c-0.698,0.085-1.363-0.084-1.912-0.509c-0.135-0.103-0.273-0.23-0.388-0.35l-0.202-0.225c-0.074-0.085-0.154-0.168-0.238-0.248
		c-0.331-0.315-0.729-0.579-1.167-0.744c-0.436-0.165-0.901-0.242-1.348-0.219c-0.45,0.022-0.879,0.118-1.285,0.261
		c-0.802,0.304-1.52,0.757-2.11,1.338c0.724-0.387,1.482-0.691,2.249-0.833c0.761-0.15,1.538-0.1,2.164,0.216
		c0.31,0.16,0.587,0.383,0.828,0.645c0.062,0.065,0.119,0.135,0.173,0.206l0.093,0.119c0.035,0.042,0.058,0.076,0.1,0.124
		c0.157,0.185,0.312,0.341,0.495,0.496c0.357,0.304,0.788,0.542,1.254,0.676c0.467,0.135,0.952,0.16,1.413,0.11
		c0.931-0.112,1.756-0.492,2.482-0.975C258.648,254.06,258.815,253.937,259.003,253.779z"/>
</g>
</svg>
