<?xml version="1.0" encoding="utf-8"?>
<!-- Generator: Adobe Illustrator 17.0.0, SVG Export Plug-In . SVG Version: 6.00 Build 0)  -->
<!DOCTYPE svg PUBLIC "-//W3C//DTD SVG 1.1//EN" "http://www.w3.org/Graphics/SVG/1.1/DTD/svg11.dtd">
<svg version="1.1" id="Layer_1" xmlns="http://www.w3.org/2000/svg" xmlns:xlink="http://www.w3.org/1999/xlink" x="0px" y="0px"
	 width="32px" height="32px" viewBox="240 240 32 32" enable-background="new 240 240 32 32" xml:space="preserve">
<g>
	<path fill="#5F9137" d="M269.447,247.83c0.282,0,0.511-0.229,0.511-0.511v-2.213h1.532c0.282,0,0.511-0.229,0.511-0.511v-4.085
		c0-0.282-0.229-0.511-0.511-0.511h-4.085c-0.282,0-0.511,0.229-0.511,0.511v1.532h-21.787v-1.532c0-0.282-0.229-0.511-0.511-0.511
		h-4.085c-0.282,0-0.511,0.229-0.511,0.511v4.085c0,0.282,0.229,0.511,0.511,0.511h1.532v21.787h-1.532
		c-0.282,0-0.511,0.229-0.511,0.511v4.085c0,0.282,0.229,0.511,0.511,0.511h4.085c0.282,0,0.511-0.229,0.511-0.511v-1.532h21.787
		v1.532c0,0.282,0.229,0.511,0.511,0.511h4.085c0.282,0,0.511-0.229,0.511-0.511v-4.085c0-0.282-0.229-0.511-0.511-0.511h-1.532
		v-17.532c0-0.282-0.229-0.511-0.511-0.511s-0.511,0.229-0.511,0.511v17.532h-1.532c-0.282,0-0.511,0.229-0.511,0.511v1.532h-21.787
		v-1.532c0-0.282-0.229-0.511-0.511-0.511h-1.532v-21.787h1.532c0.282,0,0.511-0.229,0.511-0.511v-1.532h21.787v1.532
		c0,0.282,0.229,0.511,0.511,0.511h1.532v2.213C268.936,247.602,269.165,247.83,269.447,247.83z M267.915,267.915h3.064v3.064
		h-3.064V267.915z M244.085,270.979h-3.064v-3.064h3.064V270.979z M244.085,244.085h-3.064v-3.064h3.064V244.085z M267.915,241.021
		h3.064v3.064h-3.064V241.021z"/>
	<path fill="#5F9137" d="M265.191,247.319c0-0.282-0.229-0.511-0.511-0.511h-17.362c-0.282,0-0.511,0.229-0.511,0.511V256
		c0,0.282,0.229,0.511,0.511,0.511h17.362c0.282,0,0.511-0.229,0.511-0.511V247.319z M247.83,248.146l7.028,3.514l-7.028,3.514
		V248.146z M249.482,247.83h13.035L256,251.089L249.482,247.83z M256,252.231l6.518,3.259h-13.035L256,252.231z M257.142,251.66
		l7.028-3.514v7.028L257.142,251.66z"/>
	<path fill="#5F9137" d="M254.979,264.17h-7.66c-0.282,0-0.511,0.229-0.511,0.511s0.229,0.511,0.511,0.511h7.66
		c0.282,0,0.511-0.229,0.511-0.511S255.261,264.17,254.979,264.17z"/>
	<path fill="#5F9137" d="M264.681,264.17h-7.66c-0.282,0-0.511,0.229-0.511,0.511s0.229,0.511,0.511,0.511h7.66
		c0.282,0,0.511-0.229,0.511-0.511S264.963,264.17,264.681,264.17z"/>
	<path fill="#5F9137" d="M254.979,262h-7.66c-0.282,0-0.511,0.229-0.511,0.511c0,0.282,0.229,0.511,0.511,0.511h7.66
		c0.282,0,0.511-0.229,0.511-0.511C255.489,262.229,255.261,262,254.979,262z"/>
	<path fill="#5F9137" d="M264.681,262h-7.66c-0.282,0-0.511,0.229-0.511,0.511c0,0.282,0.229,0.511,0.511,0.511h7.66
		c0.282,0,0.511-0.229,0.511-0.511C265.191,262.229,264.963,262,264.681,262z"/>
	<path fill="#5F9137" d="M254.979,259.83h-7.66c-0.282,0-0.511,0.229-0.511,0.511s0.229,0.511,0.511,0.511h7.66
		c0.282,0,0.511-0.229,0.511-0.511S255.261,259.83,254.979,259.83z"/>
	<path fill="#5F9137" d="M264.681,259.83h-7.66c-0.282,0-0.511,0.229-0.511,0.511s0.229,0.511,0.511,0.511h7.66
		c0.282,0,0.511-0.229,0.511-0.511S264.963,259.83,264.681,259.83z"/>
	<path fill="#5F9137" d="M264.681,257.66h-17.362c-0.282,0-0.511,0.229-0.511,0.511s0.229,0.511,0.511,0.511h17.362
		c0.282,0,0.511-0.229,0.511-0.511S264.963,257.66,264.681,257.66z"/>
</g>
</svg>
