<?xml version="1.0" encoding="utf-8"?>
<!-- Generator: Adobe Illustrator 17.0.0, SVG Export Plug-In . SVG Version: 6.00 Build 0)  -->
<!DOCTYPE svg PUBLIC "-//W3C//DTD SVG 1.1//EN" "http://www.w3.org/Graphics/SVG/1.1/DTD/svg11.dtd">
<svg version="1.1" id="Capa_1" xmlns="http://www.w3.org/2000/svg" xmlns:xlink="http://www.w3.org/1999/xlink" x="0px" y="0px"
	 width="32px" height="24.927px" viewBox="240 243.536 32 24.927" enable-background="new 240 243.536 32 24.927"
	 xml:space="preserve">
<g>
	<g>
		<path fill="#5F9137" d="M252.388,248.629h7.23c0.728,0,1.318-0.59,1.318-1.317v-0.891c0-0.728-0.59-1.317-1.318-1.317h-0.406
			v-0.557c0-0.557-0.452-1.009-1.009-1.009h-4.398c-0.557,0-1.009,0.452-1.009,1.009v0.557h-0.406c-0.728,0-1.317,0.59-1.317,1.317
			v0.891C251.071,248.046,251.661,248.629,252.388,248.629z"/>
		<path fill="#5F9137" d="M268.323,246.984h-6.175v0.328c0,1.396-1.141,2.537-2.537,2.537h-7.223c-1.396,0-2.537-1.141-2.537-2.537
			v-0.328h-6.175c-2.032,0-3.677,1.645-3.677,3.677v14.125c0,2.032,1.645,3.677,3.677,3.677h24.646c2.032,0,3.677-1.645,3.677-3.677
			v-14.125C272,248.636,270.355,246.984,268.323,246.984z M249.209,264.092c-3.513,0-6.365-2.851-6.365-6.365
			c0-3.513,2.851-6.365,6.365-6.365c3.513,0,6.365,2.851,6.365,6.365C255.574,261.24,252.729,264.092,249.209,264.092z
			 M268.408,261.299h-10.743v-1.37h10.737v1.37H268.408z M268.408,258.409h-10.743v-1.37h10.737v1.37H268.408z M268.408,255.518
			h-10.743v-1.37h10.737v1.37H268.408z"/>
		<path fill="#5F9137" d="M249.229,252.588c-2.838,0-5.139,2.301-5.139,5.139c0,1.219,0.426,2.34,1.134,3.218
			c0.046-0.413,0.223-0.885,0.747-1.016c1.009-0.256,1.829-0.832,1.829-0.832l0.76,2.399l0.105,0.328l0.341-0.964
			c-0.852-1.186,0.223-1.141,0.223-1.141s1.075-0.046,0.223,1.141l0.334,0.957l0.105-0.321v0.007l0.118-0.38l0.636-2.019
			c0,0,0.819,0.577,1.829,0.832c0.524,0.131,0.701,0.603,0.747,1.016c0.708-0.878,1.134-1.999,1.134-3.218
			C254.368,254.889,252.067,252.588,249.229,252.588z M251.261,257.124c-0.131,0.472-0.262,0.61-0.354,0.616
			c-0.085,0.564-0.537,1.278-1.239,1.534c-0.295,0.105-0.616,0.105-0.911,0c-0.714-0.256-1.154-0.97-1.239-1.534
			c-0.092-0.007-0.223-0.138-0.354-0.616c-0.184-0.649,0.013-0.747,0.177-0.728c-0.033-0.092-0.052-0.177-0.072-0.269l0,0
			c-0.059-0.302-0.072-0.583-0.007-0.859c0.085-0.361,0.282-0.649,0.498-0.878c0.138-0.144,0.295-0.275,0.459-0.38
			c0.138-0.092,0.288-0.177,0.446-0.229l0,0c0.131-0.046,0.262-0.072,0.406-0.079c0.446-0.039,0.78,0.072,1.023,0.216
			c0.361,0.197,0.498,0.465,0.498,0.465s0.826,0.059,0.551,1.744c-0.013,0.085-0.039,0.177-0.072,0.269
			C251.248,256.383,251.445,256.475,251.261,257.124z"/>
	</g>
</g>
</svg>
