<?xml version="1.0" encoding="utf-8"?>
<!-- Generator: Adobe Illustrator 17.0.0, SVG Export Plug-In . SVG Version: 6.00 Build 0)  -->
<!DOCTYPE svg PUBLIC "-//W3C//DTD SVG 1.1//EN" "http://www.w3.org/Graphics/SVG/1.1/DTD/svg11.dtd">
<svg version="1.1" id="Layer_1" xmlns="http://www.w3.org/2000/svg" xmlns:xlink="http://www.w3.org/1999/xlink" x="0px" y="0px"
	 width="50.694px" height="50.694px" viewBox="0 0 50.694 50.694" enable-background="new 0 0 50.694 50.694" xml:space="preserve">
<g>
	<rect x="0.5" y="0.5" fill="#FFFFFF" width="49.694" height="49.694"/>
	<path fill="#1BA6CA" d="M49.694,1v48.694H1V1H49.694 M50.694,0H0v50.694h50.694V0L50.694,0z"/>
</g>
<g>
	<g>
		<path fill="none" stroke="#1BA6CA" stroke-miterlimit="10" d="M22.421,35.882c0.953,0,1.884-0.094,2.785-0.271
			c-0.045-0.516,0.102-1.036,0.437-1.462L33.799,23.8c0.396-0.501,0.987-0.791,1.628-0.791c0.415,0,0.806,0.121,1.142,0.343
			c0.068-0.562,0.102-1.134,0.102-1.715c0-7.869-6.38-14.249-14.249-14.249c-7.869,0-14.249,6.376-14.249,14.245
			S14.552,35.882,22.421,35.882z M25.078,23.627c-0.573-0.705-1.556-1.002-2.442-1.206c-1.097-0.249-2.088-0.497-3.083-1.055
			c-0.637-0.354-1.138-0.855-1.481-1.489c-0.343-0.626-0.516-1.349-0.516-2.141c0-1.409,0.509-2.57,1.511-3.448
			c0.592-0.52,1.402-0.878,2.318-1.048v-0.769c0-0.52,0.422-0.942,0.942-0.942h0.513c0.52,0,0.942,0.422,0.942,0.942v0.78
			c0.848,0.166,1.605,0.497,2.171,0.969c0.599,0.497,1.04,1.131,1.311,1.888c0.2,0.558-0.166,1.157-0.75,1.244l-0.497,0.075
			c-0.452,0.068-0.886-0.196-1.033-0.629c-0.121-0.35-0.279-0.641-0.479-0.863c-0.448-0.505-1.157-0.791-1.941-0.791
			c-0.837,0-1.624,0.324-2.11,0.871c-0.4,0.448-0.592,0.961-0.592,1.575c0,0.599,0.17,1.108,0.501,1.507
			c0.693,0.837,1.832,1.063,2.928,1.285c0.641,0.128,1.304,0.264,1.88,0.516c0.614,0.271,1.123,0.607,1.511,0.995
			c0.392,0.392,0.697,0.867,0.908,1.406c0.211,0.535,0.317,1.123,0.317,1.749c0,1.368-0.445,2.529-1.315,3.444
			c-0.716,0.754-1.692,1.251-2.811,1.451v0.569c0,0.52-0.422,0.942-0.942,0.942h-0.516c-0.52,0-0.942-0.422-0.942-0.942V29.92
			c-0.618-0.117-1.21-0.317-1.741-0.592c-0.626-0.324-1.172-0.848-1.624-1.56c-0.301-0.475-0.52-1.025-0.652-1.643
			c-0.113-0.52,0.237-1.029,0.761-1.119l0.509-0.09c0.486-0.083,0.953,0.219,1.074,0.697c0.143,0.561,0.335,1.002,0.577,1.311
			c0.539,0.693,1.432,1.108,2.386,1.108l0,0c0.162,0,0.324-0.011,0.482-0.038c0.682-0.102,1.293-0.426,1.718-0.908
			c0.448-0.513,0.678-1.157,0.678-1.914C25.549,24.531,25.391,24.011,25.078,23.627z"/>
		<path fill="none" stroke="#1BA6CA" stroke-miterlimit="10" d="M30.166,43.306h10.518c0.52,0,0.942-0.422,0.942-0.942v-5.992h1.952
			c0.788,0,1.229-0.908,0.739-1.526l-7.982-10.134l-0.17-0.215c-0.188-0.241-0.464-0.358-0.739-0.358
			c-0.275,0-0.55,0.121-0.739,0.358l-8.155,10.349c-0.121,0.155-0.185,0.324-0.2,0.494c-0.049,0.516,0.347,1.033,0.938,1.033h1.952
			v5.992C29.224,42.884,29.646,43.306,30.166,43.306z"/>
	</g>
</g>
</svg>
