<?xml version="1.0" encoding="UTF-8" standalone="no"?>
<svg width="313px" height="63px" viewBox="0 0 313 63" version="1.1" xmlns="http://www.w3.org/2000/svg" xmlns:xlink="http://www.w3.org/1999/xlink">
    <defs></defs>
    <g id="Page-1" stroke="none" stroke-width="1" fill="none" fill-rule="evenodd">
        <g id="v2" transform="translate(-143.000000, -4586.000000)">
            <g id="content_mask" transform="translate(-1.000000, 0.000000)">
                <g id="content">
                    <g id="evetns" transform="translate(81.000000, 4423.000000)">
                        <g id="eventsGrid" transform="translate(0.000000, 124.000000)">
                            <g id="pcon">
                                <g id="partnercon_logo_side_white" transform="translate(63.000000, 39.000000)">
                                    <path d="M83.3876714,19.224 L75.0341486,19.224 L75.0341486,30.9348 L83.3876714,30.9348 C87.0175771,30.9348 89.5537714,28.5327 89.5537714,25.0794 C89.5537714,21.5757 87.0175771,19.224 83.3876714,19.224 L83.3876714,19.224 Z M84.03424,35.3376 L75.0341486,35.3376 L75.0341486,46.0476 C75.0341486,47.3985 73.9404371,48.4992 72.54714,48.4992 C71.2048171,48.4992 70.1111057,47.3985 70.1111057,46.0476 L70.1111057,18.0738 C70.1111057,16.272 71.5535886,14.8203 73.3430543,14.8203 L84.03424,14.8203 C90.8460143,14.8203 94.6252657,19.5246 94.6252657,25.0794 C94.6252657,30.6342 90.7476429,35.3376 84.03424,35.3376 L84.03424,35.3376 Z" id="Fill-1" fill="#FFFFFF"></path>
                                    <path d="M113.517946,38.7909 C112.175623,36.9387 109.788774,35.9883 107.30266,35.9883 C104.069817,35.9883 101.733049,37.9899 101.733049,40.8924 C101.733049,43.695 104.069817,45.6462 107.30266,45.6462 C109.788774,45.6462 112.175623,44.7453 113.517946,42.8949 L113.517946,38.7909 L113.517946,38.7909 Z M115.706263,48.4992 L115.556917,48.4992 C114.661737,48.4992 113.517946,47.7486 113.517946,46.2969 L113.517946,45.4959 C111.579134,47.6487 108.843514,48.7989 105.611566,48.7989 C101.633783,48.7989 97.2580429,46.0971 97.2580429,40.7925 C97.2580429,35.3376 101.633783,32.886 105.611566,32.886 C108.893594,32.886 111.62832,33.9363 113.517946,36.0882 L113.517946,32.0346 C113.517946,28.9827 111.031831,27.1809 107.650537,27.1809 C105.413034,27.1809 103.424143,27.8811 101.633783,29.2833 C101.285906,29.5326 100.887949,29.6829 100.540071,29.6829 C99.6448914,29.6829 98.7005257,28.9827 98.7005257,27.9315 C98.7005257,27.531 98.8498714,27.1305 99.1476686,26.7804 C101.435251,24.4791 105.065157,23.4279 108.297106,23.4279 C113.46876,23.4279 117.943766,25.6797 117.943766,31.8348 L117.943766,46.2969 C117.943766,47.4984 116.94932,48.4992 115.706263,48.4992 L115.706263,48.4992 Z" id="Fill-2" fill="#FFFFFF"></path>
                                    <path d="M135.444043,28.0314 C133.15646,28.2321 130.918957,29.2329 129.477369,31.3848 L129.477369,46.2969 C129.477369,47.4984 128.482029,48.4992 127.239866,48.4992 L127.189786,48.4992 C125.996809,48.4488 125.051549,47.4984 125.051549,46.2969 L125.051549,25.8795 C125.051549,24.7284 126.045994,23.7285 127.339131,23.7285 C128.482029,23.7285 129.477369,24.7284 129.477369,25.8795 L129.477369,27.7812 C130.819691,25.9299 133.007114,23.6781 135.692654,23.6781 C136.836446,23.6781 137.681546,24.5286 137.681546,25.6797 C137.681546,26.9811 136.6871,27.9315 135.444043,28.0314" id="Fill-3" fill="#FFFFFF"></path>
                                    <path d="M148.470209,48.7989 C144.690957,48.7989 142.702066,46.6974 142.702066,42.8949 L142.702066,27.9315 L140.365297,27.9315 C139.271586,27.9315 138.425591,27.0801 138.425591,25.9299 C138.425591,24.8787 139.271586,24.0282 140.365297,24.0282 L142.702066,24.0282 L142.702066,19.2744 C142.702066,18.1233 143.696511,17.1225 144.989649,17.1225 C146.182626,17.1225 147.177966,18.1233 147.177966,19.2744 L147.177966,24.0282 L150.4591,24.0282 C151.503626,24.0282 152.348726,24.8787 152.348726,26.0298 C152.348726,27.0801 151.503626,27.9315 150.4591,27.9315 L147.177966,27.9315 L147.177966,41.8437 C147.177966,43.695 148.072251,44.8461 149.514734,44.8461 C150.061143,44.8461 150.658526,44.5959 151.155749,44.5959 C152.24946,44.5959 153.045374,45.396 153.045374,46.4472 C153.045374,48.0483 151.105669,48.7989 148.470209,48.7989" id="Fill-4" fill="#FFFFFF"></path>
                                    <path d="M175.469589,48.4992 C174.275717,48.4992 173.281271,47.4984 173.281271,46.2969 L173.281271,32.6853 C173.281271,28.6821 171.243194,27.3807 168.160591,27.3807 C165.325706,27.3807 162.789511,29.0826 161.496374,30.9348 L161.496374,46.2969 C161.496374,47.4984 160.501929,48.4992 159.258871,48.4992 C158.065,48.4992 157.071449,47.4984 157.071449,46.2969 L157.071449,25.8795 C157.071449,24.7284 158.065,23.7285 159.358137,23.7285 C160.501929,23.7285 161.496374,24.7284 161.496374,25.8795 L161.496374,27.4311 C163.137389,25.479 166.320151,23.4279 169.999243,23.4279 C175.071631,23.4279 177.707091,26.0802 177.707091,31.1841 L177.707091,46.2969 C177.707091,47.4984 176.712646,48.4992 175.469589,48.4992" id="Fill-5" fill="#FFFFFF"></path>
                                    <path d="M195.356714,27.0306 C190.583017,27.0306 188.245354,31.0338 188.046823,34.3863 L202.764977,34.3863 C202.664817,31.1337 200.478289,27.0306 195.356714,27.0306 L195.356714,27.0306 Z M204.753869,37.539 L188.046823,37.539 C188.3947,41.6934 191.378037,45.1962 196.251894,45.1962 C198.289971,45.1962 200.478289,44.496 202.217674,43.1946 C202.516366,43.0443 202.864243,42.9444 203.213014,42.9444 C204.008034,42.9444 205.00248,43.6455 205.00248,44.7453 C205.00248,47.448 198.83638,48.7989 195.803857,48.7989 C188.643311,48.7989 183.422471,43.695 183.422471,36.0882 C183.422471,29.0826 188.443886,23.4279 195.4059,23.4279 C201.224123,23.4279 205.201011,27.0801 206.593414,32.4855 C206.79284,33.2865 207.041451,34.3368 207.041451,35.2872 C207.041451,36.4887 205.99782,37.539 204.753869,37.539 L204.753869,37.539 Z" id="Fill-6" fill="#FFFFFF"></path>
                                    <path d="M223.10014,28.0314 C220.812557,28.2321 218.575949,29.2329 217.132571,31.3848 L217.132571,46.2969 C217.132571,47.4984 216.13902,48.4992 214.895069,48.4992 L214.846777,48.4992 C213.652906,48.4488 212.707646,47.4984 212.707646,46.2969 L212.707646,25.8795 C212.707646,24.7284 213.702091,23.7285 214.995229,23.7285 C216.13902,23.7285 217.132571,24.7284 217.132571,25.8795 L217.132571,27.7812 C218.475789,25.9299 220.663211,23.6781 223.348751,23.6781 C224.492543,23.6781 225.337643,24.5286 225.337643,25.6797 C225.337643,26.9811 224.343197,27.9315 223.10014,28.0314" id="Fill-7" fill="#FFFFFF"></path>
                                    <path d="M256.811134,19.224 C257.209986,19.6749 257.408517,20.2248 257.408517,20.8251 C257.408517,22.077 256.363991,23.1273 255.071749,23.1273 C254.474366,23.1273 253.779506,22.8771 253.380654,22.3263 C251.441843,20.0745 248.35924,18.6741 245.475169,18.6741 C238.513154,18.6741 233.3415,24.0282 233.3415,31.5351 C233.3415,38.9907 238.513154,44.3961 245.475169,44.3961 C248.408426,44.3961 251.342577,43.0938 253.380654,40.7925 C253.779506,40.2921 254.474366,39.9915 255.121829,39.9915 C256.414071,39.9915 257.408517,41.0931 257.408517,42.2937 C257.408517,42.8949 257.209986,43.4448 256.811134,43.8444 C254.226649,46.6479 250.645929,48.7989 245.475169,48.7989 C235.828509,48.7989 228.22082,41.7933 228.22082,31.5351 C228.22082,21.276 235.828509,14.2695 245.475169,14.2695 C250.645929,14.2695 254.275834,16.3719 256.811134,19.224" id="Fill-8" fill="#FFFFFF"></path>
                                    <path d="M273.913454,27.3807 C269.139757,27.3807 266.405031,31.4847 266.405031,36.0882 C266.405031,40.7421 269.139757,44.8461 273.913454,44.8461 C278.737231,44.8461 281.421877,40.7421 281.421877,36.0882 C281.421877,31.4847 278.737231,27.3807 273.913454,27.3807 L273.913454,27.3807 Z M273.913454,48.7989 C266.455111,48.7989 261.83076,43.0443 261.83076,36.0882 C261.83076,29.133 266.455111,23.4279 273.913454,23.4279 C281.421877,23.4279 286.046229,29.133 286.046229,36.0882 C286.046229,43.0443 281.421877,48.7989 273.913454,48.7989 L273.913454,48.7989 Z" id="Fill-9" fill="#FFFFFF"></path>
                                    <g id="Group-13" fill="#FFFFFF">
                                        <path d="M310.159749,48.4992 C308.966771,48.4992 307.971431,47.4984 307.971431,46.2969 L307.971431,32.6853 C307.971431,28.6821 305.933354,27.3807 302.850751,27.3807 C300.015866,27.3807 297.479671,29.0826 296.187429,30.9348 L296.187429,46.2969 C296.187429,47.4984 295.192089,48.4992 293.949926,48.4992 C292.756054,48.4992 291.761609,47.4984 291.761609,46.2969 L291.761609,25.8795 C291.761609,24.7284 292.756054,23.7285 294.049191,23.7285 C295.192089,23.7285 296.187429,24.7284 296.187429,25.8795 L296.187429,27.4311 C297.828443,25.479 301.010311,23.4279 304.689403,23.4279 C309.761791,23.4279 312.398146,26.0802 312.398146,31.1841 L312.398146,46.2969 C312.398146,47.4984 311.402806,48.4992 310.159749,48.4992" id="Fill-10"></path>
                                        <path d="M47.6502257,0.0567 L47.6493314,9.0549 C47.6555914,9.1638 47.6716886,9.2655 47.6716886,9.3789 L47.5679514,34.6869 C47.5679514,36.8937 45.7740143,39.0132 43.5812257,39.3966 L10.7958171,45.2178 C8.60660571,45.6012 6.81535143,44.109 6.81535143,41.904 L6.91908857,16.6176 C6.91908857,14.4117 8.71034286,12.2931 10.8995543,11.9088 L41.1773857,6.597 L45.1873629,0.3888 L7.09079143,7.0767 C3.19081143,7.7616 0,11.5353 0,15.4647 L0,48.4533 C0,48.6567 0.0393485714,48.843 0.0599171429,49.0374 L0.0313,49.0428 L0.0313,60.912 C0.0313,62.1684 1.53817143,62.5347 2.41993714,61.4925 L9.68332571,52.9083 C9.94535143,52.5978 10.3012771,52.3872 10.6733,52.3224 L11.3833629,52.1982 L11.3833629,52.2081 L22.7720914,50.2101 L46.5153771,46.0638 C50.4225114,45.3816 53.6195829,41.6061 53.6195829,37.6731 L53.6195829,6.0588 C53.6195829,2.5155 51.0216829,0.0171 47.6502257,0.0567" id="Fill-12"></path>
                                    </g>
                                    <path d="M20.0489914,33.5304 L32.8918286,23.2542 L32.8918286,12.6549 L20.0489914,22.9347 L20.0489914,33.5304" id="Fill-14" fill="#64A943"></path>
                                    <path d="M34.06692,36.1467 L20.0489914,33.5304 L30.78668,24.939 L34.06692,25.5519 L34.06692,36.1467" id="Fill-15" opacity="0.515158582" fill="#FFFFFF"></path>
                                    <path d="M20.0489914,33.5304 L20.0489914,22.9347 L30.78668,24.939 L20.0489914,33.5304" id="Fill-16" fill="#C5DBAD"></path>
                                </g>
                            </g>
                        </g>
                    </g>
                </g>
            </g>
        </g>
    </g>
</svg>