<?xml version="1.0" encoding="UTF-8" standalone="no"?>
<svg width="138px" height="140px" viewBox="0 0 138 140" version="1.1" xmlns="http://www.w3.org/2000/svg" xmlns:xlink="http://www.w3.org/1999/xlink">
    <defs></defs>
    <g id="Page-1" stroke="none" stroke-width="1" fill="none" fill-rule="evenodd" stroke-linecap="round" stroke-linejoin="round">
        <g id="v2" transform="translate(-924.000000, -1644.000000)" stroke="#535353" stroke-width="2">
            <g id="content_mask" transform="translate(-1.000000, 0.000000)">
                <g id="content">
                    <g id="grid" transform="translate(189.000000, 1255.000000)">
                        <g id="bizConsult" transform="translate(544.467757, 297.769531)">
                            <g id="Malelike" transform="translate(195.942029, 92.376543)">
                                <path d="M64.6859903,0 C28.9609043,0 0,29.1774923 0,65.1697531 C0,101.162014 28.9609043,130.339506 64.6859903,130.339506 C100.411076,130.339506 129.371981,101.162014 129.371981,65.1697531" id="Oval-1812"></path>
                                <path d="M41.0100723,41.518904 L41.0100723,25.8701849 C41.0100723,22.2468499 43.9538258,19.3095565 47.5583714,19.3095565 L88.6437645,19.3095565 L88.6437645,41.5657844 L88.6437645,41.5657844 C91.373507,42.091219 93.4353194,44.4891802 93.4353194,47.3777246 L93.4353194,49.1700577 C93.4353194,52.070665 91.343632,54.4839563 88.5931394,54.9909925 C87.7871341,67.4126355 77.4573419,77.2382259 64.8269184,77.2382259 C52.2146385,77.2382259 41.892076,67.4388431 41.0636964,55.0366153 C38.1691824,54.6503483 35.9366613,52.1758037 35.9366613,49.1700577 L35.9366613,47.3777246 C35.9366613,44.3963614 38.1464397,41.9298265 41.0100723,41.518904 Z" id="Rectangle-2323"></path>
                                <path d="M53.4357785,77.2382259 L47.8335876,88.7581317 L34.4966029,88.7581317 C27.6522594,88.7581317 21.5619968,94.5584554 21.5619968,101.375171 L21.5619968,113.717928 M107.809984,113.443644 L107.809984,101.100888 C107.809984,94.2980426 102.273006,88.7581317 95.4427987,88.7581317 L80.4581109,88.7581317 L74.85592,77.2382259" id="Rectangle-2326"></path>
                                <path d="M113.799427,7.99789867 C110.442036,5.55674856 106.557571,4.87997366 103.568101,6.60594476 C98.9845706,9.25224743 98.2406665,16.5447764 101.906545,22.894264 C104.819978,27.9404779 109.641898,30.8723765 113.799427,30.5349869 C117.956957,30.8723765 122.778877,27.9404779 125.69231,22.894264 C129.358188,16.5447764 128.614284,9.25224743 124.030754,6.60594476 C121.041284,4.87997366 117.156819,5.55674856 113.799427,7.99789867 Z" id="Oval-1816" fill="#C4E48B"></path>
                            </g>
                        </g>
                    </g>
                </g>
            </g>
        </g>
    </g>
</svg>